<?xml version="1.0" encoding="utf-8"?>
<!-- Generator: Adobe Illustrator 24.3.0, SVG Export Plug-In . SVG Version: 6.00 Build 0)  -->
<svg version="1.1" id="Layer_1" xmlns="http://www.w3.org/2000/svg" xmlns:xlink="http://www.w3.org/1999/xlink" x="0px" y="0px"
	 viewBox="0 0 270.92 175.49" style="enable-background:new 0 0 270.92 175.49;" xml:space="preserve">
<g>
	<g>
		<g>
			<path d="M51.41,30.91c0.04,0,0.07-0.02,0.12-0.04c2.33-1.64,4.84-3.23,7.48-4.67c2.26-1.25,4.43-1.43,6.36-0.5
				c2.48,1.16,4.94,2.34,7.4,3.51c0.06,0.03,0.12,0.03,0.18,0.02c0.05-0.02,0.08-0.07,0.11-0.12c0.66-1.43,0.75-2.72,0.28-3.95
				c-0.01-0.05-0.05-0.07-0.09-0.1l-6.07-3.31c-0.95-0.53-2.08-0.84-3.34-0.89c-1.9-0.09-3.85,0.36-5.77,1.34
				c-1.76,0.9-3.5,1.85-5.17,2.84c-0.49,0.01-0.96-0.04-1.39-0.14c-0.13-0.04-0.51-0.14-1.36-0.42c-0.06-0.02-0.12-0.01-0.17,0.02
				c-0.06,0.03-0.09,0.07-0.11,0.12c-0.69,2.29-0.21,4.43,1.37,6.22C51.28,30.89,51.34,30.91,51.41,30.91z"/>
		</g>
		<g>
			<path d="M70.48,20.73c3.48-1.41,7.12-2.73,10.83-3.89c2.54,1.96,5.09,3.93,7.63,5.88c0.03,0.03,0.08,0.04,0.14,0.04
				c0.05,0,0.1-0.01,0.14-0.05c1.08-1.08,1.66-2.17,1.74-3.38c0.01-0.07-0.01-0.11-0.06-0.17l-4.43-3.82
				c0.43-0.12,0.88-0.24,1.3-0.35c0.11-0.03,0.18-0.12,0.17-0.22c-0.04-1.04-0.05-2.07,0.01-3.09c0-0.06-0.03-0.13-0.08-0.16
				c-0.05-0.05-0.12-0.06-0.19-0.05c-1.25,0.31-2.61,0.66-4.14,1.08c-0.28-0.24-0.55-0.47-0.83-0.71l-0.46-0.4
				c-0.08-0.07-0.18-0.08-0.27-0.03c-1.01,0.72-1.86,1.48-2.51,2.32c-1.99,0.59-4.03,1.27-6.11,1.98c-0.71-0.16-1.42-0.43-2.11-0.85
				c-0.1-0.05-0.23-0.02-0.29,0.09c-1.43,2.13-1.71,4.15-0.75,5.69C70.27,20.74,70.39,20.76,70.48,20.73z"/>
		</g>
		<g>
			<path d="M30.46,52.43c0.05,0.03,0.1,0.05,0.14,0.05c0.02,0,0.02,0,0.02,0c0.06,0,0.11-0.03,0.15-0.06
				c2.35-2.67,4.57-3.85,6.01-4.36c0.78-0.28,2.6-0.24,5.48,0.11c0.39,0.07,1.58,0.25,3.53,0.56c3.2,0.53,6.4,1.04,9.6,1.56
				c0.07,0.02,0.16-0.03,0.2-0.08c0.06-0.06,0.06-0.15,0.03-0.22c-0.83-1.73-1.59-2.98-2.42-3.93c-0.03-0.04-0.07-0.07-0.11-0.07
				c-2.18-0.52-4.34-1.03-6.49-1.55c-2.19-0.54-3.76-0.92-4.82-1.1c-2.03-0.39-3.89-0.64-5.65-0.8c-0.02,0-0.05,0-0.08,0.01
				c-3.48,1.15-6.54,2.74-9.14,4.76c-0.07,0.07-0.1,0.16-0.05,0.26C27.64,49.24,28.83,50.82,30.46,52.43z"/>
		</g>
		<g>
			<path d="M100.57,12.7c-0.07-0.09-0.22-0.1-0.3-0.05c-1.16,0.91-2.12,1.92-2.86,3.03c-0.05,0.07-0.04,0.2,0.04,0.26l0.26,0.28
				c1.02,1.11,2.07,2.23,3.1,3.34c0.04,0.05,0.1,0.06,0.16,0.06s0.1-0.02,0.14-0.04c1.07-0.84,1.97-1.76,2.65-2.75
				c0.06-0.08,0.05-0.18,0-0.25C102.68,15.3,101.62,13.99,100.57,12.7z"/>
		</g>
		<g>
			<path d="M37.51,40.36c0.05,0.03,0.12,0.03,0.18-0.01c2.24-1.36,4.47-2.47,6.64-3.29c0.53-0.21,1.08-0.23,1.62-0.09
				c0.87,0.23,1.53,0.69,2.04,1.39c0.08,0.12,0.25,0.42,0.5,0.85c0.16,0.29,0.36,0.64,0.61,1.07c0.02,0.05,0.08,0.09,0.14,0.11
				c0.01,0,0.03,0,0.05,0c0.05,0,0.09-0.03,0.14-0.06c0.22-0.19,0.43-0.38,0.66-0.58l0.1-0.08c0.04-0.02,0.06-0.08,0.07-0.12
				c1.03-3.99,1.15-6.63-1.47-7.48c-1.01-0.33-2.31-0.28-3.78,0.12c-3.32,0.94-6.3,2.03-9.14,3.37c-0.1,0.06-0.14,0.16-0.12,0.26
				c0.46,1.57,1.07,3.1,1.6,4.41C37.39,40.3,37.45,40.35,37.51,40.36z"/>
		</g>
		<g>
			<path d="M144.9,5.19c0.66,0.21,0.88,0.31,0.94,0.36c0.12,0.09,0.29,0.24,0.25,0.65c-0.01,0.16-0.05,0.45-0.13,0.91
				c-0.08,0.48-0.13,0.81-0.14,0.99c-0.01,0.39-0.01,0.89,0.31,1.1c0.33,0.19,1.08,0.33,2.5,0.43c0.53,0.04,1.07,0.07,1.62,0.11
				l0.41,0.05c0.89,0.06,1.79,0.13,2.81,0.23c1.05,0.11,2.13,0.21,3.19,0.31c0.4,0.05,0.67,0.16,0.77,0.31
				c0.07,0.09,0.07,0.23,0.04,0.4c-0.29,0.98-1.15,1.57-2.57,1.74l-0.24,0.04c-0.63,0.07-1.29,0.16-1.91,0.2
				c-1.17,0.07-2.18,0.11-3.25,0.07c-0.05,0-0.1,0.02-0.13,0.05c-1.26,0.95-2.51,1.94-3.7,2.96c-0.06,0.05-0.08,0.15-0.05,0.24
				c0.02,0.07,0.11,0.14,0.19,0.14h0.01c1.6-0.01,2.76-0.06,3.92-0.13c0.77-0.04,1.53-0.12,2.48-0.24c3.09-0.36,5.67-1.11,7.66-2.25
				c2.39-1.35,3.82-2.67,4.38-4.05c0.23-0.61,0.22-1.07-0.02-1.35c-0.3-0.35-1.01-0.59-2.19-0.75c-2.53-0.34-5.11-0.62-7.92-0.89
				c-0.64-0.05-1.24-0.1-1.77-0.15c-0.63-0.05-0.83-0.16-0.88-0.24l0.06-0.56c0.06-0.4,0.07-0.76,0.05-1.07
				c-0.08-1.02-0.54-1.76-1.37-2.21c-0.05-0.02-0.11-0.02-0.18,0c-1.72,0.67-3.36,1.39-5.16,2.21c-0.07,0.03-0.12,0.11-0.12,0.21
				C144.75,5.1,144.81,5.16,144.9,5.19z"/>
		</g>
		<g>
			<path d="M91.76,13.99c4.92-1.16,9.97-2.12,14.98-2.84c1.17-0.18,2-0.14,2.47,0.03c0.18,0.09,0.49,0.3,0.95,0.95
				c1.08,1.56,2.24,3.23,3.64,5.3c0.04,0.06,0.11,0.1,0.18,0.1c0.03,0,0.07-0.02,0.1-0.03c1.31-0.74,2.35-1.52,3.09-2.34
				c0.06-0.07,0.07-0.15,0.02-0.25c-0.74-1.47-1.48-2.94-2.21-4.43c-0.59-1.2-1.36-1.96-2.36-2.33c-1.44-0.54-3.26-0.66-5.34-0.39
				c-3.33,0.46-6.7,1-10.02,1.62c-0.42-0.31-0.84-0.69-1.29-1.13c-0.07-0.08-0.21-0.09-0.29-0.03c-2.04,1.42-3.46,3.28-4.2,5.51
				c-0.02,0.07,0,0.14,0.05,0.2C91.59,13.99,91.69,14,91.76,13.99z"/>
		</g>
		<g>
			<path d="M223.52,34.48c-0.07,0-0.17,0.05-0.2,0.13c-0.03,0.09,0,0.18,0.06,0.24c2.85,2.48,5.11,4.81,6.93,7.16
				c0.63,0.79,0.75,1.54,0.36,2.23c-0.34,0.61-1.02,1.06-1.99,1.36c-1.71,0.52-2.93,0.2-3.8-1.03c-1.32-1.87-2.99-3.79-5.09-5.87
				c-0.05-0.03-0.1-0.07-0.15-0.07c-1.66-0.07-3.44-0.1-5.63-0.1h-0.69c-0.08,0-0.17,0.05-0.2,0.14c-0.03,0.08-0.01,0.17,0.06,0.25
				c3.66,3.29,6.36,6.57,8.26,9.97c0.02,0.06,0.07,0.08,0.12,0.1c3.86,1.07,6.71,1.57,8.95,1.57c1.01,0,1.89-0.09,2.69-0.3
				c2.01-0.5,3.41-1.46,4.19-2.83c0.91-1.7,0.63-3.66-0.82-5.66c-0.98-1.34-2.13-2.7-3.59-4.27c0.3-0.38,0.89-0.74,1.73-1.04
				c0.08-0.05,0.14-0.11,0.14-0.21c-0.01-0.09-0.07-0.17-0.16-0.2c-3.21-1.05-6.52-1.59-9.82-1.59
				C224.41,34.46,223.96,34.46,223.52,34.48z"/>
		</g>
		<g>
			<path d="M198.56,29.68c2.09,1.08,4.53,2,7.47,2.82c2.92,0.8,5.63,1.21,8.05,1.21h0.21c2.74-0.02,5.1-0.56,7.02-1.55
				c1.89-0.98,3.2-2.24,3.91-3.78c0.03-0.05,0.02-0.13-0.01-0.19c-0.03-0.07-0.08-0.1-0.14-0.11c-2.72-0.47-5.52-0.81-7.91-1.09
				c-0.11-0.01-0.2,0.05-0.24,0.14c-0.48,1.32-1.42,2.34-2.76,3.05c-0.52,0.26-0.99,0.44-1.4,0.52c-1.13,0.08-2.74-0.24-4.94-1
				c-2-0.69-3.45-1.27-4.58-1.9c-0.52-0.27-0.78-0.51-0.71-0.66l0.2-0.35c0.1-0.19,0.21-0.36,0.3-0.55c2.03,0.27,3.74,0.4,5.22,0.4
				c2.43,0,4.21-0.36,5.46-1.13c1-0.61,1.82-1.51,2.44-2.71c0.02-0.05,0.02-0.13,0-0.2c-0.05-0.06-0.11-0.1-0.18-0.12
				c-2.58-0.26-5.21-0.41-7.44-0.51c-0.11-0.01-0.19,0.06-0.22,0.15c-0.31,0.92-0.72,1.58-1.19,1.88c-0.65,0.45-1.71,0.59-3.19,0.39
				c0.35-0.73,0.69-1.54,1.01-2.36c0.77-1.92,1.02-3.39,0.76-4.39c-0.04-0.09-0.12-0.15-0.21-0.15h-0.66c-2.27,0-4.5,0.08-6.78,0.17
				c-0.07,0-0.14,0.05-0.18,0.11c-0.04,0.07-0.04,0.16,0.03,0.22c0.68,0.98,0.91,1.93,0.68,2.83c-0.47,1.72-1.07,3.52-1.86,5.5
				c-0.35,0.85-0.43,1.35-0.29,1.68C196.6,28.48,197.28,29.01,198.56,29.68z"/>
		</g>
		<g>
			<path d="M175.09,13.32c3.17,0.69,5.99,1.38,8.61,2.1c1.5,0.42,2.4,0.95,2.57,1.54c0.11,0.34-0.02,0.73-0.41,1.14
				c-1.37,1.6-2.74,3.17-4.13,4.76c-0.06,0.06-0.08,0.15-0.04,0.23c0.04,0.08,0.11,0.12,0.19,0.12h0.01
				c2.46-0.12,4.68-0.47,6.54-1.05c0.03-0.01,0.07-0.03,0.09-0.05c1.37-1.35,2.75-2.69,4.12-4.05c0.71-0.67,0.94-1.39,0.71-2.1
				c-0.36-1-1.64-1.85-3.76-2.48c-1.78-0.53-3.62-1.04-5.64-1.57c-0.07-0.17-0.08-0.34-0.04-0.52c0.04-0.06,0.12-0.25,0.41-0.76
				c0.04-0.08,0.04-0.15-0.01-0.23c-0.04-0.08-0.12-0.1-0.21-0.1c-3.6,0.41-6.67,1.28-9.09,2.61c-0.08,0.06-0.13,0.13-0.12,0.22
				C174.93,13.22,175,13.3,175.09,13.32z"/>
		</g>
		<g>
			<path d="M117.88,8.88c3.8,0.87,4.51,1.77,4.64,2.14c0.11,0.31,0.06,0.84-0.17,1.53c-0.4,1.2-0.76,2.51-1.09,4.04
				c-0.01,0.07,0.01,0.16,0.07,0.2c0.05,0.04,0.1,0.05,0.14,0.05c0.02,0,0.06,0,0.08-0.01c1.83-0.78,3.4-1.69,4.7-2.74
				c0.03-0.04,0.06-0.07,0.08-0.11c0.23-0.91,0.58-1.76,1.05-2.51c0.48-0.81,0.98-1.38,1.48-1.7c0.88-0.61,1.99-0.91,3.35-0.95h0.08
				c1.81,0,3.24,0.48,4.28,1.39c0.72,0.66,1.16,1.43,1.28,2.32c-2.6-0.04-5.23-0.03-7.84,0.04c-0.06,0-0.12,0.04-0.16,0.07
				c-0.67,0.85-1.34,1.75-2.07,2.86c-0.05,0.06-0.05,0.15,0,0.23c0.03,0.07,0.1,0.11,0.18,0.11c4.14-0.17,8.22-0.19,12.17-0.06
				c0.06,0,0.11-0.02,0.14-0.05c1.62-1.25,2.42-2.64,2.44-4.21c0.01-1.54-0.6-2.86-1.82-3.88c-1.59-1.35-3.95-2.04-7.05-2.04h-0.12
				c-1.8,0.01-3.31,0.4-4.51,1.17c-0.55,0.37-1.18,0.99-1.85,1.86c-0.53-1.11-2.15-2.34-4.76-3.57c-0.07-0.03-0.14-0.03-0.22,0.03
				c-1.7,1.13-3.27,2.36-4.6,3.42c-0.07,0.04-0.1,0.12-0.08,0.22C117.75,8.8,117.81,8.85,117.88,8.88z"/>
		</g>
		<g>
			<polygon points="27.08,84.95 31.2,91.86 35.1,84.95 42.25,84.95 38.62,78.7 42.12,72.51 35.07,72.57 31.07,65.68 27.04,72.62 
				19.76,72.69 23.44,78.84 19.89,84.95 			"/>
		</g>
		<g>
			<polygon points="235.96,72.62 228.67,72.69 232.35,78.86 228.8,84.95 235.99,84.95 240.12,91.86 244.02,84.95 251.16,84.95 
				247.54,78.7 251.03,72.51 243.98,72.57 239.98,65.68 			"/>
		</g>
		<g>
			<path d="M78.95,149.02c0.03-0.08,0.02-0.15-0.04-0.23c-0.05-0.06-0.13-0.1-0.2-0.08c-1.49,0.33-3,0.65-4.49,0.93
				c-0.07,0-0.13,0.06-0.15,0.1c-0.59,1.14-1.29,2.03-2.14,2.73c-0.32,0.28-0.65,0.49-0.92,0.65c-0.4,0.14-0.89,0.21-1.45,0.21l0,0
				c-0.47,0-1.03-0.05-1.61-0.15c-1.11-0.2-2.02-0.48-2.7-0.86c-0.25-0.14-0.29-0.24-0.29-0.26c-0.01-0.01-0.01-0.03,0.04-0.11
				l0.58-0.8c3.03,0.07,5.39-0.57,7.03-1.89c0.66-0.52,1.37-1.28,2.15-2.32c0.05-0.06,0.05-0.16,0-0.23
				c-0.04-0.06-0.12-0.12-0.22-0.1c-1.46,0.22-2.91,0.44-4.34,0.62c-0.06,0-0.12,0.04-0.16,0.09c-0.56,0.82-1.02,1.36-1.37,1.62
				c-0.5,0.39-1.16,0.59-1.91,0.6c0.44-0.59,0.9-1.19,1.36-1.78c1.28-1.65,1.98-2.69,2.26-3.39c0.03-0.08,0.03-0.15-0.04-0.21
				c-0.04-0.07-0.12-0.11-0.19-0.09c-1.58,0.21-3.08,0.36-4.59,0.49c-0.11,0.01-0.19,0.1-0.21,0.2c-0.07,0.77-0.4,1.5-0.95,2.25
				c-1.24,1.61-2.33,3.09-3.34,4.54c-0.63,0.87-0.69,1.21-0.68,1.4c0.03,0.44,0.43,0.87,1.24,1.33c1.38,0.77,3.03,1.25,4.92,1.41
				c0.41,0.03,0.83,0.06,1.23,0.06c1.48,0,2.91-0.24,4.22-0.69c1.65-0.58,3.1-1.47,4.35-2.65
				C77.41,151.42,78.29,150.28,78.95,149.02z"/>
		</g>
		<g>
			<path d="M82.58,150.45c-1.6,0.44-3.07,0.9-4.35,1.43c-0.06,0.02-0.1,0.05-0.13,0.1c-0.01,0.06-0.01,0.11,0,0.17
				c0.38,0.85,0.61,1.61,0.73,2.32c0.03,0.25-0.11,0.6-0.42,1c-0.13,0.18-0.4,0.47-0.78,0.85c-1.1,1.13-2.21,2.27-3.32,3.39
				l-0.43,0.44c-0.06,0.06-0.07,0.16-0.03,0.25c0.03,0.08,0.12,0.11,0.19,0.11c0.02,0,0.03,0,0.03,0c1.73-0.23,3.28-0.66,4.68-1.3
				c0.02-0.01,0.04-0.02,0.06-0.04l2.91-3c1.07-1.1,1.57-1.95,1.6-2.62c0.05-0.97-0.11-1.94-0.46-2.95
				C82.81,150.49,82.67,150.43,82.58,150.45z"/>
		</g>
		<g>
			<path d="M113.95,160.75c-1.37-0.2-2.81-0.45-4.41-0.74c-0.14-0.03-0.18-0.06-0.19-0.07c0-0.01,0-0.04-0.01-0.02l0.25-0.61
				c0.65-1.46,0.83-2.48,0.58-3.09c-0.02-0.06-0.07-0.09-0.13-0.11c-0.06-0.02-0.13,0-0.18,0.02c-0.98,0.64-2.01,1.28-3.14,1.95
				c-0.06,0.03-0.1,0.1-0.11,0.15c0,0.06,0.02,0.13,0.06,0.18c0.22,0.19,0.24,0.27,0.24,0.3c0.01,0.07,0.01,0.26-0.18,0.66
				c-0.08,0.16-0.23,0.47-0.46,0.86c-0.21,0.41-0.37,0.74-0.47,0.94c-0.31,0.64-0.34,0.86-0.27,1.02c0.09,0.28,0.5,0.47,1.23,0.6
				c1.32,0.26,2.62,0.5,3.99,0.73c0.14,0.02,0.18,0.08,0.19,0.09c0.02,0.05,0.06,0.2-0.06,0.53c-0.37,0.97-0.96,1.55-1.83,1.74
				c-1.05,0.25-2.12,0.32-3.17,0.25c-0.05,0-0.11,0.01-0.16,0.03c-1.09,0.9-2.21,1.79-3.33,2.64c-0.07,0.05-0.1,0.14-0.07,0.23
				c0.02,0.09,0.1,0.15,0.18,0.15c0.61,0.05,1.19,0.08,1.76,0.08c3.26,0,5.84-0.85,7.67-2.5c1.43-1.3,2.4-2.69,2.9-4.14
				c0.19-0.58,0.25-0.95,0.17-1.19C114.88,161.08,114.54,160.86,113.95,160.75z"/>
		</g>
		<g>
			<path d="M103.9,160.02c-0.19-0.79-0.79-1.32-1.8-1.56c-1.47-0.36-2.86-0.73-4.27-1.1c0.17-0.33,0.36-0.69,0.58-1.07
				c0.05-0.08,0.04-0.16-0.02-0.23c-0.05-0.07-0.14-0.09-0.23-0.07c-1.74,0.54-3.74,1.44-6.11,2.76c-0.07,0.03-0.12,0.11-0.11,0.2
				c0,0.09,0.06,0.17,0.14,0.2c2.38,0.72,4.85,1.41,7.36,2.04c0.48,0.12,0.77,0.29,0.79,0.46c0,0.05-0.02,0.28-0.39,0.98
				c-0.9,1.75-1.79,3.5-2.67,5.27c-0.05,0.08-0.03,0.16,0.01,0.23c0.05,0.04,0.11,0.07,0.17,0.07c0.02,0,0.04,0,0.05,0
				c1.3-0.28,2.47-0.7,3.46-1.27c0.04-0.01,0.06-0.06,0.08-0.08c0.76-1.43,1.5-2.87,2.25-4.31
				C103.79,161.4,104.03,160.59,103.9,160.02z"/>
		</g>
		<g>
			<path d="M95.54,160.63c-1.28,0.39-2.57,0.85-3.77,1.35c-0.04,0.01-0.07,0.04-0.1,0.08l-2.51,3.63c-0.05,0.07-0.05,0.17,0,0.23
				c0.03,0.08,0.09,0.1,0.18,0.1c0.01,0,0.02,0,0.04,0c1.36-0.25,2.65-0.61,3.84-1.14c0.04-0.01,0.06-0.05,0.08-0.09l2.51-3.85
				c0.05-0.08,0.05-0.18-0.02-0.25C95.73,160.63,95.64,160.6,95.54,160.63z"/>
		</g>
		<g>
			<path d="M54.19,138.55c0.74-0.34,1.2-0.85,1.39-1.49c0.3-1.09,0.53-2.23,0.68-3.46c0.02-0.05,0-0.12-0.05-0.16
				c-0.04-0.05-0.1-0.08-0.16-0.08h-0.01c-1.56,0.03-3.17,0-4.74-0.04c-0.06,0.02-0.12,0.03-0.16,0.08
				c-0.04,0.04-0.07,0.09-0.07,0.15c0.01,1.25-0.05,2.09-0.17,2.74c-0.02,0.16-0.23,0.34-0.58,0.49c-0.61,0.28-1.43,0.47-2.42,0.53
				c-0.3,0.02-1.18,0.04-2.48,0.04c-0.08,0.02-0.16,0.06-0.19,0.13c-0.04,0.06-0.03,0.15,0.01,0.22c0.06,0.06,0.12,0.14,0.17,0.21
				c0.05,0.06,0.1,0.12,0.16,0.2c0.02,0.04,0.06,0.06,0.11,0.07c2.06,0.64,3.88,0.98,5.44,0.98
				C52.34,139.16,53.37,138.95,54.19,138.55z"/>
		</g>
		<g>
			<path d="M31.69,119.67c0.01,0,0.04,0,0.06-0.02c2.15-0.55,4.29-1.1,6.45-1.64c1.12-0.28,1.9-0.57,2.33-0.82
				c0.81-0.51,1.04-1.21,0.69-2.09c-0.72-1.76-1.36-3.56-1.85-5.38c0.58-0.3,1.17-0.57,1.74-0.78c0.07-0.03,0.13-0.11,0.13-0.2
				c0-0.1-0.05-0.16-0.13-0.21c-2.62-1.11-4.88-1.81-6.91-2.11c-0.08-0.02-0.14,0-0.19,0.05c-0.05,0.05-0.07,0.12-0.06,0.18
				c0.11,0.62,0.24,1.21,0.36,1.75c-1.77,0.75-3.38,1.32-4.94,1.69c-0.17-0.6-0.33-1.25-0.48-2.02c-0.02-0.08-0.08-0.14-0.17-0.17
				c-1.42-0.34-2.89-0.72-4.49-1.16c-0.07-0.03-0.14,0-0.2,0.05c-0.05,0.05-0.07,0.12-0.06,0.2c0.32,1.75,0.75,3.55,1.26,5.31
				c0.02,0.07,0.08,0.12,0.16,0.15c1.47,0.36,2.93,0.6,4.38,0.71c0.03,0,0.05,0,0.07,0c1.75-0.36,3.56-0.89,5.32-1.57
				c0.31,1,0.66,2.01,1.05,3.02c0.12,0.34,0.03,0.56-0.32,0.76c-0.27,0.15-0.89,0.35-1.85,0.58c-2.22,0.53-4.64,1.12-7.6,1.85
				c-0.08,0.03-0.14,0.09-0.16,0.2c-0.01,0.08,0.04,0.17,0.12,0.2c1.61,0.83,3.4,1.33,5.29,1.48H31.69z"/>
		</g>
		<g>
			<path d="M57.84,147.07c0.93-0.57,1.85-1.15,2.79-1.71l0.37-0.24c1.19-0.75,1.93-1.27,2.27-1.67c0.35-0.42,0.5-0.81,0.44-1.2
				c-0.05-0.42-0.31-0.79-0.81-1.16c-0.74-0.53-1.49-1.09-2.31-1.74c0.46-0.33,0.91-0.62,1.36-0.85c0.1-0.05,0.13-0.16,0.11-0.24
				c-0.02-0.1-0.11-0.16-0.22-0.16c-2.75,0.07-5.12,0.35-7.24,0.91c-0.08,0.01-0.13,0.08-0.16,0.15c-0.01,0.08,0.01,0.16,0.07,0.21
				c1.13,0.95,2.33,1.94,3.67,2.93c0.26,0.21,0.4,0.4,0.4,0.58c0,0.22-0.21,0.47-0.58,0.75c-0.62,0.44-1.5,1.02-2.61,1.75
				c-1.37-1-2.71-2.04-4.01-3.08c-0.04-0.04-0.1-0.05-0.17-0.05c-1.63,0.24-3.26,0.44-4.64,0.59c-0.1,0.01-0.16,0.07-0.18,0.15
				c-0.03,0.07,0,0.17,0.06,0.22c2.51,2.14,5.21,4.19,8.02,6.1c0.04,0.04,0.08,0.05,0.13,0.05c0.01,0,0.02,0,0.05-0.01
				c1.57-0.35,2.99-0.7,4.34-1.05c0.07-0.03,0.13-0.09,0.14-0.18c0.03-0.07-0.01-0.16-0.08-0.21
				C58.65,147.64,58.26,147.35,57.84,147.07z"/>
		</g>
		<g>
			<path d="M45.4,119.7c-1.58-0.3-3.15-0.63-4.68-0.97c-0.12-0.02-0.21,0.04-0.25,0.14c-0.41,1.28-0.75,2.19-1.08,2.86
				c-0.1,0.17-0.36,0.32-0.77,0.43c-0.72,0.17-1.59,0.21-2.57,0.1c-0.29-0.04-1.17-0.17-2.45-0.42c-0.07-0.02-0.14,0.02-0.2,0.07
				c-0.05,0.06-0.06,0.13-0.04,0.21c0.06,0.16,0.12,0.33,0.17,0.47c0.03,0.06,0.05,0.11,0.1,0.13c2.52,1.48,4.77,2.25,6.71,2.25
				c0.58,0,1.12-0.07,1.61-0.22c0.84-0.22,1.44-0.67,1.83-1.27c0.64-1.06,1.22-2.2,1.8-3.5c0.02-0.07,0.01-0.13-0.01-0.18
				C45.52,119.76,45.46,119.71,45.4,119.7z"/>
		</g>
		<g>
			<path d="M53.28,130.4c0.06-0.05,0.1-0.14,0.06-0.23c-0.02-0.09-0.09-0.15-0.19-0.15c-1.69-0.11-3.48-0.27-5.47-0.49
				c-0.07-0.01-0.14,0.01-0.18,0.06c-1.27,1.29-2.32,2.1-3.23,2.43c-0.41,0.15-0.91,0.15-1.44,0c-0.36-0.1-0.71-0.25-1.06-0.38
				c0.96-0.49,2.11-1.17,3.48-2.02c1.92-1.19,3.46-2.28,4.58-3.22c0.07-0.06,0.11-0.14,0.07-0.22c-0.02-0.09-0.08-0.14-0.17-0.16
				c-1.77-0.25-3.58-0.55-5.41-0.9c-0.08-0.01-0.17,0.02-0.22,0.1c-1.42,1.96-3.14,3.56-5.25,4.89c-0.92-0.69-1.71-1.38-2.39-2.08
				c-0.05-0.05-0.11-0.06-0.17-0.06c-1.69,0.08-3.39,0.14-5.06,0.2c-0.09,0-0.17,0.06-0.19,0.14c-0.04,0.08,0,0.17,0.06,0.24
				c2.01,1.65,3.99,3,5.89,3.99c2.24,1.15,4.41,1.85,6.51,2.1c0.01,0,0.02,0,0.04,0h0.01c1.55-0.14,3.11-0.54,4.62-1.18
				C49.89,132.75,51.56,131.75,53.28,130.4z"/>
		</g>
		<g>
			<path d="M124.57,163.11c-0.38-0.78-1.1-1.22-2.17-1.32c-0.85-0.09-1.7-0.16-2.55-0.27c-0.03-0.13-0.05-0.29-0.03-0.47
				c0.01-0.1,0.07-0.45,0.14-0.77c0.01-0.09-0.03-0.16-0.1-0.21c-0.07-0.07-0.17-0.07-0.25,0c-1.69,1.11-3.1,2.4-4.21,3.84
				c-0.05,0.05-0.06,0.14-0.04,0.21c0.04,0.06,0.1,0.11,0.18,0.13c1.44,0.2,2.92,0.37,4.4,0.51c0.6,0.07,1.04,0.26,1.28,0.57
				c0.23,0.32,0.29,0.8,0.16,1.41c-0.28,1.42-0.55,2.83-0.83,4.23l-0.17,0.84c-0.01,0.08,0.02,0.15,0.09,0.2
				c0.04,0.04,0.08,0.06,0.13,0.06c0.03,0,0.06,0,0.1-0.03c1.36-0.63,2.44-1.46,3.23-2.48c0.02-0.03,0.04-0.06,0.04-0.1l0.78-4.46
				C124.87,164.27,124.82,163.65,124.57,163.11z"/>
		</g>
		<g>
			<path d="M237.11,126.17c-0.06-0.04-0.12-0.06-0.18-0.04c-1.44,0.38-3.02,0.79-4.81,1.33c-1.06-1.5-2.32-2.51-3.67-2.9
				c-1.31-0.37-2.72-0.34-4.21,0.11c-0.07,0.02-0.13,0.08-0.14,0.14c-0.02,0.08,0,0.16,0.05,0.22c1.5,1.64,2.11,2.49,2.27,2.7
				c0.05,0.1,0.16,0.12,0.24,0.1c0.84-0.31,1.71-0.32,2.57-0.04c0.24,0.07,0.46,0.18,0.65,0.32c-0.77,0.18-1.42,0.34-1.92,0.47
				c-0.63,0.14-1.08,0.25-1.33,0.31c-1.72,0.47-3.23,0.85-4.51,1.17c-0.94,0.23-1.77,0.45-2.48,0.63c-0.06,0.02-0.12,0.06-0.13,0.12
				c-0.04,0.05-0.02,0.13,0.01,0.18c0.59,1.01,1.25,1.9,1.97,2.68c0.06,0.06,0.15,0.08,0.24,0.06c1.11-0.35,2.37-0.7,3.69-1.07
				c1.08,1.64,2.42,2.76,4.05,3.42c0.31,0.13,0.54,0.23,0.72,0.27l0.19,0.22c0.34,0.37,0.67,0.74,0.98,1.1
				c0.05,0.05,0.11,0.08,0.17,0.08h0.01c0.06,0,0.11-0.03,0.14-0.07c1.04-1.06,2.03-2.16,2.99-3.25c0.04-0.06,0.06-0.11,0.06-0.18
				c-0.01-0.05-0.05-0.1-0.08-0.14c-0.89-0.7-1.84-1.43-2.91-2.25c-0.1-0.07-0.23-0.06-0.3,0.05c-0.4,0.48-0.85,1-1.41,1.63
				c-0.34-0.04-0.66-0.1-0.96-0.22c-0.81-0.28-1.36-0.69-1.67-1.26l1.05-0.26c0.74-0.21,1.29-0.35,1.67-0.44
				c2.71-0.69,5.66-1.42,9.63-2.37c0.07-0.03,0.12-0.08,0.16-0.15c0.02-0.07,0.01-0.15-0.05-0.22
				C239.07,127.73,238.14,126.91,237.11,126.17z"/>
		</g>
		<g>
			<path d="M135.13,160.94c-0.07,0-0.14,0.01-0.2,0.08c-0.9,0.98-1.79,1.94-2.67,2.82c-0.07,0.07-0.08,0.17-0.03,0.26
				c0.78,1.36,1.15,2.33,1.13,3c-0.01,0.28-0.18,0.51-0.53,0.74c-0.29,0.14-0.56,0.28-0.85,0.42c-0.11-0.8-0.31-1.77-0.64-3.04
				c-0.46-1.77-0.9-3.14-1.36-4.2c-0.02-0.07-0.08-0.1-0.16-0.13c-0.07,0-0.14,0.01-0.18,0.06c-0.96,0.89-1.96,1.79-2.96,2.67
				c-0.08,0.06-0.1,0.2-0.04,0.29c1.31,1.69,2.19,3.4,2.67,5.22c-1.02,0.16-1.97,0.3-2.83,0.37c-0.07,0.01-0.13,0.04-0.17,0.1
				c-0.55,0.98-1.15,1.99-1.77,3c-0.03,0.07-0.03,0.16,0,0.24c0.05,0.05,0.11,0.09,0.2,0.09c0,0,0.01,0,0.02,0
				c2.45-0.41,4.52-0.9,6.14-1.44c2.02-0.7,3.6-1.58,4.65-2.63c0.03-0.01,0.04-0.02,0.05-0.05c0.47-0.95,0.7-2.05,0.67-3.25
				c-0.01-1.37-0.35-2.82-1.02-4.46C135.28,161.02,135.2,160.96,135.13,160.94z"/>
		</g>
		<g>
			<path d="M239.39,117.92c-1.8-1.27-3.81-2.09-5.97-2.48c-0.81-0.15-1.4-0.19-1.73-0.1c-0.5,0.07-0.88,0.4-1.1,0.92
				c-0.57,1.26-1.23,2.58-1.99,3.94c-0.07,0.15-0.21,0.21-0.41,0.21c-0.02,0-0.06,0-0.05,0.02l-0.9-0.22
				c-2.13-0.51-3.67-0.67-4.61-0.44c-0.07,0.01-0.13,0.06-0.16,0.13c-0.02,0.08-0.01,0.15,0.05,0.21c0.82,0.87,1.64,1.76,2.42,2.66
				c0.07,0.08,0.17,0.09,0.26,0.05c0.3-0.14,0.5-0.23,0.64-0.24c0.28-0.03,0.66,0.02,1.16,0.15c0.26,0.07,0.68,0.2,1.28,0.36
				c0.6,0.2,1.06,0.33,1.37,0.41c0.72,0.21,1.16,0.28,1.41,0.24c0.37-0.09,0.74-0.43,1.11-1.04c0.67-1.14,1.32-2.32,1.92-3.51
				c0.04-0.07,0.13-0.27,0.63-0.27c0.17,0,0.37,0.03,0.6,0.08c1.48,0.31,2.3,0.82,2.44,1.54c0.18,0.93,0.11,1.84-0.23,2.74
				c-0.04,0.08,0,0.19,0.06,0.25c1.18,0.91,2.35,1.86,3.49,2.82c0.03,0.03,0.1,0.06,0.14,0.06c0.01,0,0.04,0,0.05-0.02
				c0.07-0.01,0.12-0.06,0.14-0.13C242.83,122.77,242.1,119.82,239.39,117.92z"/>
		</g>
		<g>
			<path d="M208.37,145.31c-1.31-0.83-2.86-1.54-4.72-2.16c-0.07-0.03-0.15-0.01-0.22,0.04c-0.05,0.05-0.07,0.13-0.06,0.21
				c0.24,1.04,0.44,2.08,0.61,3.08c0.01,0.08,0.06,0.14,0.13,0.17c1.65,0.54,2.91,1.14,3.85,1.8c0.36,0.26,0.64,0.5,0.79,0.68
				c0.25,0.46,0.12,1.1-0.42,1.84c-0.48,0.69-1.07,1.22-1.74,1.6c-0.33,0.18-0.64,0.19-0.9,0.09c-0.19-0.1-0.4-0.19-0.6-0.28
				c-0.15-0.09-0.28-0.14-0.43-0.22c0.53-1.92-0.09-3.61-1.78-4.85c-0.66-0.52-1.67-1.06-3.16-1.76c-0.08-0.03-0.16-0.02-0.23,0.03
				c-0.06,0.05-0.09,0.13-0.09,0.19c0.13,1.13,0.21,2.05,0.26,2.9c0,0.08,0.05,0.16,0.12,0.2c1.12,0.48,1.86,0.86,2.24,1.14
				c0.48,0.38,0.66,0.77,0.59,1.21c-0.89-0.43-1.81-0.83-2.69-1.27c-2.18-1.04-3.7-1.7-4.69-1.99c-0.06-0.03-0.14-0.01-0.19,0.04
				c-0.06,0.04-0.1,0.1-0.1,0.17c0.07,1.17,0.11,2.11,0.11,2.98c0,0.1,0.08,0.2,0.18,0.23c1.2,0.2,2.26,0.53,3.28,1.03
				c2.25,1.08,4.29,2.03,6.27,2.9c0.83,0.39,1.47,0.6,1.85,0.64c0.06,0.02,0.14,0.02,0.22,0.02c0.53,0,1.13-0.2,1.82-0.56
				c1.41-0.77,2.42-1.78,3-3.01c0.61-1.3,0.61-2.58,0-3.8C211.04,147.4,209.93,146.29,208.37,145.31z"/>
		</g>
		<g>
			<path d="M242.71,107.76c-2.06-1.12-4.23-1.76-6.44-1.93c-0.86-0.07-1.42-0.04-1.76,0.06c-0.48,0.14-0.79,0.51-0.91,1.1
				c-0.3,1.41-0.67,2.84-1.1,4.23c-0.05,0.14-0.12,0.27-0.4,0.27h-0.11c-0.27-0.04-0.55-0.08-0.83-0.12
				c-2.21-0.31-3.79-0.31-4.67,0.02c-0.07,0.02-0.13,0.1-0.14,0.17c-0.01,0.07,0.02,0.15,0.08,0.2c1,0.81,2,1.64,2.95,2.5
				c0.07,0.05,0.18,0.06,0.26,0.02c0.26-0.19,0.44-0.28,0.58-0.32c0.25-0.06,0.66-0.05,1.17,0.04c0.28,0.05,0.74,0.12,1.36,0.25
				c0.64,0.13,1.12,0.22,1.44,0.27c0.77,0.12,1.21,0.14,1.45,0.07c0.36-0.12,0.67-0.52,0.9-1.19c0.46-1.31,0.84-2.6,1.17-3.83
				c0.07-0.28,0.49-0.38,1.17-0.3c1.54,0.15,2.46,0.61,2.76,1.34c0.38,0.95,0.49,1.9,0.35,2.87c-0.01,0.08,0.03,0.15,0.1,0.21
				c1.28,0.77,2.6,1.6,4.03,2.55c0.05,0.02,0.08,0.04,0.13,0.04c0.03,0,0.06,0,0.09-0.02c0.06-0.02,0.11-0.09,0.13-0.17
				C247.13,112.39,245.81,109.42,242.71,107.76z"/>
		</g>
		<g>
			<path d="M224.9,140.27c-0.81-0.32-1.61-0.67-2.42-1.02l-1.59-0.66c-1.84-0.78-3.49-1.14-4.89-1.02
				c-1.53,0.13-2.84,0.62-3.88,1.44c-0.86,0.68-1.65,1.27-2.42,1.84c-0.73-0.34-1.3-0.59-1.66-0.76c-0.08-0.04-0.18-0.03-0.24,0.04
				c-0.06,0.06-0.1,0.15-0.06,0.23c0.52,1.33,0.92,2.54,1.27,3.67c0.02,0.08,0.09,0.13,0.16,0.15c1.26,0.28,2.73,0.86,4.34,1.73
				c1.97,1.03,3.81,2.08,5.47,3.1c0.04,0.02,0.07,0.03,0.12,0.03c0.02,0,0.07-0.01,0.1-0.03c0.07-0.04,0.11-0.11,0.12-0.18
				c0.05-1.03-0.16-2.08-0.62-3.07c-0.02-0.04-0.05-0.08-0.08-0.09c-1.33-0.81-2.23-1.35-2.73-1.64c-0.66-0.37-1.45-0.79-2.42-1.27
				c0.55-0.41,1.17-0.87,1.87-1.43c1.25-0.98,2.91-1.03,4.94-0.15c1.95,0.82,3.9,1.64,5.86,2.46c0.07,0.04,0.16,0.03,0.23-0.02
				c0.06-0.06,0.08-0.13,0.07-0.22c-0.2-1.09-0.68-2.13-1.43-3.08C224.97,140.3,224.94,140.28,224.9,140.27z"/>
		</g>
		<g>
			<path d="M194.55,152.88c-1.08-0.98-2.39-1.88-4.01-2.7c-0.07-0.04-0.14-0.04-0.22,0c-0.06,0.04-0.11,0.1-0.11,0.2
				c0,0.98-0.02,2-0.08,3.04c0,0.07,0.05,0.14,0.12,0.19c1.43,0.75,2.49,1.47,3.23,2.25c0.29,0.28,0.5,0.54,0.61,0.73
				c0.17,0.61-0.35,1.27-0.82,1.73c-0.6,0.6-1.27,1.04-2,1.32c-0.35,0.14-0.64,0.13-0.85-0.01l-0.08-0.06
				c-0.25-0.18-0.52-0.35-0.78-0.54c0.91-1.8,0.68-3.49-0.66-4.91c-0.53-0.59-1.37-1.24-2.62-2.08c-0.07-0.06-0.16-0.06-0.22-0.04
				c-0.07,0.04-0.12,0.1-0.12,0.17c-0.12,1.06-0.26,1.99-0.4,2.83c-0.01,0.09,0.02,0.17,0.09,0.21c0.96,0.61,1.58,1.07,1.87,1.4
				c0.35,0.4,0.46,0.82,0.29,1.25c-0.79-0.54-1.55-1.05-2.29-1.57c-1.89-1.3-3.16-2.1-4.03-2.53c-0.06-0.03-0.13-0.03-0.19,0
				c-0.06,0.04-0.1,0.1-0.11,0.17c-0.17,1.03-0.35,1.99-0.56,2.9c-0.02,0.12,0.05,0.23,0.16,0.27c1.07,0.32,2.02,0.78,2.88,1.38
				c1.69,1.19,3.41,2.37,5.32,3.6c0.73,0.47,1.29,0.76,1.64,0.83c0.15,0.05,0.32,0.07,0.51,0.07c0.46,0,0.96-0.12,1.55-0.33
				c1.49-0.56,2.66-1.41,3.48-2.53c0.85-1.17,1.13-2.39,0.82-3.65C196.66,155.24,195.83,154.03,194.55,152.88z"/>
		</g>
		<g>
			<path d="M164.06,166.53c-0.54,0.09-1.08,0.18-1.63,0.27c-0.19-0.57-0.42-1.12-0.63-1.69l-0.44-1.16
				c-0.4-1.05-0.75-1.74-1.07-2.13c-0.66-0.8-1.6-1.12-2.73-0.95c-1.01,0.14-2.01,0.27-3.01,0.41c-0.23-0.46-0.4-0.87-0.5-1.26
				c-0.03-0.08-0.1-0.14-0.18-0.16c-0.08-0.01-0.17,0.03-0.2,0.11c-0.97,1.55-1.52,3.05-1.67,4.55c-0.01,0.08,0.03,0.13,0.06,0.19
				c0.05,0.03,0.12,0.07,0.18,0.05c1.44-0.14,2.98-0.33,4.69-0.56c0.77-0.09,1.29,0.18,1.61,0.83c0.26,0.58,0.59,1.33,0.96,2.22
				c-1.67,0.25-3.33,0.45-4.93,0.63c-0.08,0.02-0.14,0.07-0.18,0.14c-0.34,1.03-0.68,1.97-1.02,2.9c-0.01,0.06-0.01,0.14,0.04,0.21
				c0.04,0.06,0.11,0.08,0.17,0.08c0,0,0.02,0,0.04,0c3.27-0.32,6.65-0.77,10.03-1.33c0.09-0.02,0.17-0.08,0.18-0.17
				c0.22-1.12,0.37-2.06,0.5-2.94c0-0.06-0.02-0.12-0.06-0.19C164.2,166.53,164.12,166.51,164.06,166.53z"/>
		</g>
		<g>
			<path d="M150.59,162.18c-0.26-0.29-0.69-0.4-1.27-0.35c-0.59,0.05-1.11,0.09-1.61,0.13c-0.94,0.08-1.87,0.14-2.81,0.2l-0.06,0.02
				c-0.25,0-0.29-0.12-0.3-0.12l-0.1-0.61c-0.18-1.49-0.57-2.5-1.11-3c-0.05-0.04-0.11-0.07-0.18-0.07
				c-0.06,0.03-0.12,0.05-0.15,0.1c-0.59,0.86-1.2,1.71-1.82,2.55c-0.04,0.05-0.06,0.12-0.04,0.17c0.01,0.07,0.06,0.13,0.13,0.15
				c0.28,0.12,0.36,0.2,0.39,0.25c0.07,0.06,0.18,0.25,0.2,0.68c0.01,0.17,0.04,0.47,0.06,0.91c0.01,0.44,0.04,0.77,0.06,0.98
				c0.06,0.7,0.17,0.89,0.28,1c0.23,0.2,0.67,0.29,1.4,0.25c1.44-0.07,2.85-0.16,4.23-0.26c0.1,0,0.17,0.02,0.24,0.06
				c0.05,0.03,0.17,0.14,0.24,0.54c0.09,0.5,0.09,0.87,0.02,1.14c-0.11,0.36-0.35,0.64-0.72,0.86c-0.81,0.46-1.77,0.78-2.9,0.97
				c-0.07,0.02-0.13,0.05-0.16,0.13c-0.53,1.08-1.1,2.18-1.66,3.23c-0.04,0.06-0.04,0.14,0.03,0.21c0.03,0.06,0.11,0.09,0.17,0.09
				c0.01,0,0.02,0,0.02,0c2.75-0.43,4.79-1.24,6.09-2.4c0.54-0.47,0.97-1.15,1.34-2.07c0.65-1.57,0.81-3.11,0.48-4.57
				C150.93,162.73,150.78,162.37,150.59,162.18z"/>
		</g>
		<g>
			<path d="M173.37,158.17c-1-0.48-2.01-0.6-3.04-0.33c-1.03,0.26-1.83,0.7-2.39,1.35c-0.02,0.02-0.05,0.07-0.05,0.1
				c-0.17,1.01-0.02,1.97,0.42,2.94c0.02,0.07,0.09,0.11,0.13,0.14c0.06,0.01,0.14,0,0.19-0.04c1-0.71,1.73-1.13,2.21-1.23
				c0.49-0.12,0.97-0.02,1.45,0.28c0.42,0.26,0.77,0.66,1.05,1.14c0.17,0.31,0.28,0.69,0.32,1.13c-0.57,0.89-1.44,1.48-2.57,1.73
				c-0.66,0.14-1.18-0.07-1.64-0.67c-0.75-0.98-1.48-1.97-2.2-2.98c-1.13-1.56-2.11-2.69-2.92-3.37c-0.06-0.05-0.13-0.07-0.21-0.05
				c-0.06,0.03-0.12,0.06-0.14,0.13c-0.41,1.03-0.87,2.1-1.41,3.24c-0.02,0.07-0.02,0.13,0,0.18c0.02,0.06,0.07,0.11,0.15,0.12
				c0.78,0.23,1.38,0.62,1.83,1.19c1.08,1.35,2.22,2.73,3.47,4.22c0.41,0.48,0.81,0.82,1.15,1.01c0.41,0.21,0.88,0.32,1.4,0.32
				c0.31,0,0.65-0.04,1-0.12c1.33-0.28,2.46-0.8,3.36-1.57c0.94-0.8,1.45-1.7,1.54-2.72c0.14-1.63-0.16-3.04-0.87-4.15
				C175.05,159.29,174.29,158.61,173.37,158.17z"/>
		</g>
	</g>
	<g>
		<g>
			<path d="M93.4,85.42c-0.06,0.01-0.12,0.05-0.16,0.09c-1.14,1.83-2.08,3.69-2.8,5.54c-0.01,0.06,0,0.14,0.06,0.2
				c1.17,1.1,2.18,2.23,2.97,3.32c0.33,0.47,0.53,1.2,0.65,2.17c0.04,0.4,0.06,1.08,0.06,2.03l0.09,9.08c0,0.08,0.07,0.15,0.16,0.17
				c0.01,0.02,0.05,0.02,0.06,0.02c0.07,0,0.13-0.03,0.17-0.09c1.29-1.62,2.28-3.45,2.98-5.44c0-0.02,0.01-0.04,0.01-0.06l0.06-7.1
				c0.03-2.5-0.24-4.29-0.79-5.32c-0.89-1.66-2-3.19-3.33-4.56C93.55,85.45,93.47,85.42,93.4,85.42z"/>
		</g>
		<g>
			<path d="M98.74,107.06h11.39c0.1,0,0.18-0.06,0.2-0.14c0.83-2.51,1.32-4.22,1.49-5.15c0.11-2.04,0.17-3.63,0.17-4.69
				c0-1.73-0.14-3.47-0.41-5.16c-0.01-0.02-0.03-0.06-0.05-0.1c-2.44-2.73-4.98-4.52-7.5-5.31c-0.08-0.03-0.17-0.01-0.22,0.04
				c-1.06,0.84-2.05,2.09-2.97,3.7c-1.01,1.82-1.53,3.48-1.53,4.92c0,1.13,0.41,2.14,1.2,3c0.37,0.41,1.09,0.99,2.21,1.77
				c0.05,0.05,0.13,0.05,0.2,0.04c0.06-0.03,0.11-0.08,0.14-0.13c0.48-1.46,0.96-2.96,1.44-4.43c0.03-0.08-0.02-0.19-0.12-0.23
				c-0.96-0.36-1.43-0.97-1.44-1.88c-0.01-0.42,0.13-0.83,0.42-1.19c1.78,0.68,3.39,1.69,4.82,3.01c0.2,1.25,0.33,2.68,0.34,4.24
				c0.01,0.59,0.01,1.18-0.01,1.79h-7.68c-0.1,0-0.17,0.05-0.21,0.12c-0.68,1.83-1.39,3.67-2.08,5.51
				c-0.02,0.06-0.01,0.12,0.03,0.16C98.62,107.02,98.68,107.06,98.74,107.06z"/>
		</g>
		<g>
			<path d="M84.88,99.66c-1.07,0.8-2.21,1.33-3.43,1.57c-0.07,0.01-0.13,0.07-0.16,0.13c-0.76,2.09-1.51,4.19-2.27,6.28
				c-0.02,0.06-0.01,0.13,0.05,0.19c0.05,0.05,0.09,0.06,0.16,0.06c0.01,0,0.03,0,0.05,0c4.5-0.93,7.59-3.57,9.17-7.85
				c1.14-3.02,1.71-5.97,1.71-8.77c0-1.08-0.07-1.81-0.24-2.22c-0.24-0.56-0.76-0.86-1.52-0.86h-5.78c-0.18,0-0.39-0.06-0.45-0.44
				l-0.03-1.25c0-3-0.31-4.92-0.92-5.9c-0.05-0.07-0.12-0.1-0.2-0.1c-0.08,0-0.14,0.05-0.18,0.11l-2.81,4.91
				c-0.03,0.08-0.02,0.17,0.06,0.23c0.35,0.28,0.48,0.47,0.53,0.59c0.14,0.3,0.23,0.82,0.23,1.53c0,0.38-0.01,1-0.05,1.85
				c-0.02,0.85-0.04,1.5-0.04,1.94c0,1.32,0.1,1.66,0.18,1.83c0.24,0.38,0.8,0.59,1.7,0.59h5.02c0.48,0,0.57,0.9,0.57,1.45
				C86.23,97.59,85.78,99,84.88,99.66z"/>
		</g>
		<g>
			<path d="M66.89,95.37c-1.12,1.38-2.14,2.9-3.03,4.49c-0.01,0.03-0.02,0.06-0.02,0.09v7.94c0,0.09,0.06,0.16,0.15,0.18
				c0.02,0.01,0.05,0.01,0.07,0.01c0.06,0,0.11-0.02,0.16-0.06c1.15-1.17,2.19-2.55,3.04-4.09c0.01-0.03,0.01-0.06,0.01-0.08v-8.37
				c0-0.09-0.05-0.16-0.14-0.18C67.03,95.26,66.95,95.31,66.89,95.37z"/>
		</g>
		<g>
			<path d="M72.68,94.7c0.08,0.22,0.2,0.77,0.23,2.17l0.28,11.1c0,0.07,0.06,0.14,0.15,0.17c0.01,0.01,0.05,0.02,0.07,0.02
				c0.05,0,0.11-0.02,0.16-0.07c1.14-1.09,2.11-2.39,2.87-3.86c0.01-0.03,0.01-0.05,0.01-0.07l0.02-9.07
				c0.01-2.32-0.2-3.95-0.64-4.87c-0.69-1.36-1.7-2.05-3.02-2.05h-5.84c-0.09-0.77-0.14-1.62-0.17-2.58c0-0.08-0.06-0.14-0.16-0.17
				c-0.08-0.02-0.17,0-0.23,0.07c-1.65,1.96-3.21,4.76-4.66,8.31c-0.02,0.06-0.02,0.13,0.02,0.18c0.04,0.05,0.11,0.09,0.17,0.09
				h9.47C72.1,94.08,72.49,94.28,72.68,94.7z"/>
		</g>
		<g>
			<path d="M144.75,94.95c0.13,0.44,0.24,1.34,0.31,2.67c0.21,3.51,0.41,7.02,0.61,10.52c0.01,0.08,0.07,0.15,0.14,0.18
				c0.02,0,0.05,0,0.06,0c0.07,0,0.14-0.03,0.18-0.08c1.3-1.62,2.28-3.57,2.89-5.77c0-0.02,0-0.03,0-0.06
				c-0.15-3.01-0.3-6.01-0.43-9.02c-0.07-1.58-0.23-2.67-0.46-3.32c-0.45-1.26-1.26-1.89-2.45-1.89h-7.56
				c-0.32-0.86-0.6-1.73-0.82-2.62c-0.03-0.07-0.08-0.13-0.18-0.14c-0.08,0-0.17,0.04-0.21,0.09c-1.76,2.81-2.97,5.61-3.62,8.32
				c-0.01,0.06,0,0.12,0.05,0.16c0.04,0.05,0.1,0.08,0.17,0.08h2.27c0.71,2.45,1.2,4.85,1.47,7.1h-2.51c-0.09,0-0.18,0.05-0.21,0.14
				l-1.8,5.5c-0.03,0.06-0.01,0.12,0.04,0.16c0.03,0.06,0.11,0.09,0.17,0.09h6.24c0.08,0,0.17-0.06,0.19-0.13
				c0.64-1.7,1.14-3.49,1.53-5.35c-0.16-2.48-0.52-4.99-1.08-7.5h4.04C144.25,94.08,144.57,94.36,144.75,94.95z"/>
		</g>
		<g>
			<path d="M112.96,109.43c0.03,0,0.07-0.01,0.1-0.03c2.79-1.17,5.04-2.33,6.69-3.44c2.27-1.53,4.05-3.34,5.28-5.39
				c0.54-1.88,0.81-3.99,0.78-6.33c-0.04-2.77-0.48-5.75-1.35-8.83c-0.02-0.09-0.09-0.13-0.18-0.14c-0.1-0.01-0.18,0.02-0.22,0.1
				l-3.31,5.73c-0.02,0.05-0.04,0.09,0,0.16c1.05,2.62,1.59,4.68,1.59,6.13c0,0.62-0.22,1.19-0.64,1.68
				c-0.23,0.2-0.46,0.41-0.67,0.62c-0.11,0.1-0.23,0.2-0.33,0.3c-0.2-1.69-0.54-3.71-1.04-6.2c-0.72-3.41-1.43-6.11-2.2-8.24
				c-0.03-0.08-0.1-0.12-0.2-0.13c-0.07,0-0.15,0.04-0.19,0.09l-3.4,5.62c-0.03,0.06-0.03,0.13,0,0.19
				c1.92,3.16,3.29,6.7,4.07,10.52c-1.24,0.46-2.33,0.8-3.33,1.04c-0.07,0.01-0.13,0.07-0.14,0.14c-0.5,2.06-1.01,4.12-1.51,6.17
				c-0.03,0.07,0.01,0.15,0.07,0.21C112.86,109.42,112.92,109.43,112.96,109.43z"/>
		</g>
		<g>
			<path d="M152.22,94.58c0.33,0.46,0.54,1.19,0.65,2.16c0.02,0.41,0.05,1.08,0.06,2.03l0.08,9.08c0,0.08,0.06,0.15,0.14,0.17
				c0.03,0.02,0.05,0.02,0.07,0.02c0.06,0,0.13-0.03,0.17-0.09c1.28-1.61,2.28-3.45,2.98-5.44c0.01-0.02,0.01-0.04,0.01-0.06
				l0.07-7.1c0.01-2.53-0.25-4.29-0.81-5.32c-0.88-1.66-2.01-3.2-3.33-4.56c-0.05-0.05-0.11-0.07-0.19-0.07
				c-0.06,0.01-0.11,0.05-0.16,0.09c-1.13,1.82-2.07,3.68-2.79,5.54c-0.02,0.06-0.01,0.14,0.06,0.2
				C150.4,92.36,151.41,93.48,152.22,94.58z"/>
		</g>
		<g>
			<path d="M209.18,104.16l0.04-9.07c0-2.32-0.22-3.95-0.66-4.87c-0.68-1.36-1.69-2.05-3.01-2.05h-5.84
				c-0.09-0.77-0.14-1.62-0.18-2.58c0-0.08-0.05-0.14-0.13-0.17c-0.1-0.03-0.18,0-0.24,0.07c-1.66,1.96-3.22,4.76-4.68,8.31
				c-0.02,0.06-0.01,0.13,0.03,0.18c0.04,0.05,0.1,0.09,0.17,0.09h9.48c0.65,0,1.07,0.2,1.25,0.63c0.08,0.22,0.19,0.77,0.23,2.17
				l0.28,11.1c0,0.07,0.06,0.14,0.13,0.17c0.02,0.01,0.05,0.02,0.08,0.02c0.05,0,0.11-0.02,0.14-0.07c1.15-1.09,2.12-2.39,2.87-3.86
				C209.18,104.21,209.18,104.19,209.18,104.16z"/>
		</g>
		<g>
			<path d="M181.35,94.08h5.48c1.57,0,2.34,1.27,2.36,3.88c0.04,3.41,0.06,6.81,0.08,10.22c0,0.08,0.05,0.14,0.13,0.17
				c0.03,0,0.05,0.02,0.07,0.02c0.06,0,0.12-0.03,0.17-0.07c1.36-1.52,2.39-3.32,3.07-5.4c0.02-0.01,0.02-0.02,0.02-0.05v-8.98
				c0-1.38-0.21-2.57-0.61-3.53c-0.62-1.43-1.62-2.15-3.01-2.15h-3.37c-0.13-0.35-0.22-0.73-0.25-1.16
				c-0.04-0.21-0.06-0.76-0.11-1.61c0-0.09-0.07-0.15-0.16-0.18c-0.1-0.03-0.19,0.01-0.24,0.08c-1.74,2.5-3.03,5.36-3.84,8.51
				c-0.02,0.05,0,0.12,0.04,0.16C181.22,94.04,181.28,94.08,181.35,94.08z"/>
		</g>
		<g>
			<path d="M196.78,108.08c0.06,0,0.12-0.02,0.16-0.06c1.16-1.17,2.19-2.55,3.03-4.09c0.02-0.03,0.02-0.06,0.02-0.08v-8.37
				c0-0.09-0.06-0.16-0.14-0.18c-0.08-0.03-0.18,0-0.23,0.07c-1.12,1.38-2.14,2.9-3.03,4.49c-0.01,0.03-0.01,0.06-0.01,0.09v7.94
				c0,0.09,0.05,0.16,0.13,0.18C196.73,108.08,196.74,108.08,196.78,108.08z"/>
		</g>
		<g>
			<path d="M159.22,101.17c-0.11,0-0.2,0.06-0.22,0.15l-1.08,5.5c-0.01,0.05,0,0.11,0.04,0.16c0.04,0.05,0.11,0.07,0.17,0.07h6
				c0.1,0,0.18-0.06,0.21-0.13c0.76-2.06,1.21-3.61,1.34-4.59c0.13-1,0.21-2.33,0.21-3.95c0-2.36-0.21-4.59-0.62-6.68
				c-0.82-1.9-2.2-3.7-4.1-5.39c-0.06-0.04-0.12-0.07-0.19-0.06c-0.07,0.02-0.13,0.07-0.16,0.11c-0.79,1.57-1.6,3.13-2.39,4.7
				l-0.3,0.59c-0.05,0.08-0.01,0.17,0.07,0.23c1.41,0.95,2.71,2.16,3.84,3.6c0.44,1.5,0.66,3.08,0.67,4.69c0.01,0.15,0,0.49-0.04,1
				H159.22z"/>
		</g>
		<g>
			<path d="M167.2,107.06h11.42c0.1,0,0.18-0.06,0.21-0.14c0.6-1.83,1.21-3.67,1.81-5.5c0.03-0.06,0.02-0.12-0.02-0.18
				c-0.05-0.05-0.11-0.07-0.18-0.07h-1.92v-6c0-2.1-0.11-3.55-0.3-4.38c-0.46-1.73-1.43-2.61-2.93-2.61h-3.93
				c-0.12-0.96-0.19-1.89-0.19-2.75c0-0.1-0.07-0.16-0.16-0.19c-0.09-0.03-0.2,0.01-0.24,0.08c-1.72,2.7-2.91,5.55-3.55,8.51
				c-0.01,0.06,0,0.12,0.05,0.16c0.03,0.05,0.1,0.08,0.15,0.08h5.86c0.95,0,1.48,0.7,1.59,2.19c0.09,1.17,0.17,2.79,0.25,4.91h-5.93
				c-0.11,0-0.18,0.05-0.2,0.12l-1.99,5.51c-0.02,0.06-0.01,0.12,0.04,0.16C167.07,107.04,167.13,107.06,167.2,107.06z"/>
		</g>
		<g>
			<path d="M125.95,76.84c0.61-0.54,1.13-1.07,1.58-1.61l0.47,0.87c0.31,0.59,0.63,1.15,0.93,1.74c0.04,0.05,0.1,0.08,0.17,0.1
				c0.06,0.01,0.14-0.02,0.19-0.06c0.74-0.74,1.28-1.45,1.59-2.14c0.02-0.05,0.02-0.08,0.01-0.13l-0.82-2.37
				c-0.33-0.85-0.61-1.57-0.78-1.96c-0.21-0.45-0.8-0.9-1.86-1.38c-0.36-0.17-1.19-0.49-2.63-1.02c-0.07-0.02-0.17,0-0.22,0.05
				c-0.77,0.68-1.55,1.35-2.31,2.03l-0.11,0.1c-0.06,0.04-0.07,0.12-0.06,0.18c0.03,0.08,0.08,0.12,0.14,0.14
				c1.36,0.35,2.57,0.77,3.61,1.25c0.34,0.42,0.6,0.8,0.81,1.14c-1.09,0.84-2.42,1.36-3.92,1.52c-0.09,0.02-0.15,0.07-0.18,0.12
				c-0.17,0.4-0.34,0.79-0.5,1.18c-0.17,0.39-0.34,0.78-0.51,1.16c-0.02,0.08-0.01,0.14,0.02,0.21c0.05,0.03,0.11,0.06,0.18,0.06
				c0,0,0.01,0,0.02,0c1.53-0.17,2.92-0.57,4.13-1.14C125.92,76.87,125.94,76.86,125.95,76.84z"/>
		</g>
		<g>
			<path d="M99.82,72.88c0.1,0.11,0.2,0.35,0.3,0.97c0.2,1.37,0.41,2.75,0.63,4.13c0,0.06,0.05,0.12,0.12,0.14
				c0.03,0.02,0.06,0.02,0.09,0.02c0.04,0,0.07,0,0.11-0.02c1.37-0.65,2.38-1.42,3.02-2.31c0.02-0.04,0.04-0.09,0.02-0.13
				l-0.43-3.52c-0.1-0.64-0.25-1.09-0.51-1.4c-0.48-0.49-1.31-0.75-2.48-0.75h-7.89c-0.33-0.35-0.6-0.66-0.82-0.98
				c-0.04-0.05-0.08-0.09-0.15-0.1c-0.05,0-0.11,0-0.15,0.04c-1.83,1.1-3.1,2.21-3.77,3.29c-0.04,0.06-0.04,0.13,0,0.19
				c0.03,0.06,0.11,0.1,0.18,0.1h2.42c0.66,0.89,1.14,1.75,1.42,2.55h-2.55c-0.06,0-0.12,0.03-0.18,0.08
				c-0.61,0.7-1.24,1.43-1.86,2.15c-0.05,0.06-0.06,0.14-0.02,0.2c0.03,0.07,0.11,0.12,0.19,0.12h6.45c0.06,0,0.12-0.03,0.16-0.08
				c0.67-0.69,1.21-1.41,1.58-2.11c0.02-0.04,0.02-0.08,0.02-0.11c-0.15-0.94-0.49-1.88-1.01-2.81h4.08
				C99.28,72.55,99.64,72.66,99.82,72.88z"/>
		</g>
		<g>
			<path d="M150.5,72.01c-0.05-0.99-0.43-1.99-1.18-2.97c-0.06-0.08-0.2-0.11-0.29-0.05c-0.54,0.33-1.08,0.66-1.63,0.98
				c-0.54,0.32-1.07,0.65-1.61,0.97c-0.05,0.04-0.09,0.08-0.1,0.13c0,0.06,0.01,0.11,0.05,0.15c0.65,0.82,0.98,1.6,0.97,2.3
				c-0.01,0.24-0.06,0.46-0.13,0.64c-0.26,0.25-0.9,0.62-2.48,0.95c-1.13,0.26-2.19,0.38-3.14,0.38c-0.43,0-0.73-0.08-0.8-0.2
				l-0.3-0.55c2.58-1.02,3.83-2.17,3.83-3.51c0-0.57-0.24-1.3-0.73-2.14c-0.03-0.06-0.07-0.09-0.13-0.1c-0.06-0.02-0.12,0-0.17,0.02
				l-3.16,1.82c-0.09,0.05-0.12,0.16-0.06,0.26c0.55,0.84,0.64,1.19,0.64,1.35c0,0.38-0.34,0.71-0.99,0.96
				c-0.34-0.53-0.66-1.07-0.98-1.62c-0.82-1.32-1.5-2.23-2.14-2.74c-0.06-0.06-0.17-0.07-0.25-0.03c-1.06,0.64-2.13,1.27-3.2,1.91
				c-0.06,0.03-0.11,0.1-0.11,0.15c0.01,0.08,0.05,0.13,0.11,0.17c0.88,0.47,1.53,1,1.92,1.61l2.43,3.75
				c0.35,0.54,0.64,0.86,0.91,1.01c0.42,0.23,1.12,0.33,2.14,0.33c1.8,0,3.57-0.26,5.27-0.76c1.78-0.52,3.12-1.24,3.99-2.11
				C150.1,74.17,150.55,73.14,150.5,72.01z"/>
		</g>
		<g>
			<path d="M116.34,74.36l0.57,3.53c0.01,0.06,0.06,0.12,0.12,0.14c0.04,0.03,0.06,0.03,0.1,0.03c0.04,0,0.07-0.02,0.11-0.04
				c1.12-0.6,2.02-1.27,2.72-2.01c0.02-0.04,0.06-0.1,0.05-0.14c-0.08-0.78-0.18-1.56-0.26-2.33l-0.01-0.1
				c-0.13-1.18-0.74-2.04-1.79-2.57c-1.17-0.57-2.65-0.86-4.4-0.86h-4.09c-0.11-0.46-0.19-0.77-0.27-0.96
				c-0.01-0.06-0.07-0.11-0.13-0.12c-0.07-0.02-0.15-0.01-0.21,0.03l-3.64,2.44c-0.05,0.04-0.08,0.09-0.1,0.13
				c0,0.05,0.02,0.11,0.06,0.16c0.6,0.58,0.96,1.42,1.11,2.46c0.18,1.28,0.27,2.52,0.27,3.67c0,0.07,0.04,0.13,0.1,0.17
				c0.07,0.04,0.14,0.04,0.2,0c1.17-0.53,2.16-1.15,2.96-1.83c0.05-0.04,0.07-0.07,0.07-0.13c0.05-0.87,0.07-1.54,0.06-1.89
				c-0.01-0.49-0.06-1.01-0.13-1.59h3.21C115.08,72.55,116.16,73.14,116.34,74.36z"/>
		</g>
		<g>
			<path d="M158.52,76.27V73c0-0.07-0.05-0.13-0.11-0.16c-0.06-0.04-0.14-0.04-0.2-0.02c-1.14,0.54-2.21,1.14-3.13,1.77
				c-0.06,0.04-0.1,0.09-0.1,0.15v3.11c0,0.06,0.04,0.12,0.1,0.16c0.04,0.02,0.08,0.03,0.12,0.03c0.03,0,0.06-0.01,0.08-0.02
				c1.19-0.46,2.26-1,3.14-1.61C158.48,76.38,158.52,76.33,158.52,76.27z"/>
		</g>
		<g>
			<path d="M181.75,77.57c0.58-0.66,1.17-1.34,1.74-2.01l0.13-0.14c0.05-0.06,0.05-0.13,0.02-0.21c-0.03-0.06-0.12-0.11-0.19-0.11
				h-2v-2.24c0-0.85-0.11-1.44-0.32-1.8c-0.48-0.68-1.49-1.05-3.01-1.05h-4.1c-0.12-0.35-0.18-0.66-0.18-0.96
				c0-0.07-0.04-0.13-0.1-0.17c-0.07-0.03-0.16-0.03-0.22,0c-1.8,1.07-3.06,2.21-3.72,3.39c-0.03,0.06-0.03,0.13,0.01,0.18
				c0.03,0.06,0.11,0.1,0.18,0.1h6.04c1.51,0,1.62,0.59,1.66,0.77c0.08,0.42,0.15,0.98,0.24,1.78h-6.12c-0.06,0-0.12,0.03-0.17,0.08
				c-0.55,0.59-1.11,1.17-1.68,1.76l-0.36,0.39c-0.05,0.06-0.06,0.12-0.02,0.2c0.02,0.07,0.11,0.12,0.19,0.12h11.8
				C181.65,77.66,181.71,77.61,181.75,77.57z"/>
		</g>
		<g>
			<path d="M168,76.39c0.01-1.18,0.02-2.37,0.02-3.55c0.01-0.96-0.22-1.64-0.72-2.02c-0.69-0.53-1.72-0.81-3.04-0.81h-6.07
				c-0.07-0.26-0.12-0.55-0.17-0.89c0-0.08-0.03-0.13-0.1-0.16c-0.06-0.03-0.14-0.03-0.21,0c-1.72,0.78-3.34,1.88-4.84,3.27
				c-0.06,0.05-0.07,0.15-0.05,0.21c0.04,0.07,0.12,0.12,0.21,0.12h9.78c0.9,0,1.24,0.13,1.36,0.24c0.05,0.05,0.16,0.21,0.18,0.76
				l0.02,0.26c0.08,1.36,0.17,2.72,0.28,4.08c0,0.06,0.03,0.12,0.1,0.15c0.02,0.03,0.07,0.03,0.11,0.03c0.03,0,0.05,0,0.08-0.01
				c1.19-0.43,2.19-0.95,2.98-1.52C167.97,76.51,168,76.45,168,76.39z"/>
		</g>
		<g>
			<g>
				<path d="M99.53,122.47c3.04-1.05,5.73-2.81,8.65-4.11c-5.5,2.04-10.95,4.92-16.91,3.95c-0.05,0-0.03-0.07,0.03-0.07
					c5.35,0.49,9.61-2.31,14.14-4.23c-2.98,0.68-5.73,2.1-8.78,2.94c-2.41,0.67-5.07,0.77-7.54,0.27c-1.38-0.27-2.63-0.85-3.7-1.66
					c-0.3-0.22-0.54-0.48-0.76-0.76c0.65,1.31,2.01,2.28,3.42,2.87c0.01,0.01,0,0.05-0.02,0.04c-1.87-0.73-4.31-1.9-4.51-3.99
					c-0.1-1,0.5-2.29,1.54-2.6c-1.72-0.32-2.62,1.78-2.23,3.11c0.81,2.81,3.99,4.23,6.88,4.84
					C93.15,123.79,96.29,123.6,99.53,122.47z"/>
			</g>
			<g>
				<path d="M77.25,117.49c-0.02-0.02,0.01-0.03,0.04-0.02c1.54,1.15,3.15,2.15,4.82,3.05c-1.71-1.22-3.32-2.55-5.02-3.79
					c-3.14-2.3-6.85-3.63-10.8-2.4c-2.84,0.89-5.02,3.65-3.71,6.35c1,2.1,5.13,1.61,4.94-0.86c0-0.06-0.03-0.1-0.07-0.14
					c0.05,1.12-0.87,2.22-2.31,1.97c-1.97-0.32-2.83-2.38-1.61-3.82c4.12-4.85,11.46-0.79,15.17,2.33c0.02,0.03-0.01,0.06-0.03,0.04
					c-2.55-1.83-5.81-3.8-9.16-3.82c-0.35,0-0.69,0.02-1.02,0.05c2.3,0.11,4.37,1.08,6.3,2.19c3.09,1.78,7.23,5.43,11.31,4.99
					c-0.3-0.13-0.6-0.28-0.89-0.42C82.24,121.72,79.82,119.48,77.25,117.49z"/>
			</g>
			<g>
				<path d="M188.07,118.24c0.4-1.33-0.5-3.44-2.22-3.11c1.02,0.31,1.63,1.6,1.54,2.6c-0.21,2.1-2.62,3.26-4.52,3.99
					c-0.02,0.01-0.03-0.03,0-0.04c1.41-0.59,2.77-1.56,3.41-2.87c-0.22,0.28-0.47,0.54-0.76,0.76c-1.07,0.82-2.32,1.39-3.7,1.66
					c-2.47,0.5-5.14,0.4-7.54-0.27c-3.03-0.84-5.8-2.26-8.78-2.94c4.53,1.92,8.79,4.72,14.14,4.23c0.06,0,0.07,0.07,0.01,0.07
					c-5.95,0.97-11.41-1.91-16.91-3.95c2.92,1.29,5.6,3.05,8.66,4.11c3.25,1.14,6.39,1.33,9.78,0.61
					C184.08,122.47,187.26,121.05,188.07,118.24z"/>
			</g>
			<g>
				<path d="M205.8,121.65c-1.45,0.25-2.35-0.85-2.31-1.97c-0.04,0.04-0.06,0.09-0.07,0.14c-0.21,2.47,3.93,2.96,4.94,0.86
					c1.3-2.7-0.89-5.46-3.72-6.35c-3.95-1.23-7.67,0.1-10.81,2.4c-1.69,1.24-3.3,2.57-5.02,3.79c1.69-0.89,3.28-1.9,4.83-3.05
					c0.02-0.01,0.05,0,0.03,0.02c-2.56,1.98-4.98,4.22-7.95,5.7c-0.29,0.14-0.6,0.29-0.9,0.42c4.09,0.44,8.24-3.21,11.33-4.99
					c1.94-1.11,4-2.08,6.3-2.19c-0.34-0.03-0.69-0.05-1.01-0.05c-3.35,0.02-6.63,1.99-9.16,3.82c-0.04,0.02-0.08-0.02-0.05-0.04
					c3.72-3.11,11.04-7.18,15.16-2.33C208.62,119.27,207.77,121.33,205.8,121.65z"/>
			</g>
			<g>
				<path d="M130.6,124.75c-0.3,0.39-0.78,0.79-1.36,1.17c-0.46,0.43-1.01,0.72-1.61,0.84c-0.45,0.18-0.92,0.32-1.37,0.42
					c1.41,1.5,3.88,0.06,5.11-1.46c2.28-2.81,2.26-6.25-1.24-8.21c-3.91-2.2-9.64-0.57-13.37,1.08c-2.35,1.06-4.58,2.32-6.9,3.46
					c-1.04,0.5-2.08,1.01-3.23,1.36c-0.17,0.06-0.35,0.08-0.52,0.09c0.65,0.12,1.37,0.08,2.02-0.05c1.93-0.33,3.72-0.86,5.48-1.65
					c3.1-1.42,6.13-3.18,9.7-3.3c0.02,0,0.02,0.04,0,0.04c-6.12,0.22-9.92,6.15-16.07,6.48c-1.71,0.08-4.79-0.61-4.56-2.74
					c0.05-0.42,0.17-0.79,0.35-1.14c-0.73,0.37-1.24,1.04-0.97,1.9c0.45,1.46,1.53,2.32,3.03,2.86c4.28,1.54,8.51-1.38,12.1-3.14
					c3.26-1.59,7.77-3.79,11.55-2.32c1.24,0.47,1.77,1.41,1.82,2.41c0.82-2.14-1.19-4.67-3.76-5c-0.01,0-0.01-0.04,0-0.04
					C130.46,118,132.85,121.97,130.6,124.75z"/>
			</g>
			<g>
				<path d="M144.68,127.18c-0.45-0.1-0.93-0.24-1.37-0.42c-0.6-0.11-1.16-0.41-1.61-0.84c-0.58-0.38-1.06-0.79-1.37-1.17
					c-2.25-2.78,0.15-6.75,3.82-6.94c0.01,0,0.01,0.04,0,0.04c-2.58,0.33-4.58,2.86-3.76,5c0.05-1,0.58-1.94,1.81-2.41
					c3.79-1.46,8.3,0.74,11.54,2.32c3.59,1.76,7.83,4.68,12.1,3.14c1.5-0.54,2.58-1.4,3.03-2.86c0.26-0.86-0.24-1.53-0.97-1.9
					c0.18,0.35,0.31,0.72,0.35,1.14c0.24,2.13-2.84,2.83-4.55,2.74c-6.16-0.33-9.96-6.26-16.09-6.48c-0.01,0-0.01-0.04,0-0.04
					c3.58,0.12,6.59,1.89,9.71,3.3c1.77,0.79,3.55,1.32,5.47,1.65c0.66,0.12,1.38,0.17,2.03,0.05c-0.17-0.01-0.35-0.04-0.54-0.09
					c-1.12-0.35-2.16-0.86-3.22-1.36c-2.31-1.15-4.53-2.41-6.89-3.46c-3.73-1.65-9.46-3.28-13.37-1.08
					c-3.49,1.96-3.52,5.4-1.24,8.21C140.79,127.24,143.26,128.68,144.68,127.18z"/>
			</g>
		</g>
		<g>
			<g>
				<path d="M89.75,53.28c-2.89,0.6-6.06,2.04-6.88,4.85c-0.4,1.33,0.5,3.43,2.23,3.11c-1.04-0.32-1.64-1.6-1.54-2.6
					c0.2-2.12,2.63-3.27,4.51-3.99c0.02-0.01,0.04,0.01,0.02,0.03c-1.42,0.6-2.78,1.58-3.42,2.89c0.22-0.29,0.46-0.54,0.76-0.76
					c1.07-0.82,2.32-1.41,3.7-1.69c2.46-0.48,5.12-0.39,7.54,0.28c3.04,0.85,5.8,2.28,8.78,2.95c-4.53-1.91-8.79-4.72-14.14-4.22
					c-0.06,0-0.07-0.08-0.03-0.09c5.96-0.96,11.41,1.92,16.91,3.97c-2.91-1.3-5.61-3.07-8.65-4.13
					C96.29,52.77,93.15,52.57,89.75,53.28z"/>
			</g>
			<g>
				<path d="M82.11,55.85c-1.67,0.89-3.28,1.9-4.82,3.05c-0.03,0.01-0.06-0.02-0.04-0.03c2.57-1.97,4.99-4.21,7.96-5.68
					c0.29-0.14,0.59-0.29,0.89-0.42c-4.09-0.44-8.22,3.21-11.31,4.97c-1.93,1.1-4,2.09-6.3,2.2c0.34,0.03,0.68,0.04,1.02,0.04
					c3.36-0.01,6.62-1.97,9.16-3.8c0.02-0.02,0.06,0.01,0.03,0.04c-3.71,3.1-11.05,7.18-15.17,2.33c-1.21-1.44-0.36-3.49,1.61-3.83
					c1.44-0.23,2.36,0.86,2.31,1.98c0.05-0.03,0.07-0.08,0.07-0.14c0.19-2.46-3.94-2.96-4.94-0.85c-1.3,2.69,0.88,5.46,3.71,6.35
					c3.94,1.23,7.66-0.1,10.8-2.41C78.79,58.38,80.4,57.07,82.11,55.85z"/>
			</g>
			<g>
				<path d="M179.66,54.04c0.06,0.01,0.05,0.09-0.01,0.09c-5.35-0.5-9.61,2.31-14.14,4.22c2.98-0.67,5.75-2.1,8.78-2.95
					c2.4-0.67,5.07-0.76,7.54-0.28c1.38,0.28,2.63,0.87,3.7,1.69c0.29,0.22,0.54,0.47,0.76,0.76c-0.65-1.31-2.01-2.29-3.41-2.89
					c-0.03-0.02-0.02-0.04,0-0.03c1.9,0.72,4.32,1.88,4.52,3.99c0.1,1-0.52,2.28-1.54,2.6c1.72,0.31,2.62-1.78,2.22-3.11
					c-0.82-2.81-3.99-4.25-6.89-4.85c-3.39-0.71-6.53-0.51-9.78,0.6c-3.05,1.06-5.73,2.83-8.66,4.13
					C168.25,55.96,173.71,53.08,179.66,54.04z"/>
			</g>
			<g>
				<path d="M184.83,52.76c0.3,0.13,0.61,0.28,0.9,0.42c2.97,1.47,5.39,3.71,7.95,5.68c0.02,0.01-0.01,0.04-0.03,0.03
					c-1.55-1.15-3.15-2.15-4.83-3.05c1.72,1.22,3.33,2.53,5.02,3.79c3.14,2.31,6.85,3.63,10.81,2.41c2.83-0.89,5.02-3.66,3.72-6.35
					c-1.01-2.12-5.15-1.61-4.94,0.85c0.01,0.07,0.03,0.11,0.07,0.14c-0.04-1.11,0.86-2.21,2.31-1.98c1.97,0.34,2.83,2.39,1.6,3.83
					c-4.12,4.85-11.45,0.77-15.16-2.33c-0.03-0.03,0.01-0.06,0.05-0.04c2.54,1.83,5.81,3.79,9.16,3.8c0.32,0,0.67-0.01,1.01-0.04
					c-2.3-0.11-4.36-1.09-6.3-2.2C193.06,55.97,188.91,52.32,184.83,52.76z"/>
			</g>
			<g>
				<path d="M130.55,53.17c-0.05,1.08-0.58,2.09-1.82,2.61c-3.79,1.6-8.3-0.8-11.55-2.53c-3.58-1.89-7.82-5.07-12.1-3.4
					c-1.5,0.59-2.57,1.54-3.03,3.11c-0.27,0.95,0.24,1.65,0.97,2.07c-0.18-0.38-0.3-0.78-0.35-1.23c-0.23-2.31,2.85-3.08,4.56-2.98
					c6.16,0.35,9.95,6.79,16.07,7.03c0.02,0,0.02,0.04,0,0.04c-3.57-0.14-6.6-2.04-9.7-3.57c-1.77-0.89-3.55-1.43-5.48-1.82
					c-0.65-0.13-1.37-0.18-2.02-0.05c0.17,0.01,0.35,0.03,0.52,0.11c1.15,0.38,2.19,0.92,3.23,1.48c2.32,1.22,4.55,2.61,6.9,3.75
					c3.73,1.8,9.46,3.55,13.37,1.18c3.5-2.12,3.52-5.85,1.24-8.91c-1.23-1.63-3.7-3.2-5.11-1.57c0.46,0.11,0.93,0.26,1.37,0.46
					c0.6,0.11,1.15,0.43,1.61,0.91c0.58,0.41,1.06,0.83,1.36,1.27c2.25,3.01-0.14,7.33-3.81,7.51c-0.01,0-0.01-0.03,0-0.03
					C129.36,58.22,131.37,55.49,130.55,53.17z"/>
			</g>
			<g>
				<path d="M140.33,51.1c0.31-0.44,0.79-0.86,1.37-1.27c0.46-0.48,1.01-0.8,1.61-0.91c0.44-0.2,0.91-0.35,1.37-0.46
					c-1.42-1.62-3.89-0.06-5.11,1.57c-2.28,3.06-2.25,6.79,1.24,8.91c3.91,2.37,9.64,0.63,13.37-1.18c2.36-1.14,4.58-2.52,6.89-3.75
					c1.06-0.57,2.1-1.1,3.22-1.48c0.19-0.08,0.37-0.1,0.54-0.11c-0.65-0.14-1.37-0.08-2.03,0.05c-1.92,0.39-3.7,0.93-5.47,1.82
					c-3.12,1.53-6.13,3.42-9.71,3.57c-0.01,0-0.01-0.04,0-0.04c6.13-0.24,9.93-6.68,16.09-7.03c1.71-0.1,4.78,0.67,4.55,2.98
					c-0.04,0.45-0.17,0.86-0.35,1.23c0.73-0.41,1.24-1.12,0.97-2.07c-0.44-1.58-1.53-2.52-3.03-3.11c-4.27-1.66-8.5,1.52-12.1,3.4
					c-3.25,1.73-7.75,4.13-11.54,2.53c-1.24-0.52-1.77-1.53-1.81-2.61c-0.82,2.32,1.18,5.06,3.76,5.42c0.01,0,0.01,0.03,0,0.03
					C140.48,58.43,138.08,54.12,140.33,51.1z"/>
			</g>
		</g>
	</g>
</g>
</svg>
