<?xml version="1.0" encoding="utf-8"?>
<!-- Generator: Adobe Illustrator 24.3.0, SVG Export Plug-In . SVG Version: 6.00 Build 0)  -->
<svg version="1.1" id="Layer_1" xmlns="http://www.w3.org/2000/svg" xmlns:xlink="http://www.w3.org/1999/xlink" x="0px" y="0px"
	 viewBox="0 0 546.94 264.69" style="enable-background:new 0 0 546.94 264.69;" xml:space="preserve">
<g>
	<g>
		<path d="M221.62,230.23c-0.27-0.18-0.82-0.02-1.64,0.48c-0.37,0.23-0.75,0.31-1.16,0.24c-0.41-0.07-0.73-0.28-0.96-0.65
			c-0.23-0.36-0.31-0.76-0.24-1.2c0.07-0.44,0.29-0.76,0.65-0.99c1.05-0.68,2.04-1.39,2.98-2.12c0.93-0.73,1.81-1.48,2.63-2.26
			c0.78-0.73,1.49-1.48,2.16-2.26c0.66-0.78,1.29-1.59,1.88-2.46c0.23-0.37,0.56-0.58,0.99-0.65c0.44-0.07,0.84,0.01,1.2,0.24
			c0.46,0.32,0.69,0.75,0.69,1.3v38.46c0.09,1.6,0.64,2.47,1.64,2.6c0.36,0.09,0.68,0.29,0.96,0.58c0.27,0.3,0.41,0.63,0.41,0.99
			c0,0.46-0.16,0.83-0.48,1.13c-0.32,0.3-0.69,0.44-1.1,0.44h-11.56c-0.46,0-0.83-0.15-1.13-0.44c-0.3-0.3-0.44-0.67-0.44-1.13
			c0-0.36,0.14-0.69,0.41-0.99c0.27-0.3,0.59-0.49,0.96-0.58c0.96-0.14,1.51-1,1.64-2.6v-26.89
			C222.05,230.83,221.89,230.42,221.62,230.23z"/>
		<path d="M264.66,232.84c0.37,1.96,0.51,3.99,0.44,6.09c-0.07,2.1-0.31,4.17-0.72,6.22c-0.41,1.87-0.96,3.68-1.64,5.44
			c-0.69,1.76-1.51,3.4-2.47,4.93c-0.96,1.53-2.05,2.9-3.28,4.11c-1.23,1.21-2.58,2.18-4.04,2.91c-1.05,0.55-2.28,0.96-3.69,1.23
			c-1.42,0.27-2.86,0.41-4.34,0.41c-1.48,0-2.93-0.14-4.35-0.41c-1.41-0.27-2.64-0.68-3.69-1.23c-0.37-0.23-0.63-0.54-0.79-0.92
			c-0.16-0.39-0.13-0.76,0.1-1.13c0.23-0.36,0.55-0.63,0.96-0.79c0.41-0.16,0.8-0.12,1.16,0.1c2.1,1.05,3.97,1.5,5.61,1.37
			c1.64-0.14,3.1-0.68,4.38-1.64c1.28-0.96,2.4-2.23,3.35-3.8c0.96-1.57,1.8-3.25,2.53-5.03c0.36-0.91,0.68-1.82,0.96-2.74
			c0.27-0.91,0.52-1.87,0.75-2.87c-1.05,1.18-2.3,2.05-3.76,2.6c-1.46,0.55-2.97,0.84-4.52,0.89c-3.1,0.05-5.65-0.67-7.63-2.15
			c-1.99-1.48-3.45-3.35-4.38-5.61c-0.93-2.26-1.33-4.71-1.2-7.35c0.14-2.65,0.78-5.11,1.92-7.39c1.14-2.28,2.76-4.19,4.86-5.75
			c2.1-1.55,4.68-2.35,7.73-2.4c1.87,0,3.73,0.38,5.58,1.13c1.85,0.75,3.57,1.93,5.17,3.52c1.32,1.32,2.4,2.86,3.22,4.62
			C263.7,228.95,264.29,230.83,264.66,232.84z M249.67,245.02c1.73-0.14,3.14-0.86,4.21-2.19c1.07-1.32,1.81-2.92,2.22-4.79
			c0.41-1.87,0.54-3.85,0.38-5.95c-0.16-2.1-0.58-4-1.27-5.71c-0.69-1.71-1.61-3.09-2.77-4.14c-1.16-1.05-2.52-1.44-4.07-1.16
			c-1.41,0.23-2.58,1-3.49,2.33c-0.91,1.32-1.57,2.9-1.99,4.72c-0.41,1.83-0.58,3.75-0.51,5.78c0.07,2.03,0.39,3.9,0.96,5.61
			c0.57,1.71,1.38,3.09,2.43,4.14S248.12,245.15,249.67,245.02z"/>
		<path d="M266.17,248.85c3.19-4.74,6.36-9.48,9.51-14.2s6.29-9.45,9.44-14.2c0.37-0.5,0.84-0.75,1.44-0.75h5.27
			c0.46,0,0.83,0.16,1.13,0.48c0.3,0.32,0.44,0.69,0.44,1.1c0,0.41-0.14,0.76-0.41,1.06c-0.27,0.3-0.59,0.47-0.96,0.51
			c-0.96,0.18-1.5,1.07-1.64,2.67v22.51c0.78-0.23,1.41-0.55,1.91-0.96s0.89-0.78,1.16-1.1c0.23-0.36,0.54-0.59,0.92-0.68
			c0.39-0.09,0.76-0.02,1.13,0.2c0.36,0.23,0.6,0.57,0.72,1.03c0.11,0.46,0.06,0.89-0.17,1.3c-0.46,0.96-0.81,1.68-1.06,2.16
			c-0.25,0.48-0.55,0.83-0.89,1.06c-0.34,0.23-0.8,0.35-1.37,0.37c-0.57,0.02-1.36,0.03-2.36,0.03v6.91c0.14,1.6,0.68,2.47,1.64,2.6
			c0.37,0.09,0.69,0.29,0.96,0.58s0.41,0.63,0.41,0.99c0,0.46-0.15,0.83-0.44,1.13c-0.3,0.3-0.67,0.44-1.13,0.44h-11.56
			c-0.41,0-0.78-0.15-1.1-0.44c-0.32-0.3-0.48-0.67-0.48-1.13c0-0.36,0.14-0.69,0.41-0.99s0.59-0.49,0.96-0.58
			c1-0.14,1.55-1,1.64-2.6v-6.91l-14.1-0.07c-0.73,0-1.27-0.28-1.61-0.85C265.65,249.95,265.71,249.4,266.17,248.85z M281.7,231.53
			c-0.91,1.46-1.87,2.94-2.87,4.45c-1.01,1.5-2,3-2.98,4.48c-0.98,1.48-1.93,2.89-2.84,4.21c-0.91,1.32-1.73,2.51-2.46,3.56
			l11.15,0.07V231.53z"/>
		<path d="M322.75,237.08c1.82,0.87,3.31,2.03,4.45,3.49c1.14,1.46,1.95,3.06,2.43,4.79c0.48,1.73,0.61,3.55,0.41,5.44
			c-0.2,1.89-0.76,3.68-1.68,5.37c-0.87,1.64-2.09,3.06-3.66,4.24c-1.57,1.19-3.32,2.13-5.24,2.84c-1.92,0.71-3.94,1.15-6.05,1.33
			c-2.12,0.18-4.17,0.11-6.13-0.2c-1.96-0.32-3.74-0.92-5.34-1.81c-1.6-0.89-2.83-2.06-3.7-3.52c-0.96-1.55-1.39-3.23-1.3-5.03
			c0.09-1.8,0.57-3.43,1.44-4.89c0.86-1.46,2.03-2.6,3.49-3.42c1.46-0.82,3.06-1.05,4.79-0.68c1.23,0.27,2.21,0.72,2.94,1.33
			c0.73,0.61,1.25,1.29,1.57,2.02c0.32,0.73,0.44,1.47,0.38,2.22c-0.07,0.75-0.31,1.42-0.72,1.99c-0.41,0.57-0.96,0.97-1.64,1.2
			c-0.69,0.23-1.46,0.18-2.33-0.14c-0.5-0.18-1.18-0.33-2.02-0.45c-0.84-0.11-1.63-0.11-2.36,0c-0.73,0.12-1.31,0.38-1.74,0.79
			c-0.44,0.41-0.51,1.07-0.24,1.99c0.54,1.69,1.53,2.92,2.94,3.69c1.41,0.78,2.98,1.2,4.69,1.27c1.71,0.07,3.41-0.14,5.1-0.61
			c1.69-0.48,3.06-1.15,4.11-2.02c1.05-0.82,1.94-1.85,2.67-3.08c0.73-1.23,1.24-2.54,1.54-3.93c0.3-1.39,0.38-2.79,0.24-4.21
			c-0.14-1.41-0.55-2.74-1.23-3.97c-0.5-0.86-1.02-1.56-1.54-2.08c-0.52-0.52-1.07-0.95-1.64-1.27c-0.57-0.32-1.19-0.58-1.85-0.79
			c-0.66-0.2-1.4-0.44-2.22-0.72c-0.41-0.14-0.72-0.4-0.92-0.79c-0.21-0.39-0.24-0.79-0.1-1.2c0.18-0.5,0.42-0.8,0.72-0.89
			c0.3-0.09,0.65-0.18,1.06-0.27c0.86-0.27,1.68-0.74,2.43-1.4c0.75-0.66,1.36-1.42,1.81-2.29c0.46-0.87,0.76-1.79,0.92-2.77
			c0.16-0.98,0.1-1.93-0.17-2.84c-0.46-1.51-1.28-2.62-2.47-3.35c-1.18-0.73-2.45-1.12-3.8-1.16c-1.35-0.05-2.64,0.23-3.87,0.82
			c-1.23,0.59-2.1,1.44-2.6,2.53c-0.41,0.82-0.41,1.56,0,2.22c0.41,0.66,0.86,1.31,1.33,1.95c0.48,0.64,0.85,1.31,1.13,2.02
			c0.27,0.71,0.07,1.56-0.61,2.57c-0.78,1.14-1.65,1.78-2.64,1.92c-0.98,0.14-1.92-0.05-2.81-0.55c-0.89-0.5-1.65-1.24-2.29-2.23
			c-0.64-0.98-1.03-2.06-1.16-3.25c-0.23-1.96,0.15-3.7,1.13-5.2c0.98-1.5,2.32-2.74,4-3.7c1.69-0.96,3.6-1.62,5.75-1.98
			c2.15-0.36,4.24-0.4,6.3-0.1c2.05,0.3,3.94,0.93,5.68,1.91c1.73,0.98,3.06,2.34,3.97,4.07c0.55,1.1,0.87,2.25,0.96,3.46
			c0.09,1.21-0.01,2.38-0.31,3.52c-0.3,1.14-0.79,2.21-1.47,3.22C324.6,235.48,323.76,236.35,322.75,237.08z"/>
	</g>
	<path d="M201.71,238.27c-0.31-1.19-0.81-2.27-1.51-3.26c-0.7-0.98-1.56-1.83-2.58-2.55s-2.13-1.28-3.32-1.69
		c-4.71-2.31-11.8,1.72-11.8,1.72c-0.36,0.19-0.75,0.48-1.13,0.74c-0.21-0.44-0.41-0.82-0.63-1.28c-0.72-1.53-1.47-3.08-2.24-4.65
		c-0.78-1.57-1.64-3-2.59-4.3c-0.95-1.3-2.02-2.39-3.22-3.27c-1.2-0.88-2.57-1.41-4.12-1.58c-1.16-0.13-2.27-0.07-3.32,0.17
		c-1.05,0.24-2.02,0.61-2.9,1.11c-0.88,0.5-1.66,1.11-2.35,1.84c-0.68,0.73-1.24,1.52-1.66,2.37c-0.68,1.37-1,2.71-0.94,4.02
		c0.06,1.31,0.37,2.5,0.94,3.57c0.57,1.07,1.33,1.99,2.3,2.76c0.96,0.77,1.99,1.3,3.1,1.61c1.11,0.3,2.23,0.32,3.38,0.07
		c1.15-0.26,2.2-0.86,3.16-1.82c0.57-0.57,1.01-1.22,1.34-1.93c0.32-0.71,0.47-1.45,0.45-2.21c-0.02-0.76-0.23-1.51-0.63-2.24
		c-0.4-0.74-1.04-1.41-1.92-2.03c-0.75-0.5-1.57-0.78-2.46-0.83c-0.89-0.05-1.71,0.09-2.45,0.43c-0.74,0.33-1.35,0.83-1.82,1.49
		c-0.47,0.66-0.66,1.47-0.58,2.42c0.06,0.63,0.25,1.14,0.59,1.54c0.34,0.4,0.73,0.65,1.17,0.75c0.44,0.1,0.89,0.03,1.34-0.2
		c0.45-0.23,0.81-0.65,1.06-1.25c0.18-0.41,0.39-0.81,0.62-1.2c0.23-0.39,0.64-0.69,1.22-0.89c0.46-0.15,0.88-0.07,1.25,0.25
		c0.37,0.32,0.62,0.74,0.74,1.28c0.12,0.53,0.09,1.13-0.09,1.79c-0.18,0.66-0.57,1.26-1.18,1.79c-0.88,0.79-1.83,1.21-2.84,1.28
		c-1.01,0.07-1.95-0.11-2.83-0.54c-0.87-0.43-1.65-1.04-2.33-1.83c-0.68-0.79-1.13-1.66-1.36-2.6c-0.23-0.94-0.19-1.9,0.12-2.87
		c0.31-0.97,0.98-1.84,2.02-2.62c1.07-0.77,2.09-1.16,3.07-1.16c0.98-0.01,1.93,0.26,2.85,0.79c0.91,0.53,1.8,1.28,2.64,2.25
		c0.85,0.97,1.67,2.04,2.46,3.23c0.79,1.19,1.56,2.43,2.29,3.73c0.74,1.3,1.45,2.54,2.13,3.73c0.09,0.16,0.17,0.28,0.26,0.43
		c-1,0.96-2.01,1.96-3.07,3.06c-1.52,1.58-3.09,3.23-4.74,4.95c-1.64,1.72-3.3,3.35-4.98,4.89c-1.68,1.54-3.36,2.89-5.04,4.06
		c-1.68,1.17-3.33,1.99-4.95,2.46c-1.62,0.47-3.19,0.51-4.7,0.12c-1.52-0.39-2.95-1.38-4.3-2.98c-1.31-1.6-2.02-3.21-2.12-4.83
		c-0.1-1.62,0.2-3.12,0.92-4.49c0.72-1.37,1.75-2.54,3.1-3.5c1.35-0.96,2.79-1.61,4.3-1.94c1.52-0.33,3.04-0.24,4.58,0.25
		c1.54,0.49,2.84,1.52,3.91,3.07c0.74,1.06,1.12,2.14,1.14,3.23c0.02,1.09-0.16,2.02-0.55,2.8c-0.39,0.78-0.93,1.34-1.63,1.69
		c-0.7,0.35-1.37,0.32-2.03-0.09c-0.82-0.53-1.33-1.15-1.54-1.84c-0.2-0.7-0.37-1.39-0.49-2.09c-0.16-1.02-0.55-1.8-1.17-2.34
		c-0.62-0.53-1.28-0.81-2-0.83c-0.72-0.02-1.41,0.21-2.09,0.71c-0.68,0.49-1.18,1.21-1.51,2.15c-0.49,1.43-0.5,2.76-0.03,3.96
		c0.47,1.21,1.22,2.21,2.24,3.01c1.02,0.8,2.23,1.33,3.63,1.6c1.39,0.26,2.77,0.15,4.12-0.34c1.6-0.61,2.85-1.41,3.75-2.4
		c0.9-0.98,1.52-2.06,1.84-3.23c0.33-1.17,0.38-2.37,0.15-3.6c-0.22-1.23-0.67-2.4-1.32-3.5c-1.11-1.84-2.5-3.19-4.18-4.03
		c-1.68-0.84-3.43-1.24-5.26-1.2c-1.82,0.04-3.63,0.47-5.41,1.29c-1.78,0.82-3.32,1.95-4.61,3.38s-2.23,3.16-2.83,5.17
		c-0.59,2.01-0.62,4.2-0.09,6.58c0.33,1.47,0.88,2.91,1.66,4.3c0.78,1.39,1.75,2.64,2.92,3.75c1.17,1.11,2.52,2.05,4.06,2.83
		c1.54,0.78,3.23,1.29,5.07,1.54c2.46,0.33,4.79,0.04,6.98-0.86c2.19-0.9,4.27-2.17,6.24-3.81c1.97-1.64,3.85-3.53,5.66-5.65
		c1.8-2.13,3.56-4.24,5.26-6.33c1.7-2.09,3.35-4.05,4.95-5.87c1.6-1.82,3.2-3.27,4.79-4.33c0.49-0.33,1.08-0.68,1.75-1.05
		c0.68-0.37,1.38-0.66,2.12-0.86c0.74-0.2,1.47-0.29,2.18-0.25c0.72,0.04,1.34,0.33,1.88,0.86c0.66,0.65,0.88,1.3,0.68,1.94
		c-0.2,0.63-0.57,1.22-1.11,1.75c-0.37,0.41-0.81,0.79-1.32,1.14c-0.51,0.35-0.98,0.71-1.41,1.11c-0.43,0.39-0.75,0.84-0.95,1.35
		c-0.2,0.51-0.2,1.14,0,1.88c0.21,0.7,0.67,1.29,1.38,1.78c0.72,0.49,1.61,0.72,2.67,0.68c1.64-0.08,2.95-0.68,3.94-1.78
		c0.98-1.11,1.64-2.4,1.97-3.87C202.05,240.71,202.02,239.46,201.71,238.27z"/>
	<path d="M344.46,238.27c0.31-1.19,0.81-2.27,1.51-3.26c0.7-0.98,1.56-1.83,2.58-2.55c1.02-0.72,2.13-1.28,3.32-1.69
		c4.71-2.31,11.8,1.72,11.8,1.72c0.36,0.19,0.75,0.48,1.13,0.74c0.21-0.44,0.41-0.82,0.63-1.28c0.72-1.53,1.47-3.08,2.24-4.65
		c0.78-1.57,1.64-3,2.59-4.3c0.95-1.3,2.02-2.39,3.22-3.27c1.2-0.88,2.57-1.41,4.12-1.58c1.16-0.13,2.27-0.07,3.32,0.17
		c1.05,0.24,2.02,0.61,2.9,1.11c0.88,0.5,1.66,1.11,2.35,1.84c0.68,0.73,1.24,1.52,1.66,2.37c0.68,1.37,1,2.71,0.94,4.02
		c-0.06,1.31-0.37,2.5-0.94,3.57c-0.57,1.07-1.33,1.99-2.3,2.76c-0.96,0.77-1.99,1.3-3.1,1.61c-1.11,0.3-2.23,0.32-3.38,0.07
		c-1.15-0.26-2.2-0.86-3.16-1.82c-0.57-0.57-1.01-1.22-1.34-1.93c-0.32-0.71-0.47-1.45-0.45-2.21c0.02-0.76,0.23-1.51,0.63-2.24
		c0.4-0.74,1.04-1.41,1.92-2.03c0.75-0.5,1.57-0.78,2.46-0.83c0.89-0.05,1.71,0.09,2.45,0.43c0.74,0.33,1.35,0.83,1.82,1.49
		c0.47,0.66,0.66,1.47,0.58,2.42c-0.06,0.63-0.25,1.14-0.59,1.54c-0.34,0.4-0.73,0.65-1.17,0.75c-0.44,0.1-0.89,0.03-1.34-0.2
		c-0.45-0.23-0.81-0.65-1.06-1.25c-0.18-0.41-0.39-0.81-0.62-1.2c-0.23-0.39-0.64-0.69-1.22-0.89c-0.46-0.15-0.88-0.07-1.25,0.25
		c-0.37,0.32-0.62,0.74-0.74,1.28c-0.12,0.53-0.09,1.13,0.09,1.79c0.18,0.66,0.57,1.26,1.18,1.79c0.88,0.79,1.83,1.21,2.84,1.28
		c1.01,0.07,1.95-0.11,2.83-0.54c0.87-0.43,1.65-1.04,2.33-1.83c0.68-0.79,1.13-1.66,1.36-2.6c0.23-0.94,0.19-1.9-0.12-2.87
		c-0.31-0.97-0.98-1.84-2.02-2.62c-1.07-0.77-2.09-1.16-3.07-1.16c-0.98-0.01-1.93,0.26-2.85,0.79c-0.91,0.53-1.8,1.28-2.64,2.25
		c-0.85,0.97-1.67,2.04-2.46,3.23c-0.79,1.19-1.56,2.43-2.29,3.73c-0.74,1.3-1.45,2.54-2.13,3.73c-0.09,0.16-0.17,0.28-0.26,0.43
		c1,0.96,2.01,1.96,3.07,3.06c1.52,1.58,3.09,3.23,4.74,4.95c1.64,1.72,3.3,3.35,4.98,4.89c1.68,1.54,3.36,2.89,5.04,4.06
		c1.68,1.17,3.33,1.99,4.95,2.46c1.62,0.47,3.19,0.51,4.7,0.12c1.52-0.39,2.95-1.38,4.3-2.98c1.31-1.6,2.02-3.21,2.12-4.83
		c0.1-1.62-0.2-3.12-0.92-4.49c-0.72-1.37-1.75-2.54-3.1-3.5c-1.35-0.96-2.79-1.61-4.3-1.94c-1.52-0.33-3.04-0.24-4.58,0.25
		c-1.54,0.49-2.84,1.52-3.91,3.07c-0.74,1.06-1.12,2.14-1.14,3.23c-0.02,1.09,0.16,2.02,0.55,2.8c0.39,0.78,0.93,1.34,1.63,1.69
		c0.7,0.35,1.37,0.32,2.03-0.09c0.82-0.53,1.33-1.15,1.54-1.84c0.2-0.7,0.37-1.39,0.49-2.09c0.16-1.02,0.55-1.8,1.17-2.34
		c0.62-0.53,1.28-0.81,2-0.83c0.72-0.02,1.41,0.21,2.09,0.71c0.68,0.49,1.18,1.21,1.51,2.15c0.49,1.43,0.5,2.76,0.03,3.96
		c-0.47,1.21-1.22,2.21-2.24,3.01c-1.02,0.8-2.23,1.33-3.63,1.6c-1.39,0.26-2.77,0.15-4.12-0.34c-1.6-0.61-2.85-1.41-3.75-2.4
		c-0.9-0.98-1.52-2.06-1.84-3.23c-0.33-1.17-0.38-2.37-0.15-3.6c0.22-1.23,0.67-2.4,1.32-3.5c1.11-1.84,2.5-3.19,4.18-4.03
		c1.68-0.84,3.43-1.24,5.26-1.2c1.82,0.04,3.63,0.47,5.41,1.29c1.78,0.82,3.32,1.95,4.61,3.38s2.23,3.16,2.83,5.17
		c0.59,2.01,0.62,4.2,0.09,6.58c-0.33,1.47-0.88,2.91-1.66,4.3c-0.78,1.39-1.75,2.64-2.92,3.75c-1.17,1.11-2.52,2.05-4.06,2.83
		c-1.54,0.78-3.23,1.29-5.07,1.54c-2.46,0.33-4.79,0.04-6.98-0.86c-2.19-0.9-4.27-2.17-6.24-3.81c-1.97-1.64-3.85-3.53-5.66-5.65
		c-1.8-2.13-3.56-4.24-5.26-6.33c-1.7-2.09-3.35-4.05-4.95-5.87c-1.6-1.82-3.2-3.27-4.79-4.33c-0.49-0.33-1.08-0.68-1.75-1.05
		c-0.68-0.37-1.38-0.66-2.12-0.86c-0.74-0.2-1.47-0.29-2.18-0.25c-0.72,0.04-1.34,0.33-1.88,0.86c-0.66,0.65-0.88,1.3-0.68,1.94
		c0.2,0.63,0.57,1.22,1.11,1.75c0.37,0.41,0.81,0.79,1.32,1.14c0.51,0.35,0.98,0.71,1.41,1.11c0.43,0.39,0.75,0.84,0.95,1.35
		c0.2,0.51,0.2,1.14,0,1.88c-0.21,0.7-0.67,1.29-1.38,1.78c-0.72,0.49-1.61,0.72-2.67,0.68c-1.64-0.08-2.95-0.68-3.94-1.78
		c-0.98-1.11-1.64-2.4-1.97-3.87C344.12,240.71,344.15,239.46,344.46,238.27z"/>
	<g>
		<path d="M122.36,129.93c2.99,0,5.47,0.77,7.46,2.3c1.98,1.54,3.44,3.5,4.37,5.88c0.93,2.38,1.31,4.97,1.15,7.76
			c-0.16,2.79-0.85,5.44-2.06,7.94c-1.78,3.64-4.06,6.59-6.85,8.85c-2.79,2.26-6.16,3.68-10.12,4.24c-2.75,0.4-5.6,0.36-8.55-0.12
			c-2.95-0.49-5.9-1.19-8.85-2.12c-2.95-0.93-5.84-2-8.67-3.21c-2.83-1.21-5.5-2.35-8-3.4c-2.67-1.13-5.52-2.3-8.55-3.52
			c-3.03-1.21-6.1-2.32-9.22-3.33c-3.11-1.01-6.24-1.8-9.4-2.36c-3.15-0.56-6.22-0.73-9.21-0.49c-0.73,0.08-1.38-0.14-1.94-0.67
			c-0.57-0.53-0.89-1.15-0.97-1.88c-0.08-0.81,0.14-1.5,0.67-2.06c0.53-0.56,1.15-0.89,1.88-0.97c0.89-0.08,1.68-0.14,2.36-0.18
			c0.68-0.04,1.25-0.18,1.7-0.42c0.44-0.24,0.79-0.67,1.03-1.27c0.24-0.61,0.4-1.52,0.49-2.73V47.33c0-1.37-0.28-2.55-0.85-3.52
			c-0.57-0.97-1.46-1.46-2.67-1.46c-2.75,0-5.23,0.02-7.46,0.06c-2.22,0.04-4.26,0.18-6.12,0.42c-1.86,0.24-3.6,0.61-5.21,1.09
			c-1.62,0.49-3.19,1.13-4.73,1.94c-2.59,1.37-4.67,3.27-6.25,5.7c-1.58,2.43-2.63,5.03-3.15,7.82c-0.53,2.79-0.53,5.62,0,8.49
			c0.53,2.87,1.54,5.4,3.03,7.58c1.49,2.18,3.46,3.9,5.88,5.15c2.43,1.25,5.33,1.68,8.73,1.27c1.78-0.24,3.33-0.87,4.67-1.88
			c1.33-1.01,2.43-2.24,3.27-3.7c0.85-1.46,1.39-3.03,1.64-4.73c0.24-1.7,0.2-3.35-0.12-4.97c-0.49-2.1-1.23-3.17-2.24-3.21
			c-1.01-0.04-1.39,0.87-1.15,2.73c0.24,2.59-0.3,4.63-1.64,6.12c-1.33,1.5-2.89,2.2-4.67,2.12c-1.78,0-3.23-0.5-4.36-1.52
			c-1.13-1.01-1.9-2.28-2.3-3.82c-0.41-1.53-0.44-3.17-0.12-4.91c0.32-1.74,0.99-3.29,2-4.67c1.01-1.37,2.4-2.44,4.18-3.21
			c1.78-0.77,3.96-0.99,6.55-0.67c2.43,0.32,4.35,1.21,5.76,2.67c1.41,1.46,2.43,3.17,3.03,5.15c0.61,1.98,0.85,4.06,0.73,6.24
			c-0.12,2.18-0.47,4.2-1.03,6.06c-1.29,3.72-3.4,6.71-6.31,8.97c-2.91,2.26-6.18,3.8-9.82,4.61c-3.64,0.81-7.38,0.85-11.21,0.12
			c-3.84-0.73-7.26-2.2-10.25-4.43c-2.99-2.22-5.34-5.19-7.03-8.91c-1.7-3.72-2.22-8.2-1.58-13.46C0.83,57.27,2.41,52.92,5,49.57
			c2.59-3.35,5.74-5.96,9.46-7.82c3.72-1.86,7.86-3.15,12.43-3.88c4.57-0.73,9.16-1.09,13.76-1.09h28.37c0.73,0,1.37,0.26,1.94,0.79
			c0.56,0.53,0.85,1.19,0.85,2c0,0.73-0.24,1.33-0.73,1.82s-1.09,0.81-1.82,0.97c-1.78,0.41-2.71,1.98-2.79,4.73v91.09
			c0,0.16,0,0.61,0,1.33s0.06,1.58,0.18,2.55c0.12,0.97,0.38,1.92,0.79,2.85c0.4,0.93,1.05,1.64,1.94,2.12
			c2.02,0.81,3.96,1.58,5.82,2.3c1.62,0.65,3.25,1.29,4.91,1.94c1.66,0.65,3.05,1.21,4.18,1.7c3.31,1.37,6.57,2.69,9.76,3.94
			c3.19,1.25,6.26,2.28,9.21,3.09c2.95,0.81,5.76,1.27,8.43,1.39c2.67,0.12,5.13-0.26,7.4-1.15c2.1-0.89,4-2.18,5.7-3.88
			s2.63-3.72,2.79-6.06c0.16-1.62-0.04-2.77-0.61-3.46c-0.57-0.69-1.29-1.11-2.18-1.27c-0.89-0.16-1.92-0.24-3.09-0.24
			c-1.17,0-2.28-0.16-3.33-0.49c-1.94-0.49-3.32-1.53-4.12-3.15c-0.81-1.62-1.05-3.29-0.73-5.03c0.32-1.74,1.21-3.29,2.67-4.67
			C117.64,130.62,119.7,129.93,122.36,129.93z"/>
		<path d="M128.18,87.89c0,0.49-0.02,1.05-0.06,1.7c-0.04,0.65-0.16,1.23-0.36,1.76c-0.2,0.53-0.49,0.97-0.85,1.33
			c-0.36,0.36-0.91,0.55-1.64,0.55l-34.55,0.12c0.08,1.7,0.28,3.35,0.61,4.97c0.32,1.62,0.81,3.15,1.46,4.61
			c0.65,1.62,1.58,3.21,2.79,4.79c1.21,1.58,2.59,2.99,4.12,4.24c1.54,1.25,3.17,2.26,4.91,3.03c1.74,0.77,3.54,1.19,5.4,1.27
			c2.34,0.08,4.61-0.34,6.79-1.27c2.18-0.93,4.08-2.28,5.7-4.06c0.49-0.65,1.09-0.99,1.82-1.03c0.73-0.04,1.41,0.22,2.06,0.79
			c0.65,0.49,0.99,1.09,1.03,1.82c0.04,0.73-0.18,1.41-0.67,2.06c-2.51,2.91-5.48,5.19-8.91,6.85c-3.44,1.66-6.99,2.67-10.67,3.03
			c-3.68,0.36-7.34,0.04-10.97-0.97c-3.64-1.01-6.91-2.77-9.82-5.27c-3.48-2.99-6.27-6.71-8.37-11.15c-2.1-4.44-3.27-9.01-3.52-13.7
			c-0.24-6.95,1.13-13.22,4.12-18.79c2.51-4.69,5.96-8.37,10.37-11.03c4.4-2.67,8.97-4.14,13.7-4.43c4.73-0.28,9.22,0.73,13.46,3.03
			c4.24,2.3,7.5,6.08,9.76,11.34c1.05,2.43,1.72,4.79,2,7.09C128.16,82.85,128.26,85.3,128.18,87.89z M112.42,87.64
			c0.24-3.4,0.16-6.37-0.24-8.91c-0.41-2.55-1.03-4.67-1.88-6.37c-0.85-1.7-1.86-2.99-3.03-3.88c-1.17-0.89-2.41-1.37-3.7-1.46
			c-2.1-0.08-3.9,0.67-5.4,2.24c-1.5,1.58-2.77,3.48-3.82,5.7c-1.05,2.22-1.86,4.53-2.43,6.91c-0.57,2.38-0.93,4.35-1.09,5.88
			L112.42,87.64z"/>
		<path d="M258.28,69.7c2.34,2.91,4.16,6.3,5.46,10.18c1.29,3.88,1.94,8,1.94,12.37c0,4.37-0.65,8.49-1.94,12.37
			c-1.29,3.88-3.11,7.24-5.46,10.06c-2.59,3.23-5.5,5.66-8.73,7.27c-3.23,1.62-6.55,2.43-9.94,2.43c-3.4,0-6.73-0.81-10-2.43
			c-3.27-1.62-6.17-4.04-8.67-7.27c-2.34-2.83-4.16-6.18-5.46-10.06s-1.94-8-1.94-12.37c0-4.36,0.65-8.49,1.94-12.37
			c1.29-3.88,3.11-7.28,5.46-10.18c2.5-3.15,5.4-5.54,8.67-7.15c3.27-1.62,6.61-2.42,10-2.42c3.4,0,6.71,0.81,9.94,2.42
			C252.78,64.16,255.69,66.55,258.28,69.7z M245.91,111.77c1.13-2.5,2-5.41,2.61-8.73c0.61-3.31,0.91-6.91,0.91-10.79
			c0-3.88-0.3-7.5-0.91-10.85c-0.61-3.35-1.48-6.28-2.61-8.79c-0.89-2.1-1.9-3.76-3.03-4.97c-1.13-1.21-2.26-1.86-3.4-1.94
			c-0.81,0-1.56,0.24-2.24,0.73c-0.69,0.49-1.29,1.07-1.82,1.76c-0.53,0.69-1.01,1.44-1.46,2.24c-0.44,0.81-0.79,1.54-1.03,2.18
			c-1.13,2.51-2,5.44-2.61,8.79c-0.61,3.35-0.91,6.97-0.91,10.85c0,3.88,0.3,7.48,0.91,10.79c0.61,3.32,1.47,6.23,2.61,8.73
			c0.24,0.65,0.59,1.37,1.03,2.18c0.44,0.81,0.93,1.56,1.46,2.24c0.53,0.69,1.13,1.27,1.82,1.76c0.68,0.49,1.43,0.73,2.24,0.73
			c1.13,0,2.26-0.63,3.4-1.88C244.01,115.55,245.02,113.87,245.91,111.77z"/>
		<g>
			<path d="M210.5,196.21c-1.12,0-1.94-0.38-2.45-1.14c-0.52-0.76-0.82-1.77-0.9-3.05v-78.62c0-0.14-0.06-0.26-0.08-0.4l0.03-0.03
				V80.49c0-1.78-0.04-3.38-0.12-4.79c-0.08-1.41-0.36-3.01-0.85-4.79c-0.73-2.43-1.9-4.45-3.52-6.06
				c-1.62-1.62-3.48-2.83-5.58-3.64c-2.1-0.81-4.3-1.21-6.61-1.21c-2.3,0-4.47,0.44-6.49,1.33c-1.78,0.73-3.27,1.64-4.49,2.73
				c-1.21,1.09-2.26,2.32-3.15,3.7c-1.29-2.26-3.07-4.04-5.33-5.34c-2.26-1.29-4.67-2.06-7.22-2.3c-2.55-0.24-5.03,0.06-7.46,0.91
				c-2.43,0.85-4.45,2.24-6.06,4.18v-1.33c0-0.81-0.26-1.47-0.79-2c-0.53-0.53-1.19-0.79-2-0.79H132.3c-0.81,0-1.48,0.26-2,0.79
				c-0.53,0.53-0.79,1.19-0.79,2c0,0.73,0.24,1.35,0.73,1.88c0.48,0.53,1.05,0.83,1.7,0.91c1.7,0.32,2.67,1.9,2.91,4.73v41.59
				c-0.08,1.13-0.32,2.14-0.73,3.03c-0.41,0.89-1.21,1.46-2.43,1.7c-0.65,0.16-1.17,0.49-1.58,0.97c-0.4,0.49-0.61,1.05-0.61,1.7
				c0,0.81,0.26,1.48,0.79,2c0.53,0.53,1.19,0.79,2,0.79h20.49c0.73,0,1.37-0.26,1.94-0.79c0.56-0.53,0.85-1.19,0.85-2
				c0-0.65-0.24-1.23-0.73-1.76c-0.49-0.53-1.05-0.83-1.7-0.91c-1.78-0.32-2.75-1.9-2.91-4.73V84.25c0-1.37,0.08-2.99,0.24-4.85
				c0.16-1.86,0.48-3.66,0.97-5.4c0.49-1.74,1.23-3.25,2.24-4.55c1.01-1.29,2.36-2.1,4.06-2.43c2.5-0.4,4.12,1.66,4.85,6.18
				c0.24,1.86,0.4,4.04,0.49,6.55c0.08,2.51,0.12,5.09,0.12,7.76c0,2.67-0.02,5.3-0.06,7.88c-0.04,2.59-0.06,4.85-0.06,6.79v18.19
				c0,0.81,0.26,1.48,0.79,2c0.53,0.53,1.19,0.79,2,0.79h15.28c0.73,0,1.37-0.26,1.94-0.79c0.56-0.53,0.85-1.19,0.85-2
				c0-0.65-0.24-1.23-0.73-1.76c-0.49-0.53-1.09-0.83-1.82-0.91c-1.7-0.4-2.63-1.98-2.79-4.73V82.43c0-1.45,0.12-3.03,0.36-4.73
				c0.24-1.7,0.65-3.29,1.21-4.79c0.57-1.5,1.33-2.79,2.3-3.88c0.97-1.09,2.22-1.76,3.76-2c2.5-0.4,4.08,1.66,4.73,6.18
				c0.32,1.86,0.53,4.04,0.61,6.55c0.08,2.51,0.12,5.09,0.12,7.76c0,2.67-0.02,5.3-0.06,7.88c-0.04,2.59-0.06,4.85-0.06,6.79v18.19
				c0,0.04,0.02,0.08,0.02,0.12v23.32c-1.6-1.52-3.25-2.47-5.4-3.31c-2.15-0.84-4.35-1.26-6.58-1.26c-3.35,0-6.44,0.86-9.27,2.57
				c-2.83,1.72-5.33,4.09-7.48,7.12c-2.15,3.11-3.77,6.58-4.85,10.41c-1.08,3.83-1.62,7.76-1.62,11.79c0,4.03,0.54,7.96,1.62,11.79
				c1.08,3.83,2.69,7.3,4.85,10.41c2.15,3.03,4.65,5.41,7.48,7.12c2.83,1.71,5.92,2.57,9.27,2.57c2.31,0,4.49-0.4,6.52-1.2
				c2.03-0.8,3.89-1.91,5.56-3.35c0.16,0.88,0.44,1.64,0.84,2.27c0.4,0.64,1.04,0.96,1.91,0.96h15.08c0.8,0,1.44-0.26,1.92-0.78
				c0.48-0.52,0.76-1.12,0.84-1.8c0.08-0.68-0.02-1.3-0.3-1.85C211.72,196.73,211.22,196.38,210.5,196.21z M191.84,184.49
				c-0.08,2.55-0.56,4.71-1.44,6.46c-0.88,1.76-2.75,2.63-5.62,2.63c-1.6,0-3.15-0.54-4.67-1.62s-2.83-2.57-3.95-4.49
				c-1.36-2.23-2.37-4.79-3.05-7.66c-0.68-2.87-1.02-5.8-1.02-8.79c0-2.99,0.34-5.92,1.02-8.8c0.68-2.87,1.69-5.46,3.05-7.78
				c1.12-1.83,2.43-3.31,3.95-4.43c1.52-1.12,3.07-1.67,4.67-1.67c1.68,0,2.99,0.58,3.95,1.74c0.96,1.16,1.65,2.53,2.09,4.13
				c0.44,1.6,0.72,3.29,0.84,5.09c0.12,1.79,0.18,3.29,0.18,4.49V184.49z"/>
			<path d="M263.78,196.33c-1.67-0.4-2.59-1.95-2.75-4.67V143.2c0-0.8-0.26-1.46-0.78-1.97c-0.52-0.52-1.18-0.78-1.97-0.78h-14.96
				c-0.8,0-1.46,0.26-1.98,0.78c-0.52,0.52-0.78,1.18-0.78,1.97c0,0.72,0.24,1.34,0.72,1.85c0.48,0.52,1.04,0.82,1.67,0.9
				c1.68,0.4,2.63,1.96,2.87,4.67v28.36c0,1.36-0.08,2.95-0.24,4.79c-0.16,1.84-0.48,3.61-0.96,5.33c-0.48,1.72-1.22,3.21-2.21,4.49
				c-1,1.28-2.33,2.03-4.01,2.27c-2.47,0.48-4.07-1.51-4.79-5.98c-0.32-1.75-0.52-3.89-0.6-6.4c-0.08-2.51-0.12-5.09-0.12-7.72
				c0-2.63,0.02-5.22,0.06-7.78c0.04-2.55,0.06-4.79,0.06-6.7V143.2c0-0.8-0.26-1.46-0.78-1.97c-0.52-0.52-1.18-0.78-1.98-0.78
				h-14.96c-0.8,0-1.45,0.26-1.97,0.78c-0.52,0.52-0.78,1.18-0.78,1.97c0,0.72,0.24,1.34,0.72,1.85c0.48,0.52,1.04,0.82,1.68,0.9
				c1.67,0.32,2.63,1.88,2.87,4.67v32.07c-0.08,1.67-0.08,3.23,0,4.67c0.08,1.43,0.36,3.03,0.84,4.79c0.88,2.95,2.45,5.31,4.73,7.06
				c2.27,1.76,4.76,2.89,7.48,3.41c2.71,0.52,5.42,0.38,8.14-0.42c2.71-0.8,4.95-2.27,6.7-4.43v1.2c0,0.8,0.26,1.48,0.78,2.03
				c0.52,0.56,1.18,0.84,1.98,0.84h15.08c0.72,0,1.36-0.28,1.92-0.84c0.56-0.56,0.84-1.24,0.84-2.03c0-0.64-0.24-1.22-0.72-1.74
				C265.09,196.71,264.49,196.41,263.78,196.33z"/>
			<path d="M319.51,196.21c-1.12,0-1.94-0.38-2.45-1.14c-0.52-0.76-0.82-1.77-0.9-3.05l-0.17-84.33V80.49
				c0-1.78-0.02-3.38-0.06-4.79c-0.04-1.41-0.35-3.01-0.91-4.79c-0.89-2.99-2.49-5.38-4.79-7.15c-2.3-1.78-4.83-2.93-7.58-3.46
				c-2.75-0.52-5.5-0.38-8.25,0.42c-2.75,0.81-5.01,2.3-6.79,4.49v-1.33c0-0.81-0.26-1.47-0.79-2c-0.53-0.53-1.19-0.79-2-0.79
				h-15.16c-0.81,0-1.48,0.26-2,0.79c-0.53,0.53-0.79,1.19-0.79,2c0,0.73,0.24,1.35,0.73,1.88c0.49,0.53,1.05,0.83,1.7,0.91
				c1.7,0.32,2.67,1.9,2.91,4.73v41.59c-0.08,1.13-0.32,2.14-0.73,3.03c-0.41,0.89-1.21,1.46-2.43,1.7
				c-0.65,0.16-1.17,0.49-1.58,0.97c-0.4,0.49-0.61,1.05-0.61,1.7c0,0.81,0.26,1.48,0.79,2c0.53,0.53,1.19,0.79,2,0.79h20.49
				c0.73,0,1.37-0.26,1.94-0.79c0.56-0.53,0.85-1.19,0.85-2c0-0.65-0.24-1.23-0.73-1.76c-0.48-0.53-1.05-0.83-1.7-0.91
				c-1.78-0.32-2.75-1.9-2.91-4.73V84.25c0-1.37,0.08-2.99,0.24-4.85c0.16-1.86,0.49-3.66,0.97-5.4c0.48-1.74,1.23-3.25,2.24-4.55
				c1.01-1.29,2.36-2.1,4.06-2.43c2.5-0.4,4.12,1.66,4.85,6.18c0.24,1.86,0.4,4.04,0.48,6.55c0.08,2.51,0.12,5.09,0.12,7.76
				c0,2.67-0.02,5.3-0.06,7.88c-0.04,2.59-0.06,4.85-0.06,6.79v16.63v1.56v23.3c-1.6-1.52-3.1-2.33-5.25-3.17
				c-2.15-0.84-4.35-1.26-6.58-1.26c-3.35,0-6.44,0.86-9.27,2.57c-2.83,1.72-5.33,4.09-7.48,7.12c-2.15,3.11-3.77,6.58-4.85,10.41
				c-1.08,3.83-1.62,7.76-1.62,11.79c0,4.03,0.54,7.96,1.62,11.79c1.08,3.83,2.69,7.3,4.85,10.41c2.15,3.03,4.65,5.41,7.48,7.12
				c2.83,1.71,5.92,2.57,9.27,2.57c2.31,0,4.49-0.4,6.52-1.2c2.03-0.8,3.89-1.91,5.56-3.35c0.16,0.88,0.44,1.64,0.84,2.27
				c0.4,0.64,1.04,0.96,1.92,0.96h15.08c0.8,0,1.44-0.26,1.91-0.78c0.48-0.52,0.76-1.12,0.84-1.8c0.08-0.68-0.02-1.3-0.3-1.85
				C320.73,196.73,320.23,196.38,319.51,196.21z M300.84,184.49c-0.08,2.55-0.56,4.71-1.44,6.46c-0.88,1.76-2.75,2.63-5.62,2.63
				c-1.6,0-3.15-0.54-4.67-1.62c-1.52-1.08-2.83-2.57-3.95-4.49c-1.36-2.23-2.37-4.79-3.05-7.66c-0.68-2.87-1.02-5.8-1.02-8.79
				c0-2.99,0.34-5.92,1.02-8.8c0.68-2.87,1.69-5.46,3.05-7.78c1.12-1.83,2.43-3.31,3.95-4.43c1.52-1.12,3.07-1.67,4.67-1.67
				c1.68,0,2.99,0.58,3.95,1.74c0.96,1.16,1.65,2.53,2.09,4.13c0.44,1.6,0.72,3.29,0.84,5.09c0.12,1.79,0.18,3.29,0.18,4.49V184.49z
				"/>
			<path d="M374.43,197.23c-0.48-0.52-1.08-0.82-1.8-0.9c-1.68-0.4-2.59-1.95-2.75-4.67V143.2c0-0.8-0.26-1.46-0.78-1.97
				c-0.52-0.52-1.18-0.78-1.97-0.78h-14.96c-0.8,0-1.46,0.26-1.98,0.78c-0.52,0.52-0.78,1.18-0.78,1.97c0,0.72,0.24,1.34,0.72,1.85
				c0.48,0.52,1.04,0.82,1.68,0.9c1.67,0.4,2.63,1.96,2.87,4.67v28.36c0,1.36-0.08,2.95-0.24,4.79c-0.16,1.84-0.48,3.61-0.96,5.33
				c-0.48,1.72-1.22,3.21-2.21,4.49c-1,1.28-2.33,2.03-4.01,2.27c-2.47,0.48-4.07-1.51-4.79-5.98c-0.32-1.75-0.52-3.89-0.6-6.4
				c-0.08-2.51-0.12-5.09-0.12-7.72c0-2.63,0.02-5.22,0.06-7.78c0.04-2.55,0.06-4.79,0.06-6.7V143.2c0-0.8-0.26-1.46-0.78-1.97
				c-0.52-0.52-1.18-0.78-1.98-0.78h-14.96c-0.8,0-1.45,0.26-1.97,0.78c-0.52,0.52-0.78,1.18-0.78,1.97c0,0.72,0.24,1.34,0.72,1.85
				c0.48,0.52,1.04,0.82,1.68,0.9c1.67,0.32,2.63,1.88,2.87,4.67v32.07c-0.08,1.67-0.08,3.23,0,4.67c0.08,1.43,0.36,3.03,0.84,4.79
				c0.88,2.95,2.45,5.31,4.73,7.06c2.27,1.76,4.76,2.89,7.48,3.41c2.71,0.52,5.42,0.38,8.14-0.42c2.71-0.8,4.95-2.27,6.7-4.43v1.2
				c0,0.8,0.26,1.48,0.78,2.03c0.52,0.56,1.18,0.84,1.98,0.84h15.08c0.72,0,1.36-0.28,1.91-0.84c0.56-0.56,0.84-1.24,0.84-2.03
				C375.15,198.33,374.91,197.75,374.43,197.23z"/>
		</g>
		<path d="M374.92,117.59c1.21,0.24,1.82,1.17,1.82,2.79c0,0.73-0.26,1.37-0.79,1.94c-0.53,0.57-1.19,0.85-2,0.85h-14.31
			c-0.89,0-1.66-0.4-2.3-1.21c-3.88,2.1-7.86,3.07-11.94,2.91c-4.08-0.16-7.82-1.23-11.21-3.21c-3.4-1.98-6.18-4.71-8.37-8.18
			c-2.18-3.47-3.27-7.48-3.27-12c0-3.23,0.63-6.28,1.88-9.15c1.25-2.87,2.93-5.35,5.03-7.46c2.1-2.1,4.59-3.78,7.46-5.03
			c2.87-1.25,5.92-1.88,9.15-1.88c3.8,0,7.4,0.89,10.79,2.67c0.08-1.13,0-2.55-0.24-4.24c-0.24-1.7-0.65-3.33-1.21-4.91
			c-0.57-1.58-1.31-2.93-2.24-4.06c-0.93-1.13-2.08-1.7-3.46-1.7c-0.97,0-1.58,0.55-1.82,1.64c-0.24,1.09-0.55,2.32-0.91,3.7
			c-0.36,1.38-0.99,2.67-1.88,3.88c-0.89,1.21-2.43,1.94-4.61,2.18c-2.02,0.24-3.74-0.14-5.15-1.15c-1.41-1.01-2.32-2.3-2.73-3.88
			c-0.41-1.58-0.2-3.23,0.61-4.97c0.81-1.74,2.5-3.29,5.09-4.67c2.43-1.05,5.07-1.78,7.94-2.18c2.87-0.4,5.68-0.38,8.43,0.06
			c2.75,0.45,5.37,1.29,7.88,2.55c2.5,1.25,4.61,3.01,6.31,5.27c1.53,1.94,2.5,3.96,2.91,6.06c0.4,2.1,0.61,4.33,0.61,6.67v32.13
			C372.53,115.57,373.38,117.11,374.92,117.59z M356.85,111.89c0-3.39,0.02-6.73,0.06-10c0.04-3.27,0.06-6.61,0.06-10
			c0-2.02-0.53-3.52-1.58-4.49c-1.05-0.97-2.32-1.5-3.82-1.58c-1.5-0.08-3.05,0.2-4.67,0.85c-1.62,0.65-2.95,1.54-4,2.67
			c-1.86,2.02-3.09,4.57-3.7,7.64c-0.61,3.07-0.59,6.06,0.06,8.97c0.65,2.91,1.96,5.4,3.94,7.46c1.98,2.06,4.67,3.09,8.06,3.09
			c1.37,0,2.61-0.4,3.7-1.21C356.06,114.48,356.69,113.35,356.85,111.89z"/>
		<path d="M410.08,60.85c3.15-0.73,5.8-0.79,7.94-0.18c2.14,0.61,3.86,1.6,5.15,2.97c1.29,1.38,2.18,3.01,2.67,4.91
			c0.49,1.9,0.61,3.74,0.36,5.52c-0.32,2.18-1.13,4.04-2.43,5.58c-1.29,1.54-2.99,2.22-5.09,2.06c-1.54-0.16-2.73-0.56-3.58-1.21
			c-0.85-0.65-1.48-1.47-1.88-2.49c-0.41-1.01-0.63-2.12-0.67-3.33c-0.04-1.21,0.02-2.47,0.18-3.76c0.16-1.05,0.26-1.88,0.3-2.49
			c0.04-0.61-0.06-1.07-0.3-1.39c-0.41-0.57-1.01-0.73-1.82-0.49c-0.81,0.24-1.62,0.57-2.43,0.97c-1.45,0.89-2.61,2.02-3.46,3.4
			c-0.85,1.37-1.52,2.89-2,4.55c-0.49,1.66-0.83,3.35-1.03,5.09c-0.2,1.74-0.34,3.38-0.42,4.91v27.4c0.24,2.83,1.21,4.41,2.91,4.73
			c0.65,0.08,1.21,0.38,1.7,0.91c0.49,0.53,0.73,1.11,0.73,1.76c0,0.81-0.26,1.5-0.79,2.06c-0.53,0.57-1.19,0.85-2,0.85h-20.49
			c-0.73,0-1.37-0.28-1.94-0.85c-0.57-0.57-0.85-1.25-0.85-2.06c0-0.65,0.24-1.23,0.73-1.76c0.49-0.52,1.05-0.83,1.7-0.91
			c1.78-0.32,2.75-1.9,2.91-4.73V72.12c-0.08-0.89-0.32-1.9-0.73-3.03c-0.41-1.13-1.17-1.7-2.3-1.7c-0.81,0-1.48-0.26-2-0.79
			c-0.53-0.53-0.79-1.19-0.79-2c0-0.73,0.26-1.37,0.79-1.94c0.53-0.56,1.19-0.85,2-0.85h15.76c0.73,0,1.37,0.28,1.94,0.85
			c0.57,0.57,0.85,1.21,0.85,1.94c0,0.24-0.02,0.49-0.06,0.73c-0.04,0.24-0.06,0.49-0.06,0.73c1.05-1.21,2.26-2.28,3.64-3.21
			C406.6,61.92,408.22,61.25,410.08,60.85z"/>
		<path d="M473.97,117.59c1.21,0.24,1.82,1.17,1.82,2.79c0,0.73-0.26,1.37-0.79,1.94c-0.53,0.57-1.19,0.85-2,0.85H458.7
			c-0.89,0-1.66-0.4-2.3-1.21c-3.88,2.1-7.86,3.07-11.94,2.91c-4.08-0.16-7.82-1.23-11.21-3.21c-3.4-1.98-6.18-4.71-8.37-8.18
			c-2.18-3.47-3.27-7.48-3.27-12c0-3.23,0.63-6.28,1.88-9.15c1.25-2.87,2.93-5.35,5.03-7.46c2.1-2.1,4.59-3.78,7.46-5.03
			c2.87-1.25,5.92-1.88,9.15-1.88c3.8,0,7.4,0.89,10.79,2.67c0.08-1.13,0-2.55-0.24-4.24s-0.65-3.33-1.21-4.91
			c-0.57-1.58-1.31-2.93-2.24-4.06c-0.93-1.13-2.08-1.7-3.46-1.7c-0.97,0-1.58,0.55-1.82,1.64s-0.55,2.32-0.91,3.7
			c-0.36,1.38-0.99,2.67-1.88,3.88c-0.89,1.21-2.43,1.94-4.61,2.18c-2.02,0.24-3.74-0.14-5.15-1.15c-1.41-1.01-2.32-2.3-2.73-3.88
			c-0.41-1.58-0.2-3.23,0.61-4.97c0.81-1.74,2.5-3.29,5.09-4.67c2.43-1.05,5.07-1.78,7.94-2.18c2.87-0.4,5.68-0.38,8.43,0.06
			c2.75,0.45,5.37,1.29,7.88,2.55c2.5,1.25,4.61,3.01,6.31,5.27c1.53,1.94,2.5,3.96,2.91,6.06c0.4,2.1,0.61,4.33,0.61,6.67v32.13
			C471.59,115.57,472.44,117.11,473.97,117.59z M455.91,111.89c0-3.39,0.02-6.73,0.06-10c0.04-3.27,0.06-6.61,0.06-10
			c0-2.02-0.53-3.52-1.58-4.49c-1.05-0.97-2.32-1.5-3.82-1.58c-1.5-0.08-3.05,0.2-4.67,0.85c-1.62,0.65-2.95,1.54-4,2.67
			c-1.86,2.02-3.09,4.57-3.7,7.64c-0.61,3.07-0.59,6.06,0.06,8.97c0.65,2.91,1.96,5.4,3.94,7.46c1.98,2.06,4.67,3.09,8.06,3.09
			c1.37,0,2.61-0.4,3.7-1.21C455.12,114.48,455.75,113.35,455.91,111.89z"/>
		<path d="M513.87,63.15c2.1,2.83,4.44,6.08,7.03,9.76c2.59,3.68,5.17,7.62,7.76,11.82c2.59,4.2,5.07,8.59,7.46,13.15
			c2.38,4.57,4.44,9.16,6.18,13.76c1.74,4.61,3.03,9.18,3.88,13.7c0.85,4.53,0.99,8.89,0.42,13.09c-0.57,4.2-1.9,8.12-4,11.76
			c-2.1,3.64-5.25,6.87-9.46,9.7c-5.09,3.31-10.71,5.17-16.85,5.58c-5.09,0.24-9.44-0.56-13.03-2.42c-3.6-1.86-6.39-4.24-8.37-7.15
			c-1.98-2.91-3.21-6.13-3.7-9.64c-0.49-3.52-0.2-6.83,0.85-9.94c1.05-3.11,2.87-5.8,5.46-8.06c2.59-2.26,5.9-3.6,9.94-4
			c2.5-0.24,4.79,0.06,6.85,0.91c2.06,0.85,3.82,2,5.27,3.46c1.46,1.46,2.59,3.11,3.4,4.97c0.81,1.86,1.25,3.66,1.33,5.4
			c0.08,1.74-0.22,3.29-0.91,4.67c-0.69,1.37-1.84,2.34-3.46,2.91c-1.62,0.65-2.97,0.83-4.06,0.55c-1.09-0.28-2.04-0.85-2.85-1.7
			c-0.81-0.85-1.5-1.86-2.06-3.03c-0.57-1.17-1.09-2.36-1.58-3.58c-0.65-1.54-1.41-2.81-2.3-3.82c-0.89-1.01-2.39-1.31-4.49-0.91
			c-1.78,0.4-3.17,1.29-4.18,2.67c-1.01,1.37-1.62,2.99-1.82,4.85c-0.2,1.86-0.02,3.84,0.55,5.94c0.56,2.1,1.56,4.04,2.97,5.82
			c1.41,1.78,3.25,3.27,5.52,4.49c2.26,1.21,4.97,1.9,8.12,2.06c4.37,0.16,8.57-0.73,12.61-2.66c3.15-1.53,5.4-3.63,6.73-6.3
			c1.33-2.66,2-5.73,2-9.2c0-3.47-0.59-7.21-1.76-11.2c-1.17-4-2.67-8.07-4.49-12.23c-1.82-4.16-3.88-8.29-6.18-12.41
			c-2.3-4.12-4.61-8.03-6.91-11.74c-2.3-3.71-4.53-7.1-6.67-10.17c-2.14-3.07-3.94-5.61-5.4-7.63l-2.06,2.67v33.95
			c0.16,2.67,1.09,4.2,2.79,4.61c0.73,0.16,1.33,0.49,1.82,0.97c0.49,0.49,0.73,1.09,0.73,1.82c0,0.81-0.28,1.48-0.85,2
			c-0.57,0.53-1.21,0.79-1.94,0.79h-20.49c-0.81,0-1.48-0.26-2-0.79c-0.53-0.53-0.79-1.19-0.79-2c0-0.73,0.24-1.33,0.73-1.82
			c0.49-0.48,1.05-0.81,1.7-0.97c1.7-0.32,2.67-1.86,2.91-4.61V10.55c0-1.37-0.28-2.55-0.85-3.52c-0.57-0.97-1.46-1.46-2.67-1.46
			c-2.75,0-5.23,0.02-7.46,0.06c-2.22,0.04-4.26,0.18-6.12,0.42c-1.86,0.24-3.6,0.61-5.21,1.09c-1.62,0.49-3.19,1.13-4.73,1.94
			c-2.59,1.37-4.67,3.27-6.24,5.7c-1.58,2.43-2.63,5.03-3.15,7.82c-0.53,2.79-0.53,5.62,0,8.49c0.53,2.87,1.54,5.4,3.03,7.58
			c1.49,2.18,3.46,3.9,5.88,5.15c2.43,1.25,5.33,1.68,8.73,1.27c1.78-0.24,3.33-0.87,4.67-1.88c1.33-1.01,2.43-2.24,3.27-3.7
			c0.85-1.46,1.39-3.03,1.64-4.73c0.24-1.7,0.2-3.35-0.12-4.97c-0.49-2.1-1.23-3.17-2.24-3.21c-1.01-0.04-1.39,0.87-1.15,2.73
			c0.24,2.59-0.3,4.63-1.64,6.12c-1.33,1.5-2.89,2.2-4.67,2.12c-1.78,0-3.23-0.5-4.36-1.52c-1.13-1.01-1.9-2.28-2.3-3.82
			c-0.41-1.53-0.44-3.17-0.12-4.91c0.32-1.74,0.99-3.29,2-4.67c1.01-1.37,2.4-2.44,4.18-3.21c1.78-0.77,3.96-0.99,6.55-0.67
			c2.43,0.32,4.35,1.21,5.76,2.67c1.41,1.46,2.43,3.17,3.03,5.15c0.61,1.98,0.85,4.06,0.73,6.24c-0.12,2.18-0.47,4.2-1.03,6.06
			c-1.29,3.72-3.4,6.71-6.31,8.97c-2.91,2.26-6.18,3.8-9.82,4.61c-3.64,0.81-7.38,0.85-11.21,0.12c-3.84-0.73-7.26-2.2-10.25-4.43
			c-2.99-2.22-5.34-5.19-7.03-8.91c-1.7-3.72-2.22-8.2-1.58-13.46c0.56-5.34,2.14-9.68,4.73-13.03c2.59-3.35,5.74-5.96,9.46-7.82
			c3.72-1.86,7.86-3.15,12.43-3.88C466.6,0.36,471.19,0,475.79,0h28.37c0.73,0,1.37,0.26,1.94,0.79c0.56,0.53,0.85,1.19,0.85,2
			c0,0.73-0.24,1.33-0.73,1.82c-0.49,0.49-1.09,0.81-1.82,0.97c-1.78,0.41-2.71,1.98-2.79,4.73v59.51l22.31-29.1
			c0.89-1.05,1.29-1.96,1.21-2.73c-0.08-0.77-0.53-1.31-1.33-1.64c-1.38-0.24-2.06-1.13-2.06-2.67c0-0.81,0.26-1.47,0.79-2
			c0.52-0.53,1.19-0.79,2-0.79h14.31c0.81,0,1.47,0.26,2,0.79c0.53,0.53,0.79,1.19,0.79,2c0,0.81-0.26,1.48-0.79,2
			c-0.53,0.53-1.19,0.79-2,0.79c-1.62,0-3.09,0.41-4.43,1.21c-1.33,0.81-2.49,1.86-3.46,3.15c-2.83,3.72-5.68,7.42-8.55,11.09
			C519.54,55.62,516.69,59.35,513.87,63.15z"/>
	</g>
</g>
</svg>
