<?xml version="1.0" encoding="utf-8"?>
<!-- Generator: Adobe Illustrator 24.3.0, SVG Export Plug-In . SVG Version: 6.00 Build 0)  -->
<svg version="1.1" id="Layer_1" xmlns="http://www.w3.org/2000/svg" xmlns:xlink="http://www.w3.org/1999/xlink" x="0px" y="0px"
	 viewBox="0 0 270.92 175.49" style="enable-background:new 0 0 270.92 175.49;" xml:space="preserve">
<style type="text/css">
	.st0{fill-rule:evenodd;clip-rule:evenodd;}
</style>
<g>
	<g>
		<path class="st0" d="M179.63,16.67c4.98-5.04,9.92-10.04,14.84-15.05c0.74,0.79,1.48,1.56,2.3,2.42
			c-4.93,5.07-10.06,10.19-15.16,15.41c0.52,1,1.04,2,1.61,3.09c3.93-3.95,7.81-7.85,11.66-11.71c0.79,0.81,1.52,1.57,2.31,2.39
			c-0.08,0.09-0.26,0.3-0.46,0.5c-3.87,3.88-7.74,7.77-11.63,11.63c-0.46,0.45-0.62,0.84-0.38,1.47c0.26,0.67,0.42,1.39,0.66,2.24
			c3.99-3.88,7.75-7.84,11.63-11.61c0.79,0.8,1.53,1.56,2.31,2.36c-0.12,0.13-0.3,0.33-0.49,0.52c-4.03,4.05-8.06,8.1-12.1,12.12
			c-0.41,0.41-0.59,0.78-0.52,1.4c0.18,1.4,0.33,2.8,0.05,4.29c0.27,0.1,0.52,0.22,0.78,0.3c4.83,1.75,9.41,4,13.6,6.99
			c0.36,0.26,0.67,0.3,1.1,0.18c3.39-0.89,6.81-1.61,10.28-2.11c4.77-0.68,9.55-0.95,14.36-0.63c4.39,0.28,8.69,1.03,12.87,2.42
			c10.17,3.39,18,9.74,23.61,18.82c3.7,5.99,6,12.5,7.2,19.43c0.52,2.98,0.81,5.99,0.86,9.01c0.12,7.11-0.92,14.01-3.76,20.58
			c-0.99,2.27-2.39,4.29-3.8,6.3c-4.74,6.75-10.52,12.4-17.67,16.58c-4.64,2.73-9.56,4.75-14.89,5.63c-1.4,0.23-2.41,0.8-3.39,1.78
			c-5.69,5.62-11.44,11.17-17.16,16.75c-3.36,3.29-6.71,6.56-10.06,9.84c-1.74,1.7-3.49,3.38-5.22,5.1
			c-0.29,0.28-0.58,0.43-0.98,0.39c-0.16-0.03-0.34-0.01-0.51-0.01c-36.46,0-72.92,0-109.37,0.01c-0.77,0-1.35-0.16-1.93-0.75
			c-2.87-2.88-5.81-5.7-8.72-8.54c-5.36-5.23-10.72-10.45-16.08-15.69c-2.77-2.7-5.55-5.39-8.31-8.1c-0.32-0.32-0.64-0.47-1.11-0.48
			c-11.87-0.26-22.29-4.32-31.31-12c-4.99-4.24-8.92-9.34-12.03-15.09c-1.72-3.17-2.76-6.61-3.51-10.13
			c-0.67-3.21-1.02-6.47-1.08-9.75c-0.18-9.27,1.59-18.16,5.66-26.51c4.45-9.16,11.06-16.24,20.25-20.8
			c4.72-2.35,9.74-3.75,14.96-4.44c4.36-0.57,8.73-0.62,13.11-0.26c5.02,0.39,9.97,1.28,14.84,2.59c0.69,0.17,1.18,0.09,1.78-0.33
			c4.69-3.28,9.82-5.68,15.25-7.43c4.19-1.34,8.47-2.21,12.93-2.56c0.1-0.3,0.21-0.61,0.31-0.93c0.93-3.04,2.14-5.95,3.86-8.64
			c2.53-3.94,6.03-6.76,10.17-8.86c3.26-1.65,6.68-2.88,10.13-4.07c1.31-0.45,2.61-0.9,3.93-1.31c3.35-1.05,6.67-1.09,9.9,0.47
			c1.91,0.93,3.49,2.3,4.92,3.85c0.57,0.62,1.12,1.27,1.68,1.9c0.32,0.36,0.63,0.72,0.97,1.05c0.85,0.83,0.99,0.86,1.92,0.16
			c5.03-3.75,10.72-5.88,16.91-6.68c1.93-0.24,3.88-0.38,5.82-0.43c3.58-0.08,6.61,1.27,9.15,3.76
			C178.82,15.87,179.18,16.22,179.63,16.67z M135.32,52.73c-0.23-0.14-0.45-0.27-0.66-0.38c-1.86-1.03-3.67-2.13-5.57-3.07
			c-7.6-3.78-15.65-5.79-24.14-5.97c-5.09-0.12-10.09,0.45-15.03,1.62c-6.45,1.53-12.56,3.92-18.22,7.4
			C70.78,52.88,70,53,68.97,52.73c-4.88-1.24-9.84-2.02-14.88-2.27c-5.39-0.28-10.73,0.08-15.97,1.42
			c-12.08,3.13-20.96,10.2-26.25,21.55c-3.6,7.71-4.72,15.85-3.9,24.29c0.46,4.67,1.54,9.19,3.29,13.55
			c0.67,1.67,1.33,3.36,2.37,4.84c2.15,3.08,4.65,5.85,7.56,8.22c8.58,7,18.54,10.34,29.51,10.95c0.63,0.05,1.11,0.2,1.57,0.64
			c3.69,3.51,7.41,6.96,11.09,10.48c0.44,0.43,0.79,0.47,1.34,0.27c9.94-3.56,19.89-7.11,29.84-10.64
			c13.94-4.97,27.87-9.93,41.81-14.9c0.48-0.18,0.9-0.17,1.37,0c5.16,1.84,10.33,3.65,15.49,5.47c13.85,4.88,27.7,9.75,41.56,14.62
			c5.8,2.04,11.61,4.08,17.41,6.14c0.44,0.15,0.79,0.27,1.22-0.16c3.94-3.84,7.92-7.66,11.84-11.53c0.83-0.81,1.69-1.32,2.88-1.52
			c4.27-0.73,8.26-2.3,12.06-4.35c7.62-4.1,13.69-9.91,18.59-17c0.19-0.27,0.33-0.59,0.45-0.9c1.62-4.35,2.46-8.87,2.79-13.46
			c0.34-4.9,0.1-9.78-0.79-14.61c-0.91-4.91-2.42-9.63-4.78-14.06c-4.43-8.32-10.96-14.28-19.88-17.51
			c-5.71-2.06-11.63-2.7-17.67-2.49c-5.62,0.18-11.13,1.11-16.54,2.55c-1.26,0.33-2.21,0.23-3.37-0.45
			c-7.92-4.62-16.46-7.36-25.58-8.34c-4.75-0.49-9.48-0.42-14.2,0.24c-7.44,1.06-14.4,3.52-20.94,7.23
			C137.28,51.56,136.31,52.15,135.32,52.73z M68.04,150.94c0.39,0.39,0.72,0.73,1.06,1.07c4.49,4.44,9,8.9,13.48,13.35
			c0.39,0.39,0.7,0.51,1.25,0.33c8.95-2.99,17.9-5.95,26.85-8.92c8.74-2.9,17.47-5.79,26.21-8.72c0.57-0.19,1.07-0.17,1.63,0.02
			c2.43,0.82,4.88,1.62,7.32,2.42c15.56,5.11,31.12,10.22,46.67,15.35c0.71,0.23,1.16,0.14,1.71-0.38
			c4.11-3.96,8.27-7.87,12.41-11.79c0.92-0.89,1.83-1.76,2.81-2.7c-0.31-0.14-0.53-0.24-0.76-0.32c-7.32-2.61-14.63-5.2-21.95-7.8
			c-16.21-5.75-32.41-11.52-48.61-17.29c-0.63-0.23-1.17-0.21-1.79,0.01c-3.35,1.27-6.72,2.51-10.08,3.76
			c-19.11,7.09-38.23,14.18-57.34,21.28C68.64,150.69,68.39,150.81,68.04,150.94z M91.33,169.08c0.01,0.05,0.02,0.08,0.03,0.12
			c30.82,0,61.65,0,92.48,0c-0.19-0.19-0.41-0.28-0.64-0.36c-2.09-0.7-4.17-1.42-6.26-2.11c-12.99-4.34-25.98-8.67-38.95-13.04
			c-0.82-0.28-1.53-0.27-2.35,0.01c-13.76,4.79-27.53,9.56-41.29,14.32C93.33,168.37,92.33,168.74,91.33,169.08z M100.8,35.75
			c0.42,0,0.67,0.03,0.92,0c2.77-0.12,5.53-0.07,8.29,0.15c4.21,0.35,8.34,1.09,12.34,2.44c4.14,1.38,7.95,3.35,11.19,6.34
			c0.06,0.05,0.12,0.11,0.19,0.16c0.48,0.33,0.84,0.25,1.09-0.29c0.1-0.23,0.17-0.47,0.19-0.74c0.05-0.56,0.13-1.11,0.11-1.67
			c-0.16-4.51-1.26-8.76-3.29-12.77c-1.24-2.44-2.83-4.63-5.01-6.32c-3.28-2.55-6.97-3.54-11.06-2.7c-2.79,0.58-5.13,2.04-7.2,3.94
			c-2.81,2.57-4.9,5.66-6.62,9.04C101.56,34.09,101.23,34.86,100.8,35.75z M138.24,43.77c0.33-0.17,0.46-0.22,0.57-0.29
			c4.13-2.73,8.61-4.71,13.35-6.12c6.08-1.81,12.27-2.5,18.59-1.78c0.89,0.11,1.07-0.08,0.89-0.97c-0.06-0.32-0.13-0.61-0.26-0.9
			c-0.64-1.41-1.21-2.87-1.97-4.2c-1.61-2.86-3.65-5.37-6.37-7.27c-3.45-2.41-7.18-3-11.19-1.67c-4.89,1.62-8.44,4.8-10.73,9.39
			c-1.51,3.02-2.31,6.23-2.65,9.57C138.32,40.87,138.32,42.22,138.24,43.77z"/>
	</g>
	<g>
		<path class="st0" d="M85.02,3.94c0.83-0.83,1.57-1.57,2.37-2.36c5.09,5.15,10.16,10.3,15.29,15.51c-0.68,0.67-1.29,1.29-1.9,1.91
			c-0.13,0.14-0.29,0.25-0.49,0.42C95.2,14.25,90.14,9.11,85.02,3.94z"/>
	</g>
	<g>
		<path class="st0" d="M86.87,10.81c4.7,4.66,9.31,9.23,13.84,13.73c-0.79,0.8-1.55,1.57-2.21,2.24c-4.55-4.52-9.17-9.1-13.85-13.75
			c0.35-0.36,0.73-0.74,1.1-1.11C86.13,11.56,86.51,11.18,86.87,10.81z"/>
	</g>
	<g>
		<path class="st0" d="M98.59,31.34c-0.72,0.72-1.45,1.45-2.14,2.13c-4.58-4.58-9.19-9.19-13.73-13.72
			c0.67-0.68,1.42-1.44,2.12-2.14C89.35,22.12,93.96,26.71,98.59,31.34z"/>
	</g>
	<g>
		<path class="st0" d="M154.9,9.79c0.26-0.48,0.5-0.84,0.66-1.22c0.27-0.66,0.15-1.04-0.42-1.49c-0.43-0.33-0.88-0.61-1.32-0.92
			c-0.97-0.71-1-1.22-0.07-2c0.13-0.11,0.27-0.18,0.37-0.25c0.26,0.28,0.44,0.57,0.71,0.78c0.47,0.37,0.99,0.67,1.45,1.02
			c0.72,0.55,0.83,1.05,0.39,1.84c-0.44,0.79-0.92,1.55-1.4,2.35c0.18,0.17,0.34,0.31,0.58,0.52c-0.46,0.39-0.9,0.77-1.41,1.19
			c-1.48-0.89-2.94-1.77-4.5-2.72c0.52-0.42,0.97-0.78,1.5-1.2C152.55,8.38,153.68,9.06,154.9,9.79z"/>
	</g>
	<g>
		<path class="st0" d="M118.7,11.52c-0.5-1.19-0.46-1.47,0.28-2.21c-0.16-0.78-0.89-1.4-0.64-2.28c-1.21-0.23-1.44-0.58-1.3-1.97
			c0.43,0.3,0.83,0.15,1.23-0.06c0.69-0.36,1.41-0.71,2.12-1.04c0.8-0.37,1.28-0.28,1.76,0.43c0.7,1.03,1.36,2.07,1.99,3.14
			c0.24,0.39,0.48,0.83,0.07,1.42c-0.16-0.24-0.29-0.4-0.39-0.59c-0.36-0.72-0.71-1.47-1.08-2.19c-0.45-0.85-0.78-0.94-1.64-0.52
			c-0.66,0.3-1.32,0.63-1.97,0.96c-0.65,0.32-0.76,0.66-0.37,1.28c0.28,0.45,0.64,0.86,0.97,1.27c0.98,1.22,0.93,1.47-0.5,2.13
			C119.06,11.37,118.88,11.45,118.7,11.52z"/>
	</g>
	<g>
		<path class="st0" d="M129.48,3.05c0.35,0.79,0.69,1.53,1.02,2.28c0.25,0.59,0.25,1.17-0.08,1.92c-0.41-0.76-0.47-1.45-0.66-2.11
			c-0.2-0.65-0.36-1.3-0.57-2.04c-0.46,0.09-0.89,0.18-1.31,0.28c-0.69,0.16-1.37,0.32-2.06,0.49c-0.59,0.16-0.65,0.25-0.52,0.83
			c0.16,0.72,0.33,1.42,0.5,2.14c0.12,0.52,0.06,1-0.27,1.45c-0.56-1-0.82-3.01-0.57-3.98c-0.31-0.38-0.69-0.67-0.82-1.03
			c-0.12-0.36,0.01-0.81,0.02-1.18c0.5,0,0.92,0.06,1.3-0.01c1.05-0.22,2.08-0.5,3.12-0.76c0.44-0.12,0.84-0.18,1.12,0.27
			c0.27,0.45,0.26,0.87-0.1,1.25C129.57,2.9,129.54,2.96,129.48,3.05z"/>
	</g>
	<g>
		<path class="st0" d="M137.12,2.57c-0.23,0.67-0.11,1.31,0.15,2.12c0.46-0.48,0.84-0.89,1.23-1.29c0.03,0.03,0.07,0.06,0.1,0.09
			c-0.28,0.36-0.56,0.72-0.94,1.21c0.94,0.08,1.76,0.14,2.59,0.19c0.15,0.01,0.35-0.07,0.46-0.17c0.53-0.48,1.08-0.96,1.45-1.57
			c-0.89-1.49-0.84-1.78,0.33-2.69c0.25,0.32,0.48,0.64,0.73,0.94c0.45,0.54,0.46,1.06-0.12,1.44c-1.11,0.77-1.7,1.84-2.12,3.08
			c-0.26,0.76-0.37,0.82-1.17,0.76c-1-0.06-2.01-0.14-3.04-0.22c-0.22-1.05-0.22-2.06-0.15-3.07c0.02-0.29,0.03-0.75,0.53-0.81
			L137.12,2.57z"/>
	</g>
	<g>
		<path class="st0" d="M149.9,4.68c-0.13,0.88-0.25,1.77-0.41,2.65c-0.12,0.63-0.3,0.82-1.08,1.25c0.43-1.44,0.82-2.75,1.24-4.16
			c-0.66-0.21-1.27-0.41-1.89-0.6c-0.62-0.19-1.24-0.36-1.85-0.58c-0.66-0.24-0.8-0.54-0.54-1.16c0.16-0.37,0.42-0.7,0.6-0.98
			c0.39,0.24,0.66,0.47,0.97,0.57c1.01,0.35,2.03,0.65,3.06,0.96c0.72,0.22,0.88,0.36,0.86,0.83c-0.03,0.55-0.21,1-0.82,1.12
			C149.99,4.58,149.96,4.64,149.9,4.68z"/>
	</g>
	<g>
		<path class="st0" d="M132.66,0.44c0.45,0.17,0.82,0.32,1.17,0.47c0.6,0.23,0.84,0.54,0.68,1.08c-0.27,0.9-0.03,1.69,0.34,2.45
			c0.35,0.71,0.22,1.4,0.16,2.1c-0.06,0.02-0.12,0.03-0.18,0.06c-0.15-0.41-0.3-0.85-0.51-1.45c-0.21,0.64-0.35,1.09-0.52,1.59
			c-0.61,0.07-1.22,0.14-1.96,0.21c0.14-0.63,0.26-1.18,0.41-1.8c0.63-0.1,1.26-0.19,1.97-0.29c0-0.26,0-0.51,0-0.74
			c0-1.42-0.07-1.31-1.13-1.57c-0.78-0.2-0.96-0.57-0.73-1.33C132.42,0.94,132.56,0.69,132.66,0.44z"/>
	</g>
	<g>
		<path class="st0" d="M140.22,3.21c-0.24-0.24-0.42-0.44-0.65-0.67c-0.24,0.23-0.47,0.43-0.69,0.63c-0.02-0.01-0.05-0.03-0.07-0.05
			c0.15-0.24,0.31-0.48,0.46-0.72c-0.54-1-0.45-1.36,0.53-2.3c0.28,0.33,0.56,0.65,0.85,0.97c0.51,0.58,0.53,0.78,0.11,1.4
			C140.61,2.7,140.43,2.92,140.22,3.21z"/>
	</g>
	<g>
		<path class="st0" d="M137.15,2.59c-0.08-0.14-0.12-0.36-0.23-0.42c-0.77-0.41-0.65-1.03-0.41-1.66c0.06-0.16,0.11-0.32,0.18-0.5
			c0.36,0.18,0.69,0.36,1.02,0.52c0.65,0.32,0.83,0.65,0.66,1.36c-0.07,0.29-0.17,0.58-0.27,0.87c-0.35-0.11-0.59-0.58-0.98-0.17
			L137.15,2.59z"/>
	</g>
	<g>
		<path class="st0" d="M145.44,4.28c-0.18,0.78-0.38,1.55-0.71,2.28c-0.14,0.32-0.27,0.36-0.87,0.5c0.29-0.83,0.54-1.62,0.86-2.39
			c0.09-0.21,0.36-0.34,0.55-0.51C145.32,4.2,145.38,4.24,145.44,4.28z"/>
	</g>
	<g>
		<path class="st0" d="M62.8,76.32c0.03-0.28,0.07-0.54,0.07-0.78c0.04-1.11,0.07-2.2,0.08-3.3c0.01-0.76,0-1.52-0.03-2.29
			c-0.09-1.67,0.5-3.09,1.45-4.41c0.04-0.05,0.07-0.14,0.11-0.19c-0.05-0.08-0.06-0.14-0.1-0.16c-0.73-0.43-1.26-1.02-1.51-1.86
			c-0.31-1.08-0.42-2.15-0.13-3.25c0.14-0.57,0.44-1.04,0.92-1.4c0.44-0.3,0.77-0.25,1.02,0.26c0.33,0.7,0.9,0.87,1.59,0.87
			c1.53,0.01,3.06-0.03,4.58,0.03c0.98,0.04,1.98,0.14,2.92,0.39c1.86,0.54,3.02,1.82,3.46,3.71c0.12,0.52,0.16,1.06,0.17,1.6
			c0.03,1.84,0,3.69,0.02,5.5c0.01,0.87-0.21,1.59-0.8,2.25c-0.75,0.85-1.42,1.76-2.11,2.65c-0.22,0.3-0.45,0.47-0.84,0.47
			c-3.5-0.01-7.01,0-10.51-0.02C63.08,76.39,63,76.36,62.8,76.32z M76.13,70.76c0.1-0.3,0.19-0.48,0.22-0.67
			c0.21-1.44-1.09-3.77-2.41-4.35c-0.11-0.06-0.21-0.09-0.33-0.11c-1.04-0.26-2.1-0.41-3.18-0.34c-1.24,0.08-2.48,0.12-3.72,0.17
			c-0.27,0.03-0.55,0.04-0.82,0.05c-0.67,1.37-0.92,2.77-0.8,4.24c0.07,0.93,0.2,1,1.09,1.01c0.06,0,0.12,0,0.17,0
			c2.96,0,5.93,0,8.89,0C75.52,70.76,75.8,70.76,76.13,70.76z"/>
	</g>
	<g>
		<path class="st0" d="M186.47,67.63c1.21,1.02,2.4,1.98,3.55,2.97c0.36,0.31,0.67,0.69,0.98,1.04c1.25,1.47,0.52,3.92-1.41,4.44
			c-0.67,0.18-1.39,0.3-2.09,0.3c-3.42,0.04-6.84,0.02-10.26,0.02c-0.13,0-0.26-0.05-0.48-0.06c0.09-0.23,0.14-0.41,0.23-0.58
			c0.62-1.24,1.28-2.46,1.87-3.71c0.44-0.91,1.11-1.36,2.15-1.31c1.08,0.05,2.15,0.01,3.22,0.01c0.24,0,0.48-0.03,0.75-0.17
			c-0.24-0.12-0.49-0.23-0.71-0.36c-0.55-0.33-1.14-0.63-1.65-1.02c-0.74-0.59-1.14-1.38-0.97-2.39c0.04-0.19,0.05-0.39,0.04-0.6
			c-0.02-0.67-0.37-1-1.05-1.05c-0.9-0.05-1.81-0.1-2.7-0.23c-0.59-0.1-1.2-0.32-1.76-0.57c-0.57-0.26-0.88-0.79-0.91-1.42
			c-0.05-1.06,0.08-2.1,0.47-3.08c0.2-0.52,0.47-1.02,1.15-1.25c0.13,0.21,0.29,0.41,0.36,0.63c0.15,0.48,0.47,0.65,0.93,0.71
			c0.93,0.12,1.84,0.32,2.77,0.38c1.83,0.13,2.32,1.49,2.22,2.88c-0.04,0.63-0.11,1.24-0.23,1.84c-0.15,0.72,0.09,1.23,0.69,1.58
			c0.45,0.27,0.93,0.5,1.45,0.79c0.65-0.83,1.08-1.67,1.35-2.59c0.11-0.41-0.08-0.69-0.39-0.86c-0.88-0.48-1.21-1.24-1.11-2.19
			c0.12-1.11,0.53-2.1,1.45-2.78c0.54-0.39,0.83-0.28,1.26,0.25c0.26,0.33,0.59,0.61,0.94,0.81c0.63,0.36,1.33,0.62,1.97,0.98
			c1.81,1.03,1.75,2.63,0.89,4.33c-0.4,0.81-1.14,0.93-1.94,0.52c-0.35-0.17-0.7-0.37-1.05-0.56c-0.34-0.18-0.63-0.15-0.89,0.19
			C187.21,65.93,186.66,66.96,186.47,67.63z"/>
	</g>
	<g>
		<path class="st0" d="M114.52,70.87c-0.52,1.84-1.03,3.63-1.55,5.48c-2.39,0-4.71,0-7.12,0c0.05-0.23,0.06-0.42,0.13-0.6
			c0.55-1.45,1.1-2.9,1.67-4.35c0.25-0.64,0.26-0.64,0.99-0.65c0.48,0,0.96,0,1.44,0c-0.09-0.62-0.23-1.15-0.27-1.7
			c-0.07-0.87,0.15-1.67,0.68-2.4c0.3-0.41,0.56-0.84,0.83-1.25c-0.05-0.08-0.07-0.15-0.11-0.18c-1-0.53-1.53-1.39-1.67-2.5
			c-0.17-1.28-0.15-2.54,0.6-3.68c0.08-0.11,0.17-0.22,0.28-0.31c0.34-0.32,0.65-0.33,0.82,0.08c0.4,0.96,1.15,1.02,2.01,1.02
			c2.26-0.01,4.52,0.01,6.78,0.06c0.7,0.01,1.42,0.1,2.09,0.3c1.33,0.4,2.3,1.2,2.52,2.67c0.37,2.36,0.76,4.73,1.09,7.11
			c0.17,1.2,0.25,2.41,0.36,3.62c0.09,1.02-0.29,1.88-0.79,2.72c-0.12,0.2-0.35,0.38-0.56,0.48c-0.44,0.2-0.86-0.02-0.97-0.5
			c-0.08-0.39-0.12-0.78-0.1-1.18c0.08-2.11,0.2-4.23,0.29-6.35c0.02-0.45,0.07-0.9,0.04-1.35c-0.06-0.96-0.59-1.58-1.53-1.77
			c-0.58-0.12-1.17-0.18-1.76-0.19c-2.29-0.03-4.58,0.01-6.87-0.03c-0.56-0.01-0.89,0.23-1.16,0.68c-0.96,1.52-0.79,2.99,0.4,4.23
			C113.47,70.76,113.97,70.7,114.52,70.87z"/>
	</g>
	<g>
		<path class="st0" d="M135.79,76.32c0.57-0.83,1.06-1.54,1.55-2.27c0.59-0.86,1.2-1.71,1.75-2.6c0.32-0.51,0.69-0.71,1.31-0.71
			c2.43,0.04,4.86,0.01,7.29,0.01c0.31,0,0.62,0,0.97,0c0.04-0.25,0.09-0.43,0.09-0.62c0.01-0.9,0.02-1.8,0-2.7
			c-0.02-0.98-0.46-1.52-1.41-1.76c-0.9-0.23-1.82-0.32-2.76-0.27c-1.38,0.09-2.76,0.13-4.15,0.1c-1.87-0.03-2.9-1-3.2-2.85
			c-0.14-0.87-0.22-1.76,0.04-2.6c0.15-0.47,0.41-0.94,0.74-1.3c0.38-0.41,0.78-0.36,1.03,0.14c0.37,0.77,1.01,0.91,1.75,0.91
			c1.61,0,3.22,0.04,4.84-0.01c1.46-0.05,2.54,0.63,3.49,1.62c0.5,0.54,0.6,1.27,0.67,1.97c0.09,0.93,0.13,1.86,0.15,2.79
			c0.02,1.1,0,2.21,0.01,3.3c0,1.25,0.21,1.43,1.44,1.22c0.36-0.06,0.72-0.16,1.08-0.19c0.49-0.03,0.69,0.21,0.58,0.68
			c-0.05,0.21-0.17,0.41-0.29,0.59c-0.87,1.36-1.76,2.69-2.63,4.05c-0.24,0.37-0.5,0.56-0.96,0.56c-4.29-0.01-8.59,0-12.88,0
			C136.18,76.41,136.07,76.36,135.79,76.32z"/>
	</g>
	<g>
		<path class="st0" d="M236.44,70.57c0.55,0.27,1.05,0.19,1.55,0.1c0.31-0.07,0.61-0.15,0.92-0.16c0.49-0.01,0.71,0.31,0.55,0.79
			c-0.06,0.19-0.19,0.34-0.29,0.5c-0.8,1.23-1.66,2.43-2.38,3.7c-0.42,0.74-0.93,0.92-1.71,0.92c-3.93-0.05-7.86-0.02-11.78-0.02
			c-0.3,0-0.6,0-1.03,0c0.17-0.32,0.25-0.52,0.37-0.7c0.98-1.44,1.99-2.88,2.95-4.35c0.3-0.45,0.63-0.62,1.17-0.62
			c2.46,0.03,4.92,0.01,7.38,0.01c0.3,0,0.61,0,0.99,0c0-1.31,0.04-2.55-0.02-3.78c-0.03-0.64-0.5-1.1-1.13-1.23
			c-0.85-0.18-1.72-0.33-2.58-0.34c-1.44-0.03-2.88,0.1-4.32,0.1c-2.09,0-3.18-0.92-3.43-2.98c-0.1-0.87-0.01-1.79,0.13-2.68
			c0.05-0.41,0.38-0.81,0.69-1.11c0.36-0.37,0.76-0.33,0.97,0.12c0.4,0.85,1.1,0.96,1.9,0.96c1.61-0.01,3.22,0.03,4.83-0.02
			c1.43-0.03,2.5,0.67,3.39,1.66c0.32,0.36,0.47,0.9,0.56,1.39c0.15,0.77,0.21,1.57,0.23,2.35c0.04,1.42,0,2.83,0.02,4.24
			C236.35,69.83,236.41,70.21,236.44,70.57z"/>
	</g>
	<g>
		<path class="st0" d="M48.99,72.47c-1.2-1-1.68-2.24-1.56-3.72c0.12-1.44,1.12-2.43,1.82-3.57c-0.06-0.1-0.09-0.19-0.15-0.23
			c-1.84-1.34-1.58-4.32-0.52-5.68c0.15-0.19,0.33-0.4,0.54-0.53c0.56-0.41,0.87-0.32,1.13,0.36c0.16,0.43,0.43,0.63,0.88,0.65
			c0.96,0.02,1.92,0.05,2.88,0.06c1.36,0.01,2.72,0,4.07,0.01c2.06,0,3.2,1.07,3.34,3.13c0.19,2.79,0.36,5.58,0.53,8.37
			c0.19,3.14,0.38,6.26,0.58,9.38c0.04,0.52-0.03,1.02-0.3,1.47c-0.32,0.51-0.89,0.74-1.47,0.58c-0.36-0.1-0.61-0.32-0.67-0.69
			c-0.06-0.45-0.14-0.89-0.11-1.35c0.24-3.54,0.51-7.09,0.75-10.63c0.05-0.76,0.07-1.53,0.03-2.29c-0.08-1.49-0.79-2.27-2.26-2.32
			c-2.26-0.06-4.52-0.03-6.78,0.03c-0.95,0.02-1.73,0.86-1.84,1.8c-0.05,0.52,0.15,1,0.63,1.18c0.47,0.17,0.97,0.28,1.47,0.33
			c0.64,0.06,1.3,0,1.94,0.03c0.84,0.06,1.17,0.36,1.26,1.2c0.08,0.67,0.08,1.35,0.1,2.02c0.02,0.43-0.21,0.7-0.66,0.72
			c-0.68,0.03-1.35,0.05-2.03,0.06c-0.17,0-0.35,0.03-0.51,0c-1.29-0.19-2.32,0.21-3.07,1.3c-0.1,0.14-0.25,0.24-0.38,0.34
			c-0.28,0.22-0.54,0.06-0.77-0.1c-0.27-0.22-0.14-0.47,0.03-0.67C48.24,73.3,48.58,72.94,48.99,72.47z"/>
	</g>
	<g>
		<path class="st0" d="M214.84,100.36c0.1,0.37,0.24,0.65,0.25,0.94c0.04,0.72,0.29,1.34,0.78,1.83c1.24,1.25,2.5,2.46,3.75,3.68
			c0.1,0.1,0.23,0.14,0.35,0.21c0.45-0.75,0.47-0.85-0.05-1.44c-0.54-0.63-0.89-1.29-0.81-2.14c0.09-1.02,0.43-1.92,1.04-2.74
			c0.05-0.06,0.12-0.12,0.19-0.16c0.07-0.05,0.16-0.06,0.25-0.08c0.29,0.41,0.56,0.84,0.89,1.2c0.33,0.34,0.74,0.6,1.1,0.92
			c0.79,0.69,1.07,1.6,0.93,2.59c-0.1,0.73-0.3,1.44-0.58,2.11c-0.21,0.53-0.48,0.53-0.9,0.15c-0.11-0.09-0.19-0.2-0.3-0.29
			c-0.25-0.23-0.5-0.39-0.81-0.1c-0.31,0.29-0.27,0.57,0.03,0.94c0.61,0.73,1.23,1.47,1.78,2.26c0.7,1,0.98,2.13,0.89,3.36
			c-0.09,1.33-0.43,2.56-0.99,3.74c-0.15,0.32-0.39,0.63-0.66,0.87c-0.26,0.24-0.54,0.08-0.61-0.27c-0.03-0.17-0.02-0.33-0.01-0.5
			c0.09-1.33-0.41-2.42-1.29-3.39c-0.69-0.74-1.39-1.49-2.09-2.22c-0.51-0.53-1.01-1.07-1.53-1.58c-0.29-0.3-0.62-0.55-0.95-0.83
			c-0.46,0.76-0.38,1.89,0.18,2.67c0.43,0.59,0.9,1.15,1.34,1.73c0.6,0.8,0.95,1.67,0.9,2.68c-0.05,0.76-0.35,1.29-1.11,1.4
			c-1,0.15-2.02,0.14-3.03,0.14c-0.39,0-0.55-0.42-0.25-0.66c0.76-0.59,0.59-1.27,0.31-1.98c-0.46-1.18-0.79-2.38-0.42-3.63
			c0.22-0.75,0.5-1.51,0.86-2.21c0.37-0.7,0.33-1.26-0.12-1.93c-1.3-2-1.28-4.09-0.31-6.21
			C214.11,100.83,214.14,100.83,214.84,100.36z"/>
	</g>
	<g>
		<path class="st0" d="M163.93,108.3c-0.5-0.28-0.84-0.48-1.25-0.72c-0.15,0.7-0.07,1.27,0.19,1.8c0.72,1.38,0.88,2.83,0.7,4.36
			c-0.04,0.38,0.05,0.77,0.08,1.32c1.07-0.7,2.01-1.29,2.92-1.93c0.18-0.14,0.3-0.42,0.34-0.65c0.22-1.36,0.41-2.74,0.6-4.1
			c0.07-0.48-0.16-0.9-0.49-1.22c-0.77-0.74-1.2-1.62-1.28-2.68c-0.09-1.23,0.24-2.35,0.9-3.37c0.17-0.27,0.44-0.48,0.71-0.78
			c0.13,0.21,0.24,0.32,0.25,0.44c0.06,0.4,0.3,0.64,0.63,0.83c1.04,0.61,1.51,1.55,1.62,2.72c0.08,0.91,0.02,1.8-0.35,2.66
			c-0.12,0.28-0.26,0.61-0.48,0.79c-0.72,0.53-0.85,1.31-0.9,2.1c-0.1,1.69-0.13,3.38-0.18,5.08c-0.02,0.36-0.03,0.73-0.04,1.09
			c-0.05,1.73-0.89,2.96-2.35,3.85c-1.74,1.05-3.46,2.13-5.19,3.21c-0.38,0.23-0.75,0.48-1.2,0.78c-0.15-0.94-0.05-1.86-0.01-2.75
			c0.02-0.34,0.1-0.67,0.15-1c0.22-1.76,1.16-3.05,2.64-3.94c0.67-0.4,0.84-0.93,0.73-1.61c-0.09-0.58-0.22-1.16-0.38-1.73
			c-0.15-0.54-0.36-1.07-0.53-1.59c-0.28-0.89-0.37-1.77-0.13-2.67c0.09-0.35,0.12-0.72,0.17-1.1c-1.64-1.22-2.12-2.9-2-4.79
			c0.04-0.66,0.25-1.33,0.51-1.95c0.26-0.64,0.58-0.62,1.03-0.09c0.15,0.19,0.35,0.39,0.56,0.47c1.71,0.54,2.91,2.86,2.6,4.68
			C164.4,106.61,164.15,107.42,163.93,108.3z"/>
	</g>
	<g>
		<path class="st0" d="M218.21,65.45c0.12,1.12,0.21,2.1,0.32,3.07c0.2,1.75,0.38,3.48,0.63,5.22c0.17,1.19-0.44,2.07-1.12,2.9
			c-0.34,0.41-0.81,0.26-0.93-0.28c-0.07-0.32-0.09-0.67-0.09-1.01c0-2.97,0-5.93,0-8.9c0-0.3,0-0.61,0-1.03c-0.38,0-0.68,0-0.98,0
			c-2.18,0-4.35,0-6.53,0c-0.31,0-0.62-0.01-0.93-0.05c-1.48-0.25-2.45-1.09-2.83-2.55c-0.24-0.92-0.28-1.84-0.02-2.77
			c0.11-0.37,0.29-0.75,0.53-1.04c0.52-0.66,0.93-0.64,1.34,0.08c0.37,0.65,0.93,0.75,1.57,0.75c3.14-0.01,6.28-0.01,9.42,0
			c0.39,0,0.79,0.01,1.18,0.08c0.93,0.16,1.57,0.7,1.74,1.63c0.13,0.77,0.13,1.56,0.09,2.35c-0.05,0.81-0.57,1.25-1.34,1.42
			c-0.33,0.06-0.67,0.06-1.01,0.1C218.96,65.42,218.65,65.44,218.21,65.45z"/>
	</g>
	<g>
		<path class="st0" d="M96.2,100.36c0.12,0.19,0.19,0.27,0.23,0.37c0.4,0.98,0.4,0.98,1.49,0.98c0.73,0,1.47,0,2.2,0.03
			c1.45,0.05,2.43,0.74,3.02,2.07c0.4,0.9,0.59,1.82,0.59,2.79c0.02,2.33,0.02,4.69-0.01,7.02c0,0.41-0.16,0.83-0.33,1.21
			c-0.46,1.05-0.97,2.11-1.46,3.19c-2.15,0-4.29,0-6.54,0c0-0.32,0-0.61,0-0.9c0-1.39,0-2.77,0.01-4.16c0-1.51-0.02-3.05,0.48-4.53
			c0.14-0.41,0.3-0.83,0.45-1.29c-1.19-1.46-1.19-3.21-1.03-4.97C95.36,101.54,95.49,100.85,96.2,100.36z M102.99,112.58
			c0.06-0.39,0.15-0.72,0.16-1.05c0.04-1.16-0.35-2.22-0.84-3.25c-0.3-0.61-0.79-0.95-1.43-1.07c-1.26-0.22-2.5,0.07-3.71,0.15
			c-0.47,1.49-0.51,2.9-0.46,4.31c0.03,0.8,0.13,0.89,0.97,0.91c1.47,0.01,2.94,0,4.4,0C102.37,112.58,102.65,112.58,102.99,112.58z
			"/>
	</g>
	<g>
		<path class="st0" d="M67.5,118.01c0.49-1.64,0.94-3.18,1.42-4.72c0.16-0.5,0.51-0.76,1.1-0.72c0.58,0.04,1.18,0.01,1.78,0.01
			c0.15,0,0.3-0.04,0.61-0.06c-0.3-0.26-0.47-0.44-0.65-0.59c-1.07-0.89-1.6-2.02-1.43-3.42c0.03-0.23,0.04-0.46,0.02-0.69
			c-0.07-0.61-0.22-0.72-0.86-0.8c-0.52-0.06-1.05-0.17-1.56-0.34c-0.67-0.21-1.13-0.7-1.19-1.4c-0.12-1.38-0.08-2.77,0.39-4.09
			c0.08-0.21,0.24-0.4,0.43-0.71c0.12,0.27,0.22,0.38,0.23,0.5c0.05,0.71,0.49,0.94,1.12,1.02c0.36,0.04,0.71,0.19,1.07,0.27
			c0.64,0.13,1.01,0.56,1.1,1.14c0.11,0.72,0.13,1.46,0.14,2.19c0.01,0.51-0.08,1.02-0.1,1.51c-0.04,0.98,0.23,1.44,1.21,2.01
			c0.46-0.85,0.71-1.76,0.75-2.71c0.02-0.25-0.19-0.53-0.37-0.74c-0.3-0.36-0.42-0.78-0.45-1.25c-0.04-0.96,0.02-1.91,0.42-2.81
			c0.16-0.36,0.31-0.74,0.71-0.85c0.09,0.03,0.17,0.04,0.19,0.06c0.28,0.82,0.9,1.32,1.55,1.83c0.94,0.74,1.32,1.73,1.15,2.93
			c-0.05,0.36-0.05,0.74-0.12,1.09c-0.11,0.68-0.26,0.91-0.89,1.35c-0.39-0.3-0.8-0.61-1.27-0.98c-0.5,0.73-0.7,1.5-0.82,2.3
			c-0.03,0.19,0.18,0.44,0.32,0.65c0.59,0.86,1.22,1.7,1.8,2.57c0.7,1.06,0.97,2.21,0.72,3.47c-0.21,1.05-0.79,2.08-2.37,2.06
			c-1.84-0.03-3.67-0.01-5.51-0.01C67.97,118.06,67.8,118.04,67.5,118.01z"/>
	</g>
	<g>
		<path class="st0" d="M144.71,117.92c0.69-1.74,1.38-3.49,2.11-5.33c1.72,0,3.46,0,5.31,0c0-0.6,0-1.1,0-1.6
			c0-0.64,0.03-1.29-0.02-1.94c-0.09-1.29-0.94-1.95-2.24-1.82c-0.75,0.07-1.52,0.09-2.27,0.13c-0.9,0.05-1.46-0.4-1.74-1.19
			c-0.19-0.56-0.33-1.16-0.36-1.73c-0.04-0.92,0-1.85,0.08-2.78c0.05-0.45,0.17-0.94,0.76-1.23c0.11,0.23,0.22,0.41,0.28,0.61
			c0.15,0.47,0.47,0.66,0.95,0.66c0.77-0.01,1.53,0.05,2.29-0.01c1.45-0.12,2.34,0.92,2.64,2.15c0.25,1,0.29,2.07,0.33,3.1
			c0.05,1.52,0.02,3.05,0.02,4.57c0,0.28,0,0.57,0,0.79c0.57,0.54,1.07-0.09,1.61,0.03c0.28,0.35,0.19,0.73,0.05,1.1
			c-0.52,1.4-1.06,2.8-1.58,4.2c-0.11,0.29-0.28,0.45-0.62,0.45c-2.45-0.01-4.91-0.01-7.37-0.02
			C144.89,118.04,144.83,117.99,144.71,117.92z"/>
	</g>
	<g>
		<path class="st0" d="M179.87,117.94c0.71-1.78,1.41-3.54,2.12-5.35c1.74,0,3.45,0,5.2,0c0.04-0.23,0.09-0.39,0.09-0.54
			c0.01-0.98-0.01-1.93,0-2.88c0.02-1.46-0.85-1.97-2.29-1.93c-0.76,0.01-1.52,0.07-2.28,0.11c-0.82,0.05-1.35-0.38-1.65-1.08
			c-0.18-0.44-0.33-0.92-0.36-1.38c-0.06-0.95-0.07-1.91-0.02-2.87c0.03-0.58,0.15-1.18,0.79-1.62c0.13,0.25,0.26,0.45,0.33,0.67
			c0.14,0.45,0.45,0.62,0.9,0.62c0.73,0,1.46,0,2.2,0c1.58,0.01,2.61,0.85,2.86,2.42c0.13,0.89,0.19,1.8,0.21,2.69
			c0.04,1.53,0.01,3.06,0.01,4.58c0,0.2-0.01,0.4,0.01,0.59c0.06,0.49,0.25,0.63,0.74,0.53c0.14-0.05,0.27-0.1,0.4-0.14
			c0.52-0.14,0.7-0.01,0.66,0.51c-0.02,0.23-0.09,0.45-0.16,0.65c-0.49,1.32-1.02,2.63-1.49,3.96c-0.15,0.39-0.33,0.6-0.78,0.6
			c-2.4-0.03-4.81-0.02-7.21-0.03C180.1,118.05,180.05,118.01,179.87,117.94z"/>
	</g>
	<g>
		<path class="st0" d="M87.19,116.42c-0.87-0.99,0.28-1.51,0.23-2.31c-1.38-2.35-0.87-4.75,0.26-7.07c-1.27-2.37-1.08-5.84,0.36-6.6
			c0.07,0.14,0.16,0.28,0.21,0.43c0.22,0.77,0.22,0.78,1.04,0.8c1.05,0,2.1-0.01,3.14,0c1.11,0.01,1.81,0.55,2.05,1.64
			c0.13,0.58,0.18,1.17,0.2,1.76c0.17,4.2,0.33,8.4,0.49,12.61c0.05,1.56,0.13,3.1,0.16,4.66c0.01,0.41-0.05,0.85-0.14,1.26
			c-0.13,0.55-0.41,0.82-0.75,0.75c-0.46-0.07-0.55-0.45-0.57-0.83c-0.03-0.45-0.05-0.91-0.04-1.35c0.15-3.84,0.32-7.67,0.47-11.51
			c0.02-0.67-0.04-1.36-0.14-2.02c-0.14-0.97-0.64-1.38-1.62-1.4c-0.96-0.02-1.92-0.01-2.88-0.01c-0.55,0.01-1.06,0.11-1.31,0.73
			c-0.28,0.69-0.52,1.42-0.08,2.1c0.17,0.25,0.59,0.41,0.92,0.48c0.32,0.08,0.68,0.02,1.02,0.04c0.46,0.03,0.78,0.27,0.82,0.71
			c0.06,0.92,0.09,1.86,0.08,2.8c0,0.38-0.37,0.46-0.69,0.49c-0.51,0.02-1.02,0.03-1.53,0c-0.46-0.03-0.74,0.15-0.95,0.54
			S87.51,115.91,87.19,116.42z"/>
	</g>
	<g>
		<path class="st0" d="M44.37,97.05c0.54,0.84,0.52,1.66,0.12,2.45c-0.36,0.7-1.04,0.94-1.79,0.86c-0.87-0.08-1.73-0.25-2.59-0.38
			c-0.22-0.03-0.45-0.08-0.67-0.06c-0.54,0.05-0.83,0.36-0.83,0.87c0,0.57,0.2,0.81,0.8,0.89c0.23,0.03,0.45,0.03,0.68,0.03
			c0.96,0.01,1.92,0,2.88,0.01c0.89,0,1.27,0.3,1.33,1.18c0.12,2.04,0.1,4.07-0.42,6.05c-0.22,0.87-0.72,1.65-1.17,2.43
			c-0.34,0.61-0.78,1.17-1.21,1.73c-0.48,0.61-0.65,1.3-0.63,2.06c0.01,0.43,0.02,0.85,0,1.27c-0.02,0.33-0.05,0.67-0.11,1.01
			c-0.06,0.36-0.27,0.65-0.65,0.69c-0.42,0.03-0.69-0.26-0.8-0.63c-0.23-0.8-0.23-1.64,0.06-2.42c0.28-0.72,0.65-1.43,1.08-2.09
			c0.52-0.8,1.15-1.53,1.74-2.3c0.58-0.73,0.84-1.59,0.94-2.5c0.07-0.72-0.1-0.91-0.84-0.93c-1.27-0.02-2.54-0.01-3.81-0.01
			c-1.22-0.01-1.55-0.33-1.56-1.55c-0.01-1.86-0.01-3.72,0.01-5.59c0.01-0.44,0.06-0.85,0.16-1.27c0.19-0.75,0.77-1.16,1.55-1.18
			c0.74-0.03,1.36,0.3,1.98,0.67c0.36,0.23,0.7,0.48,1.07,0.69c0.64,0.34,0.92,0.27,1.08-0.41C42.94,97.75,43.55,97.39,44.37,97.05z
			"/>
	</g>
	<g>
		<path class="st0" d="M231.61,100.46c0.09,0.08,0.16,0.11,0.17,0.16c0.17,0.95,0.79,1.14,1.68,1.11c1.77-0.06,3.55-0.02,5.33-0.01
			c1.41,0,1.85,0.39,2.11,1.77c0.06,0.34,0.12,0.67,0.11,1.02c-0.02,1.11-0.01,2.25-1.41,2.69c0.09,1.18,0.17,2.29,0.27,3.41
			c0.14,1.51,0.34,3.03,0.44,4.55c0.05,0.77-0.03,1.56-0.14,2.34c-0.05,0.32-0.25,0.64-0.48,0.87c-0.36,0.38-0.75,0.23-0.84-0.28
			c-0.06-0.39-0.06-0.79-0.06-1.19c-0.01-2.85,0-5.69,0-8.54c0-0.31,0-0.61,0-1.03c-0.34-0.02-0.63-0.06-0.93-0.06
			c-1.49-0.01-2.99,0-4.48,0c-1.35-0.01-1.97-0.46-2.35-1.73c-0.38-1.29-0.44-2.62-0.13-3.93C231,101.16,231.1,100.68,231.61,100.46
			z"/>
	</g>
	<g>
		<path class="st0" d="M127.21,107.29c-0.38-0.01-0.65-0.04-0.93-0.04c-1.53-0.01-3.06,0.01-4.57-0.01
			c-1.27-0.01-1.87-0.43-2.25-1.64c-0.42-1.34-0.47-2.71-0.15-4.09c0.09-0.43,0.21-0.89,0.7-1.05c0.07,0.06,0.15,0.09,0.16,0.13
			c0.18,1,0.85,1.16,1.75,1.13c1.77-0.05,3.55-0.02,5.33-0.01c1.32,0,1.88,0.47,2.02,1.77c0.09,0.78,0.03,1.56-0.01,2.35
			c-0.03,0.47-0.23,0.89-0.72,1.05c-0.45,0.17-0.56,0.48-0.51,0.94c0.2,1.99,0.38,3.98,0.55,5.98c0.06,0.7,0.15,1.41,0.15,2.11
			c0,0.54-0.06,1.07-0.17,1.59c-0.07,0.32-0.25,0.63-0.47,0.87c-0.35,0.37-0.76,0.21-0.84-0.3c-0.05-0.3-0.04-0.61-0.04-0.92
			c0-2.99,0-5.98,0-8.98C127.21,107.9,127.21,107.65,127.21,107.29z"/>
	</g>
	<g>
		<path class="st0" d="M56,118.69c-0.12-0.17-0.19-0.23-0.22-0.31c-0.58-1.48-0.06-3.24,1.25-4.15c0.42-0.28,0.89-0.49,1.35-0.71
			c2.28-0.99,2.62-2.59,2.27-4.8c-0.16-1-0.72-1.44-1.77-1.49c-1.1-0.05-2.21,0.01-3.31,0.01c-1.7,0-2.23-0.41-2.54-2.05
			c-0.21-1.14-0.25-2.3-0.05-3.46c0.08-0.49,0.19-1,0.76-1.32c0.11,0.18,0.23,0.33,0.29,0.5c0.32,0.74,0.37,0.79,1.2,0.79
			c0.64,0.01,1.3,0,1.95,0.01c2.55,0.05,3.51,0.87,3.91,3.38c0.44,2.76,0.42,5.52,0,8.28c-0.21,1.37-0.87,2.35-2.18,2.88
			c-0.28,0.11-0.56,0.28-0.84,0.39c-0.77,0.32-1.35,0.81-1.68,1.58C56.33,118.36,56.19,118.47,56,118.69z"/>
	</g>
	<g>
		<path class="st0" d="M80.01,58.43c0.17,0.25,0.34,0.41,0.42,0.61c0.21,0.55,0.63,0.76,1.16,0.82c0.76,0.1,1.51,0.21,2.27,0.32
			c0.24,0.04,0.5,0.08,0.74,0.15c1.1,0.32,1.57,0.98,1.51,2.13c-0.02,0.33-0.05,0.7-0.18,1c-0.95,1.99-0.73,4.07-0.48,6.14
			c0.2,1.62,0.41,3.25,0.6,4.87c0.11,0.88-0.47,1.93-1.24,2.31c-0.5,0.24-0.9,0.04-1-0.5c-0.04-0.25-0.03-0.51-0.03-0.76
			c0.03-2.54,0.06-5.08,0.09-7.62c0-0.19,0-0.39,0-0.59c0-1.22-0.31-1.59-1.53-1.78c-0.36-0.07-0.72-0.09-1.09-0.14
			c-2.16-0.34-3.16-1.56-3.03-3.72c0.06-1.07,0.42-2.04,1.19-2.82C79.55,58.68,79.74,58.6,80.01,58.43z"/>
	</g>
	<g>
		<path class="st0" d="M142.18,118.61c-0.47-0.41-0.38-0.86-0.38-1.26c-0.01-2.97-0.01-5.92-0.01-8.88c0-0.37,0-0.72,0-1.14
			c-0.32-0.03-0.56-0.07-0.81-0.07c-1.13-0.01-2.26-0.02-3.39,0c-0.99,0.03-1.62-0.47-1.95-1.33c-0.59-1.53-0.6-3.09-0.2-4.66
			c0.08-0.29,0.32-0.54,0.55-0.93c0.18,0.28,0.31,0.43,0.38,0.59c0.32,0.77,0.32,0.78,1.18,0.78c1.53,0.01,3.05,0,4.57,0.01
			c0.29,0,0.56,0,0.85,0.03c0.6,0.04,1.02,0.35,1.21,0.9c0.43,1.24,0.42,2.5,0.13,3.76c-0.11,0.47-0.45,0.76-0.97,0.82
			c-0.25,0.02-0.49,0.06-0.79,0.1c0,0.5-0.03,0.96,0,1.44c0.15,2.19,0.29,4.38,0.48,6.58c0.07,0.96-0.12,1.84-0.51,2.7
			C142.45,118.21,142.33,118.37,142.18,118.61z"/>
	</g>
	<g>
		<path class="st0" d="M128.5,58.38c0.19,0.3,0.33,0.43,0.36,0.58c0.15,0.7,0.59,0.95,1.26,1c0.81,0.04,1.63,0.13,2.44,0.22
			c1.01,0.09,1.69,0.6,2.16,1.52c1.4,2.77,1.21,5.38-0.65,7.87c-0.23,0.31-0.52,0.59-0.85,0.8c-0.45,0.3-0.78,0.1-0.74-0.43
			c0.06-0.92,0.19-1.85,0.3-2.77c0.03-0.26,0.07-0.51,0.07-0.76c0.01-0.76-0.22-0.95-0.98-0.84c-0.93,0.14-1.85,0.13-2.77-0.12
			c-1.67-0.45-2.51-1.57-2.57-3.32c-0.03-1.15,0.29-2.17,1.07-3.02C127.84,58.84,128.15,58.65,128.5,58.38z"/>
	</g>
	<g>
		<path class="st0" d="M89,58.35c0.2,0.39,0.35,0.63,0.43,0.88c0.15,0.43,0.42,0.63,0.87,0.67c0.9,0.09,1.79,0.19,2.7,0.28
			c1.04,0.09,1.75,0.61,2.22,1.56c1.44,2.92,1.15,5.57-0.83,8.05c-0.22,0.28-0.54,0.52-0.85,0.67c-0.31,0.15-0.57-0.01-0.58-0.38
			c0-0.39,0.06-0.78,0.11-1.18c0.09-0.79,0.21-1.56,0.27-2.35c0.07-0.91-0.16-1.09-1.07-0.96c-1.08,0.12-2.14,0.07-3.17-0.32
			c-1-0.37-1.66-1.06-1.92-2.09c-0.39-1.55-0.14-2.97,1-4.17C88.37,58.8,88.63,58.64,89,58.35z"/>
	</g>
	<g>
		<path class="st0" d="M229.56,118.58c-0.71-1.51-0.55-3.14-0.92-4.87c-0.94,1.38-0.97,2.87-1.39,4.29c-1.02,0-2.05,0-3.19,0
			c0.46-1.81,0.91-3.58,1.38-5.42c1.08,0,2.15,0,3.27,0c0.03-0.48,0.05-0.87,0.08-1.25c0.05-1.05,0.1-2.09,0.16-3.13
			c0.07-1.02-0.2-1.33-1.23-1.36c-0.11,0-0.22,0-0.34,0c-0.82-0.03-1.37-0.36-1.6-1.13c-0.43-1.44-0.51-2.89-0.1-4.34
			c0.1-0.37,0.23-0.77,0.74-0.96c0.11,0.2,0.27,0.37,0.3,0.57c0.11,0.56,0.48,0.7,0.99,0.72c0.31,0,0.62,0,0.93,0.05
			c0.63,0.06,1.09,0.4,1.37,0.97c0.45,0.93,0.49,1.91,0.11,2.81c-0.72,1.74-0.51,3.49-0.2,5.24c0.28,1.56,0.61,3.12,0.52,4.7
			c-0.04,0.76-0.15,1.51-0.26,2.26C230.12,118.18,230.08,118.18,229.56,118.58z"/>
	</g>
	<g>
		<path class="st0" d="M197.17,118.53c-0.08-0.32-0.21-0.63-0.24-0.93c-0.04-0.71-0.04-1.41-0.04-2.12c-0.01-2.15,0-4.29-0.01-6.43
			c0-0.25,0.01-0.52-0.02-0.76c-0.09-0.8-0.35-1.03-1.15-1.03c-1.22-0.01-2.43,0.01-3.64-0.01c-1.26-0.01-1.8-0.41-2.12-1.64
			c-0.37-1.44-0.36-2.9,0.05-4.35c0.08-0.3,0.28-0.56,0.53-1.01c0.18,0.39,0.29,0.58,0.35,0.78c0.15,0.47,0.47,0.66,0.96,0.65
			c0.9-0.01,1.8-0.01,2.71,0c1.96,0.02,3.01,0.98,3.22,2.94c0.04,0.37,0.07,0.74,0.06,1.11c-0.06,2.77,0.1,5.52,0.29,8.28
			c0.05,0.71,0.18,1.41,0.14,2.11c-0.04,0.63-0.24,1.26-0.42,1.88c-0.06,0.23-0.27,0.39-0.4,0.59
			C197.35,118.56,197.26,118.55,197.17,118.53z"/>
	</g>
	<g>
		<path class="st0" d="M204.33,100.34c0.15,0.17,0.18,0.19,0.18,0.22c0.11,0.94,0.54,1.45,1.6,1.36c0.69-0.05,1.15,0.45,1.39,1.07
			c0.47,1.19,0.54,2.41,0.06,3.62c-0.36,0.92-0.77,1.82-1.11,2.74c-0.16,0.45-0.29,0.94-0.28,1.4c0.04,2.23,0.14,4.46,0.2,6.68
			c0.05,1.84,0.38,3.65,0.07,5.5c-0.05,0.3-0.1,0.61-0.17,0.91c-0.11,0.39-0.36,0.66-0.79,0.63c-0.4-0.02-0.57-0.34-0.62-0.7
			c-0.06-0.41-0.11-0.83-0.11-1.26c-0.01-3.24-0.01-6.49,0.01-9.74c0-0.56,0.15-1.11,0.3-1.65c0.27-0.94,0.61-1.87,0.92-2.82
			c0.08-0.26,0.15-0.54,0.25-0.91c-0.33-0.09-0.61-0.19-0.9-0.26c-1.49-0.37-1.97-0.92-2.14-2.44c-0.14-1.26-0.06-2.48,0.58-3.61
			C203.92,100.83,204.12,100.63,204.33,100.34z"/>
	</g>
	<g>
		<path class="st0" d="M79.73,92.69c-0.09-0.16-0.16-0.23-0.16-0.3c0.08-0.94-0.48-1.52-1.17-2.02c-0.77-0.56-1.55-1.13-2.34-1.69
			c-0.22-0.15-0.46-0.25-0.73-0.41c-0.24,0.59-0.08,0.98,0.26,1.33c0.24,0.24,0.51,0.45,0.75,0.68c0.18,0.18,0.38,0.36,0.52,0.56
			c0.58,0.81,0.32,1.49-0.66,1.65c-0.73,0.12-1.49,0.14-2.4-0.05c0.67-0.52,0.61-0.99,0.29-1.54c-0.4-0.67-0.32-1.35,0.09-2.01
			c0.21-0.34,0.4-0.67,0.64-1.07c-0.73-0.76-1.32-1.6-0.96-2.71c0.17-0.54,0.39-1.06,0.96-1.27C74.91,83.9,75,83.92,75,83.95
			c0.16,0.85,0.76,1.34,1.46,1.75c0.53,0.32,1.03,0.7,1.55,1.05c0.18,0.11,0.39,0.19,0.57,0.27c0.3-0.29,0.13-0.48-0.06-0.67
			c-0.85-0.89-0.66-1.86,0.42-2.47c0.53,0.36,1.04,0.68,1.54,1.05c0.92,0.67,0.85,1.84-0.12,2.5c-0.41,0.01-0.74-0.75-1.26-0.09
			c0.42,0.36,0.83,0.7,1.21,1.06c1.13,1.1,1.12,2.92-0.03,4C80.15,92.53,79.93,92.59,79.73,92.69z"/>
	</g>
	<g>
		<path class="st0" d="M120.5,86.88c-0.08-0.17-0.14-0.37-0.27-0.52c-0.84-0.91-0.67-1.84,0.42-2.48c0.5,0.33,0.99,0.66,1.47,0.98
			c0.99,0.68,0.97,1.84-0.03,2.55c-0.42,0.05-0.74-0.77-1.27-0.09c0.44,0.38,0.87,0.73,1.26,1.13c1.08,1.06,1.04,2.88-0.08,3.93
			c-0.15,0.14-0.36,0.2-0.53,0.28c-0.09-0.1-0.16-0.15-0.16-0.19c0.04-0.99-0.49-1.62-1.25-2.16c-0.77-0.53-1.51-1.09-2.26-1.63
			c-0.22-0.16-0.47-0.27-0.75-0.43c-0.23,0.57-0.1,0.97,0.25,1.3c0.3,0.31,0.64,0.56,0.93,0.87c0.21,0.22,0.42,0.47,0.53,0.74
			c0.26,0.67,0.02,1.11-0.67,1.26c-0.79,0.18-1.59,0.15-2.59,0.03c0.75-0.59,0.58-1.11,0.28-1.65c-0.35-0.61-0.28-1.25,0.08-1.84
			c0.22-0.36,0.43-0.73,0.68-1.13c-0.21-0.25-0.41-0.47-0.59-0.73c-0.66-0.91-0.6-2.13,0.15-2.96c0.12-0.14,0.3-0.21,0.46-0.32
			c0.1,0.08,0.2,0.12,0.21,0.2c0.12,0.82,0.71,1.24,1.34,1.62c0.5,0.32,0.98,0.68,1.47,1c0.23,0.15,0.47,0.28,0.71,0.41
			C120.35,87,120.43,86.95,120.5,86.88z"/>
	</g>
	<g>
		<path class="st0" d="M167.16,92.53c-1.57,0-3.07,0-4.61,0c-0.02-0.24-0.04-0.45-0.07-0.67c-0.05-0.65-0.03-1.32-0.19-1.93
			c-0.24-0.9-0.29-1.77,0.03-2.63c-1.04-1.53-0.94-2.55,0.24-3.39c0.48,0.51,0.97,1.01,1.43,1.51c0.61,0.69,0.44,1.69-0.4,2.37
			c-0.18-0.1-0.37-0.2-0.58-0.3c-0.07,0.07-0.18,0.12-0.18,0.17c-0.05,0.5-0.14,1-0.1,1.49c0.03,0.39,0.3,0.67,0.71,0.74
			c0.44,0.08,0.67-0.15,0.84-0.53c0.19-0.41,0.43-0.79,0.63-1.19c0.15-0.3,0.28-0.61,0.42-0.91c-0.82-1.82-0.71-2.64,0.49-3.41
			c0.18,0.3,0.32,0.65,0.55,0.9c0.24,0.27,0.59,0.45,0.82,0.72c0.55,0.61,0.34,1.74-0.47,2.4c-0.22-0.11-0.47-0.25-0.76-0.4
			c-0.48,0.67-0.9,1.34-1.13,2.26c0.76,0,1.43,0.01,2.09,0c0.14-0.01,0.31-0.07,0.38-0.17c0.44-0.61,0.86-1.25,1.26-1.89
			c0.05-0.08-0.01-0.27-0.07-0.39c-0.1-0.21-0.24-0.38-0.34-0.58c-0.59-1.16-0.2-2.2,1.04-2.77c0.34,0.42,0.71,0.84,1.05,1.27
			c0.36,0.44,0.36,0.94,0.1,1.42c-0.15,0.27-0.33,0.54-0.56,0.75c-1.36,1.22-1.99,2.84-2.48,4.53
			C167.27,92.1,167.22,92.29,167.16,92.53z"/>
	</g>
	<g>
		<path class="st0" d="M93.92,92.53c-1.57,0-3.06,0-4.6,0c-0.02-0.21-0.05-0.39-0.07-0.58c-0.1-0.86-0.23-1.73-0.31-2.61
			c-0.04-0.49-0.07-1.02,0.02-1.49c0.08-0.43,0.05-0.71-0.22-1.08c-0.71-0.95-0.39-2.22,0.6-2.83c0.49,0.52,0.98,1,1.44,1.51
			c0.56,0.63,0.4,1.62-0.39,2.36c-0.19-0.1-0.41-0.21-0.61-0.3c-0.07,0.06-0.15,0.08-0.15,0.12c-0.06,0.49-0.14,0.98-0.15,1.47
			c0,0.17,0.14,0.37,0.26,0.52c0.39,0.45,0.94,0.4,1.24-0.12c0.26-0.45,0.48-0.9,0.72-1.34c0.31-0.56,0.48-1.04,0.04-1.7
			c-0.56-0.85-0.09-2.04,0.87-2.61c0.18,0.3,0.32,0.65,0.55,0.91c0.21,0.26,0.54,0.42,0.78,0.66c0.62,0.65,0.44,1.74-0.42,2.45
			c-0.23-0.11-0.47-0.25-0.78-0.41c-0.48,0.68-0.9,1.36-1.12,2.28c0.76,0,1.42,0.01,2.1-0.01c0.13,0,0.31-0.05,0.37-0.15
			c0.44-0.62,0.86-1.25,1.25-1.9c0.06-0.1-0.04-0.32-0.1-0.47c-0.07-0.18-0.21-0.34-0.29-0.52c-0.58-1.14-0.19-2.19,1.03-2.75
			c0.35,0.42,0.72,0.84,1.06,1.27c0.35,0.44,0.39,0.94,0.1,1.42c-0.17,0.3-0.37,0.58-0.61,0.81c-1.32,1.18-1.91,2.76-2.43,4.38
			C94.05,92.04,93.99,92.25,93.92,92.53z"/>
	</g>
	<g>
		<path class="st0" d="M79.42,107.19c-0.01,0.27-0.07,0.54-0.04,0.81c0.15,1.08,0.32,2.18,0.49,3.26c0.32,1.97,0.27,3.94-0.32,5.86
			c-0.12,0.4-0.3,0.79-0.49,1.16c-0.06,0.11-0.28,0.23-0.41,0.21c-0.11-0.02-0.24-0.22-0.25-0.36c-0.04-0.24-0.02-0.51,0-0.77
			c0.15-1.69-0.01-3.36-0.27-5.05c-0.17-1.12-0.06-2.24,0.18-3.37c0.13-0.6,0.23-1.2,0.33-1.83c-1.43-0.47-1.96-1.51-2.06-2.84
			c-0.08-1.09,0.1-2.15,0.59-3.12c0.13-0.26,0.33-0.48,0.5-0.72c0.14,0.1,0.22,0.13,0.22,0.16c0.06,0.83,0.59,1.22,1.3,1.47
			c0.4,0.14,0.77,0.34,1.16,0.52c0.58,0.26,0.96,0.73,1.08,1.33c0.17,0.87,0.21,1.76-0.05,2.61c-0.3,1-0.76,1.16-1.7,0.7
			C79.62,107.2,79.56,107.2,79.42,107.19z"/>
	</g>
	<g>
		<path class="st0" d="M65.2,118.56c-0.44-0.35-0.36-0.78-0.35-1.14c0.01-2.74,0.03-5.49,0.04-8.23c0-0.23,0.01-0.45,0-0.68
			c-0.04-0.75-0.23-0.98-0.96-1.19c-0.32-0.1-0.66-0.16-0.96-0.32c-0.59-0.3-0.93-0.82-1.1-1.44c-0.45-1.62-0.25-3.19,0.41-4.71
			c0.07-0.14,0.2-0.26,0.4-0.5c0.14,0.3,0.25,0.5,0.31,0.72c0.11,0.39,0.36,0.63,0.75,0.72c0.42,0.08,0.83,0.17,1.24,0.28
			c0.59,0.15,1.03,0.5,1.11,1.14c0.07,0.61,0.2,1.27,0.05,1.84c-0.68,2.54-0.38,5.09-0.21,7.65c0.08,1.22,0.18,2.43,0.27,3.63
			c0.06,0.78-0.24,1.43-0.7,2.02C65.44,118.46,65.32,118.5,65.2,118.56z"/>
	</g>
	<g>
		<path class="st0" d="M107.72,118.6c-0.47-0.39-0.4-0.83-0.4-1.25c0.02-2.53,0.05-5.07,0.08-7.62c0-0.28,0-0.56,0-0.84
			c-0.01-1.13-0.18-1.41-1.28-1.64c-0.9-0.2-1.46-0.72-1.72-1.56c-0.51-1.66-0.33-3.3,0.38-4.87c0.07-0.15,0.22-0.24,0.4-0.44
			c0.12,0.26,0.22,0.45,0.27,0.67c0.12,0.42,0.38,0.67,0.82,0.76c0.38,0.07,0.77,0.17,1.15,0.25c0.64,0.16,1.02,0.55,1.19,1.2
			c0.2,0.72,0.15,1.47-0.03,2.17c-0.39,1.53-0.42,3.08-0.32,4.63c0.14,2.09,0.29,4.16,0.43,6.25
			C108.73,117.24,108.42,117.99,107.72,118.6z"/>
	</g>
	<g>
		<path class="st0" d="M208.93,100.33c0.18,0.24,0.26,0.3,0.27,0.37c0.11,0.87,0.71,1.14,1.46,1.25c0.17,0.02,0.34,0.06,0.5,0.1
			c0.87,0.2,1.28,0.62,1.34,1.51c0.05,0.58,0.06,1.21-0.08,1.77c-0.43,1.82-0.43,3.63-0.29,5.46c0.14,1.84,0.25,3.67,0.39,5.5
			c0.06,0.69-0.15,1.28-0.5,1.84c-0.11,0.17-0.3,0.3-0.47,0.45c-0.42-0.32-0.38-0.73-0.38-1.12c0.01-1.64,0.02-3.28,0.04-4.92
			c0.01-1.24,0.05-2.48,0.04-3.72c0-1.03-0.2-1.35-1.19-1.54c-1.53-0.28-1.97-1.55-2.09-2.72c-0.11-1.03,0.01-2.09,0.38-3.09
			C208.48,101.11,208.69,100.79,208.93,100.33z"/>
	</g>
	<g>
		<path class="st0" d="M188.68,92.44c0-1.09-0.06-2.16,0.02-3.21c0.05-0.69,0.3-1.36,0.49-2.15c-0.62-0.54-0.68-1.4-0.59-2.29
			c0.04-0.41,0.16-0.78,0.66-0.95c0.3,0.62,0.86,0.66,1.48,0.63c0.53-0.03,1.07-0.01,1.6,0.03c1.36,0.12,2.17,0.92,2.25,2.29
			c0.07,1.13,0.02,2.26,0.03,3.38c0.01,0.53-0.32,0.9-0.58,1.29c-0.94,1.34-0.44,1.08-2.08,1.1c-1.01,0.01-2.03-0.01-3.05-0.01
			C188.86,92.54,188.81,92.5,188.68,92.44z M194.04,89.7c0.26-1.33-0.42-2.41-1.61-2.51c-0.83-0.06-1.67,0.05-2.47,0.06
			c-0.4,0.85-0.39,1.61-0.27,2.38C190.36,89.82,193.04,89.85,194.04,89.7z"/>
	</g>
	<g>
		<path class="st0" d="M157.93,118.56c-0.35-0.4-0.32-0.83-0.32-1.24c0.03-2.66,0.06-5.32,0.09-7.96c0-0.21,0-0.4,0-0.6
			c-0.03-0.97-0.22-1.27-1.16-1.47c-0.81-0.18-1.41-0.57-1.74-1.33c-0.11-0.27-0.2-0.54-0.26-0.82c-0.27-1.36-0.1-2.68,0.38-3.98
			c0.07-0.19,0.18-0.35,0.28-0.52c0.04-0.06,0.13-0.1,0.25-0.19c0.1,0.17,0.24,0.32,0.27,0.48c0.11,0.59,0.5,0.85,1.05,0.94
			c0.28,0.06,0.55,0.12,0.82,0.18c0.89,0.21,1.27,0.59,1.35,1.51c0.05,0.58,0.09,1.2-0.06,1.76c-0.67,2.41-0.33,4.82-0.19,7.25
			c0.07,1.29,0.2,2.59,0.28,3.89C159.04,117.33,158.65,118.1,157.93,118.56z"/>
	</g>
	<g>
		<path class="st0" d="M200.95,92.55c0.21-0.83,0.38-1.58,0.58-2.3c0.11-0.4,0.45-0.47,0.8-0.47c0.77,0,1.53,0.01,2.3,0
			c0.3-0.01,0.6-0.04,0.88-0.05c0.33-1.16-0.01-1.97-1-2.44c-0.63-0.29-1.3-0.37-1.99-0.24c-1.19,0.23-1.91,1.1-1.99,2.41
			c-0.02,0.48,0.07,0.96,0.09,1.44c0.03,0.64,0.03,1.29-0.52,1.78c-0.67-0.73-0.5-2.82,0.34-5.04c-1.73-1-1.97-2.36-0.55-3.39
			c0.23,0.16,0.44,0.41,0.71,0.51c0.77,0.32,1.28,0.8,1.35,1.75c0.08-0.15,0.23-0.28,0.25-0.44c0.06-0.41,0.1-0.83,0.09-1.25
			c-0.02-0.62,0.12-0.75,0.74-0.63c1.13,0.26,1.98,0.93,2.56,1.94c0.48,0.83,0.64,1.75,0.65,2.69c0.01,1.11-0.2,2.19-0.62,3.22
			c-0.11,0.27-0.22,0.51-0.58,0.51C203.71,92.54,202.39,92.55,200.95,92.55z"/>
	</g>
	<g>
		<path class="st0" d="M125.34,92.55c0.2-0.83,0.37-1.57,0.57-2.28c0.1-0.41,0.44-0.48,0.81-0.48c0.73,0,1.46,0,2.2,0
			c0.31,0,0.61,0,0.88,0c0.46-0.87,0.26-1.77-0.52-2.26c-1.01-0.63-2.08-0.74-3.14-0.17c-0.99,0.52-1.23,1.49-1.22,2.53
			c0.01,0.59,0.09,1.19,0.06,1.77c-0.02,0.4-0.07,0.86-0.58,1c-0.56-0.92-0.37-2.99,0.45-5.02c-0.76-0.37-1.55-0.75-1.47-1.79
			c0.05-0.65,0.22-1.27,0.86-1.57c0.34,0.22,0.62,0.46,0.94,0.61c0.62,0.28,1.03,0.67,1.01,1.4c0,0.08,0.06,0.14,0.11,0.26
			c0.36-0.34,0.4-0.76,0.41-1.18c0-0.2-0.03-0.39-0.02-0.6c0-0.58,0.14-0.68,0.72-0.57c0.74,0.17,1.37,0.52,1.89,1.06
			c0.82,0.82,1.17,1.85,1.29,2.98c0.13,1.31-0.12,2.58-0.59,3.81c-0.11,0.27-0.23,0.51-0.58,0.51
			C128.11,92.54,126.79,92.55,125.34,92.55z"/>
	</g>
	<g>
		<path class="st0" d="M145.49,92.62c-0.49-0.92-0.32-2.79,0.48-5.03c-0.71-0.33-1.46-0.65-1.45-1.63c0.01-0.72,0.2-1.34,0.85-1.71
			c0.35,0.23,0.65,0.48,0.99,0.64c0.6,0.27,0.97,0.66,0.95,1.35c0,0.05,0.03,0.11,0.06,0.15c0.01,0.01,0.05,0.03,0.13,0.06
			c0.31-0.24,0.3-0.61,0.33-0.95c0.03-0.21-0.01-0.45-0.02-0.67c-0.03-0.63,0.13-0.78,0.73-0.65c1.37,0.32,2.3,1.16,2.82,2.45
			c0.51,1.27,0.51,2.6,0.23,3.91c-0.12,0.52-0.27,1.04-0.47,1.54c-0.08,0.19-0.34,0.43-0.53,0.44c-1.08,0.04-2.15,0.02-3.21,0.02
			c-0.26,0-0.5-0.02-0.89-0.04c0.21-0.83,0.38-1.59,0.6-2.34c0.1-0.35,0.45-0.39,0.77-0.39c0.82,0,1.64,0.01,2.46,0
			c0.82-0.01,0.98-0.19,0.87-1.02c-0.07-0.52-0.3-0.92-0.72-1.2c-0.99-0.66-2.06-0.78-3.13-0.26c-0.97,0.49-1.26,1.39-1.27,2.41
			c-0.01,0.69,0.05,1.36,0.02,2.03C146.06,92.12,146.01,92.55,145.49,92.62z"/>
	</g>
	<g>
		<path class="st0" d="M112.55,112.29c-0.17-1.69,0.41-3.3,0.02-4.94c-0.34,0.05-0.59,0.11-0.83,0.12
			c-0.96,0.06-1.77-0.29-2.15-1.18c-0.8-1.88-0.69-3.75,0.28-5.55c0.04-0.07,0.11-0.12,0.17-0.18c0.04-0.03,0.1-0.05,0.26-0.12
			c0.07,0.23,0.17,0.44,0.21,0.68c0.07,0.5,0.4,0.71,0.86,0.78c0.33,0.03,0.68,0.1,1.01,0.14c0.65,0.09,1.08,0.43,1.3,1.06
			c0.96,2.78,0.97,5.54-0.21,8.26C113.31,111.72,113.19,112.11,112.55,112.29z"/>
	</g>
	<g>
		<path class="st0" d="M177.98,107.36c-0.28,0.04-0.52,0.11-0.77,0.12c-0.96,0.05-1.75-0.32-2.13-1.22
			c-0.8-1.88-0.67-3.73,0.31-5.52c0.05-0.11,0.19-0.18,0.4-0.37c0.11,0.36,0.23,0.6,0.26,0.85c0.06,0.41,0.31,0.59,0.68,0.65
			c0.41,0.07,0.83,0.13,1.25,0.19c0.57,0.11,0.97,0.41,1.17,0.98c1.01,2.86,1,5.68-0.25,8.47c-0.13,0.28-0.37,0.54-0.56,0.8
			c-0.44-0.26-0.33-0.59-0.31-0.89c0.05-0.92,0.14-1.84,0.2-2.77C178.26,108.22,178.34,107.8,177.98,107.36z"/>
	</g>
	<g>
		<path class="st0" d="M133.04,107.4c-0.06-0.01-0.13-0.03-0.17-0.02c-1.75,0.29-2.77-0.4-3.09-2.12c-0.24-1.36-0.19-2.71,0.38-3.99
			c0.13-0.29,0.34-0.54,0.62-1.01c0.14,0.42,0.26,0.63,0.29,0.85c0.06,0.52,0.39,0.72,0.85,0.78c0.36,0.06,0.73,0.11,1.09,0.17
			c0.61,0.1,1.01,0.43,1.21,1.03c0.98,2.84,0.96,5.63-0.26,8.4c-0.14,0.32-0.26,0.7-0.83,0.76c-0.02-0.34-0.05-0.67-0.04-0.97
			c0.06-0.96,0.15-1.91,0.2-2.87C133.31,108.06,133.39,107.67,133.04,107.4z"/>
	</g>
	<g>
		<path class="st0" d="M73.05,82.1c0.47,1.03,0.23,1.6-0.66,1.67c-0.72,0.07-1.46-0.07-2.19-0.11c-0.28-0.01-0.57-0.05-0.83,0.01
			c-0.14,0.03-0.28,0.26-0.3,0.42c-0.01,0.08,0.18,0.27,0.32,0.31c0.18,0.06,0.39,0.05,0.59,0.05c0.73,0,1.46-0.03,2.2,0
			c0.59,0.02,0.84,0.19,0.86,0.72c0.08,1.51,0.06,3.02-1.21,4.14c-0.15,0.14-0.27,0.3-0.42,0.42c-0.63,0.49-0.94,1.11-0.83,1.91
			c0.02,0.11,0.01,0.23-0.01,0.34c-0.06,0.34-0.22,0.6-0.61,0.57c-0.37-0.03-0.53-0.27-0.57-0.62c-0.08-0.67,0.18-1.23,0.64-1.68
			c0.48-0.48,1-0.92,1.49-1.38c0.43-0.4,0.69-0.87,0.6-1.57c-0.33-0.03-0.63-0.06-0.93-0.08c-0.82-0.01-1.64,0.01-2.45-0.01
			c-0.77-0.01-0.96-0.19-0.97-0.94c-0.01-0.85-0.02-1.69,0-2.54c0.02-0.92,0.49-1.38,1.41-1.24c0.58,0.08,1.13,0.34,1.68,0.55
			c0.68,0.25,0.67,0.24,1.18-0.3C72.3,82.47,72.68,82.32,73.05,82.1z"/>
	</g>
	<g>
		<path class="st0" d="M161.01,82.23c0.43,0.83,0.18,1.45-0.69,1.53c-0.69,0.08-1.4-0.05-2.1-0.09c-0.28-0.01-0.57-0.09-0.83-0.03
			c-0.18,0.03-0.3,0.26-0.46,0.39c0.16,0.14,0.29,0.32,0.47,0.38c0.18,0.07,0.39,0.03,0.59,0.03c0.68,0,1.35-0.01,2.03,0
			c0.66,0.01,0.91,0.21,0.94,0.83c0.05,1.58-0.06,3.12-1.43,4.23c-0.15,0.13-0.27,0.29-0.42,0.41c-0.48,0.39-0.7,0.87-0.63,1.48
			c0.02,0.19,0,0.4-0.03,0.6c-0.04,0.31-0.19,0.54-0.53,0.55c-0.36,0-0.57-0.21-0.64-0.56c-0.1-0.64,0.11-1.19,0.54-1.63
			c0.47-0.48,0.97-0.94,1.48-1.38c0.47-0.41,0.75-0.9,0.77-1.64c-0.27-0.05-0.53-0.12-0.8-0.12c-0.87-0.02-1.75,0-2.62-0.02
			c-0.8-0.01-0.95-0.15-0.96-0.94c-0.02-0.86-0.02-1.74,0-2.61c0.02-0.85,0.43-1.24,1.28-1.18c0.44,0.04,0.87,0.19,1.3,0.33
			c0.27,0.07,0.52,0.23,0.78,0.33c0.33,0.14,0.6,0.1,0.78-0.26C160.08,82.4,160.5,82.23,161.01,82.23z"/>
	</g>
	<g>
		<path class="st0" d="M154.22,66.21c0.33-2.11,0.57-4.25,1.4-6.24c0.62-1.53,2.34-1.81,3.4-0.56c0.16,0.19,0.25,0.52,0.24,0.77
			c-0.02,0.29-0.15,0.6-0.29,0.87c-1.01,1.92-2.03,3.84-3.06,5.76c-0.08,0.15-0.15,0.3-0.26,0.43c-0.27,0.3-0.72,0.4-1.08,0.25
			c-0.39-0.17-0.42-0.48-0.38-0.85C154.2,66.5,154.21,66.35,154.22,66.21z"/>
	</g>
	<g>
		<path class="st0" d="M193.36,66.81c0.33-2.46,0.63-4.75,1.53-6.92c0.61-1.47,2.47-1.7,3.42-0.44c0.36,0.47,0.21,0.97-0.02,1.44
			c-0.34,0.69-0.71,1.36-1.07,2.02c-0.68,1.27-1.34,2.54-2.03,3.82c-0.12,0.22-0.26,0.43-0.43,0.6c-0.3,0.28-0.7,0.34-1.02,0.1
			C193.53,67.28,193.45,66.96,193.36,66.81z"/>
	</g>
	<g>
		<path class="st0" d="M35.99,66.06c0.31-2.06,0.54-4.14,1.35-6.09c0.64-1.51,2.32-1.82,3.4-0.59c0.16,0.19,0.25,0.52,0.24,0.78
			c-0.02,0.29-0.13,0.61-0.27,0.87c-1,1.91-2,3.8-3.02,5.68c-0.16,0.29-0.38,0.59-0.66,0.74c-0.59,0.34-1.16-0.05-1.13-0.72
			C35.91,66.5,35.96,66.28,35.99,66.06z"/>
	</g>
	<g>
		<path class="st0" d="M44.25,58.84c0.66,0.01,1.22,0.26,1.73,0.63c0.49,0.37,0.57,1,0.19,1.69c-0.56,1.05-1.15,2.08-1.72,3.12
			c-0.48,0.89-0.95,1.79-1.43,2.7c-0.11,0.19-0.21,0.41-0.37,0.56c-0.27,0.27-0.62,0.25-0.95,0.14c-0.31-0.1-0.42-0.37-0.39-0.68
			c0.23-2.42,0.64-4.82,1.57-7.07c0.15-0.36,0.5-0.67,0.8-0.94C43.8,58.85,44.05,58.87,44.25,58.84z"/>
	</g>
	<g>
		<path class="st0" d="M159.65,66.29c0.32-2.1,0.62-4.18,1.4-6.18c0.22-0.56,0.47-1.13,1.15-1.23c0.83-0.13,1.57,0.15,2.18,0.71
			c0.28,0.25,0.41,0.62,0.27,1.01c-0.12,0.31-0.26,0.63-0.42,0.92c-0.99,1.84-1.98,3.68-2.98,5.52c-0.12,0.21-0.27,0.45-0.47,0.57
			c-0.61,0.35-1.2-0.03-1.18-0.74C159.61,66.68,159.63,66.48,159.65,66.29z"/>
	</g>
	<g>
		<path class="st0" d="M198.87,66.29c0.32-2.1,0.62-4.18,1.41-6.16c0.59-1.46,2.28-1.72,3.34-0.54c0.39,0.43,0.37,0.93,0.13,1.42
			c-0.18,0.38-0.41,0.73-0.61,1.11c-0.88,1.64-1.77,3.29-2.66,4.92c-0.11,0.21-0.27,0.45-0.47,0.57c-0.6,0.36-1.2-0.03-1.19-0.73
			C198.83,66.69,198.86,66.49,198.87,66.29z"/>
	</g>
	<g>
		<path class="st0" d="M178.62,83.77c0.35,0.72,0.92,0.72,1.53,0.7c1.05-0.03,2.09-0.01,3.13-0.01c0.93,0.02,1.27,0.33,1.32,1.27
			c0.02,0.25,0,0.5-0.04,0.76c-0.04,0.37-0.27,0.59-0.64,0.67c-0.22,0.04-0.44,0.08-0.72,0.14c0.08,0.87,0.15,1.7,0.24,2.54
			c0.04,0.5,0.11,1.02,0.13,1.51c0.02,0.65-0.13,0.92-0.66,1.37c-0.34-0.19-0.23-0.54-0.23-0.82c-0.01-1.25-0.01-2.48-0.01-3.72
			c0-0.28,0-0.56,0-0.93c-0.45-0.01-0.83-0.03-1.22-0.05c-0.62-0.01-1.24,0.03-1.86-0.02c-0.33-0.03-0.69-0.12-0.94-0.29
			C177.81,86.26,177.77,84.69,178.62,83.77z"/>
	</g>
	<g>
		<path class="st0" d="M53.82,109.52c0.08,0.22,0.15,0.36,0.16,0.48c0.02,0.17,0.01,0.34-0.02,0.5c-0.28,1.8-0.02,3.52,0.48,5.26
			c0.69,2.39,0.48,4.81-0.22,7.19c-0.1,0.31-0.24,0.63-0.4,0.92c-0.15,0.28-0.37,0.51-0.86,0.41c-0.02-0.29-0.08-0.62-0.06-0.94
			c0.06-1.09,0.16-2.19,0.23-3.29c0.1-1.58-0.12-3.16-0.2-4.74c-0.09-1.46,0-2.93,0.07-4.38C53.02,110.42,53.16,109.88,53.82,109.52
			z"/>
	</g>
	<g>
		<path class="st0" d="M110.47,92.89c-0.08-0.46-0.19-0.77-0.19-1.08c-0.03-1.12-0.01-2.26-0.01-3.38
			c-0.01-1.17-0.05-1.22-1.26-1.22c-0.73-0.01-1.46,0.02-2.2-0.01c-1.09-0.02-1.52-0.45-1.63-1.52c-0.08-0.91,0.06-1.35,0.63-1.84
			c0.28,0.63,0.84,0.62,1.42,0.61c0.62-0.03,1.24-0.03,1.86,0.01c1.16,0.05,1.8,0.7,1.88,1.86c0.1,1.66,0.2,3.32,0.31,4.97
			C111.32,91.88,111.18,92.39,110.47,92.89z"/>
	</g>
	<g>
		<path class="st0" d="M82.38,83.77c0.27,0.63,0.75,0.7,1.28,0.68c0.65-0.03,1.3-0.03,1.95,0.01c1.18,0.05,1.83,0.63,1.91,1.81
			c0.09,1.33,0.13,2.64,0.19,3.98c0.02,0.36,0.11,0.72,0.13,1.09c0.03,0.58-0.1,1.1-0.67,1.44c-0.4-0.26-0.34-0.65-0.34-1
			c-0.01-1.15,0-2.31,0-3.47c-0.01-1.01-0.09-1.07-1.13-1.09c-0.77-0.01-1.52,0.01-2.28-0.01c-1.17-0.01-1.62-0.47-1.65-1.65
			C81.75,84.95,81.7,84.31,82.38,83.77z"/>
	</g>
	<g>
		<path class="st0" d="M143.29,92.89c-0.06-0.46-0.13-0.74-0.14-1.04c-0.01-1.08,0-2.15-0.01-3.22c0-0.23,0-0.45-0.03-0.68
			c-0.08-0.59-0.2-0.72-0.82-0.72c-0.76-0.03-1.53-0.01-2.29-0.02c-0.25,0-0.5,0-0.76-0.02c-0.5-0.04-0.88-0.28-1.04-0.76
			c-0.3-0.89-0.33-1.75,0.26-2.57c0.35,0.22,0.62,0.47,0.94,0.56c0.34,0.09,0.73,0.03,1.09,0.03c0.49,0,0.96-0.03,1.44,0.01
			c1.1,0.05,1.72,0.63,1.86,1.71c0.02,0.19,0.02,0.4,0.03,0.59c0.09,1.49,0.17,2.98,0.28,4.48
			C144.16,91.87,144.04,92.39,143.29,92.89z"/>
	</g>
	<g>
		<path class="st0" d="M135.32,83.7c0.19,0.69,0.56,0.87,1.11,0.86c1.2-0.01,1.54,1.16,1.26,2.08c-0.04,0.11-0.08,0.21-0.16,0.3
			c-1.12,1.27-1.04,2.79-0.91,4.33c0.06,0.76,0.19,1.5,0.22,2.27c0.02,0.52-0.05,1.06-0.12,1.6c-0.05,0.32-0.28,0.56-0.66,0.52
			c-0.35-0.03-0.46-0.3-0.48-0.6c-0.03-0.37-0.03-0.72-0.04-1.09c0-1.13,0.02-2.26-0.01-3.39c-0.03-0.73,0.13-1.39,0.48-2.02
			c0.21-0.37,0.36-0.77,0.58-1.22c-0.24-0.08-0.44-0.15-0.65-0.19c-1.46-0.28-2.03-1.61-1.19-2.85
			C134.87,84.14,135.05,83.99,135.32,83.7z"/>
	</g>
	<g>
		<path class="st0" d="M45.55,107.75c0.28-1.89,0.55-3.78,0.84-5.68c0.03-0.19,0.08-0.38,0.13-0.58c0.2-0.63,0.54-0.96,0.94-0.92
			c0.47,0.05,1.05,0.63,1.08,1.16c0.02,0.33-0.01,0.69-0.1,0.99c-0.59,1.97-1.2,3.93-1.81,5.9c-0.03,0.08-0.04,0.18-0.09,0.23
			c-0.17,0.17-0.34,0.45-0.52,0.45c-0.36,0.02-0.39-0.33-0.41-0.61c-0.01-0.31,0-0.62,0-0.93C45.6,107.76,45.58,107.76,45.55,107.75
			z"/>
	</g>
	<g>
		<path class="st0" d="M48.64,108.02c0.31-2,0.61-4.01,0.92-6.01c0.02-0.12,0.04-0.23,0.08-0.33c0.16-0.37,0.21-0.86,0.77-0.88
			c0.46-0.01,1.09,0.45,1.16,0.95c0.06,0.44,0.06,0.91-0.06,1.32c-0.58,1.95-1.21,3.89-1.82,5.82c-0.04,0.14-0.07,0.3-0.16,0.39
			c-0.1,0.11-0.29,0.25-0.4,0.23c-0.15-0.05-0.36-0.23-0.38-0.37c-0.05-0.34-0.02-0.73-0.02-1.09
			C48.71,108.03,48.68,108.02,48.64,108.02z"/>
	</g>
	<g>
		<path class="st0" d="M176.71,92.85c-0.05-0.41-0.12-0.7-0.12-0.98c0-1.22,0.03-2.43,0.03-3.65c0-0.76-0.05-0.8-0.76-0.98
			c-1.68-0.41-2.1-2.02-0.83-3.39c0.34,0.61,0.93,0.7,1.55,0.78c0.87,0.12,1.21,0.61,0.95,1.53c-0.26,0.89-0.33,1.77-0.25,2.68
			c0.08,0.87,0.18,1.73,0.27,2.61C177.62,92.13,177.53,92.3,176.71,92.85z"/>
	</g>
	<g>
		<path class="st0" d="M185.72,83.76c0.31,0.74,0.88,0.78,1.44,0.85c0.89,0.13,1.3,0.58,1.05,1.38c-0.54,1.76-0.17,3.48-0.03,5.21
			c0.02,0.23,0.1,0.47,0.05,0.67c-0.1,0.41-0.26,0.8-0.88,0.88c-0.03-0.34-0.08-0.63-0.08-0.92c0-1.21,0.02-2.42,0.02-3.64
			c0-0.75-0.04-0.81-0.78-0.95c-0.66-0.13-1.25-0.34-1.41-1.03C184.89,85.36,184.94,84.52,185.72,83.76z"/>
	</g>
	<g>
		<path class="st0" d="M112.38,83.77c0.33,0.69,0.91,0.77,1.49,0.84c0.84,0.12,1.12,0.5,1.03,1.34c-0.01,0.05,0,0.11-0.03,0.16
			c-0.54,1.44-0.24,2.89-0.09,4.35c0.05,0.39,0.09,0.79,0.11,1.17c0.04,0.53-0.21,0.9-0.7,1.15c-0.37-0.3-0.3-0.67-0.29-1.03
			c0.02-1.14,0.07-2.3,0.08-3.45c0.01-0.82-0.06-0.91-0.86-1.06c-0.7-0.14-1.25-0.42-1.4-1.14
			C111.55,85.25,111.69,84.49,112.38,83.77z"/>
	</g>
	<g>
		<path class="st0" d="M197.44,89.57c0.05-0.71,0.11-1.42,0.16-2.23c-1.06-0.03-2.19,0.1-2.52-1.2c-0.24-0.94,0.01-1.68,0.75-2.29
			c0.21,0.67,0.75,0.76,1.32,0.76c0.7,0,1.08,0.34,1.32,0.98c0.45,1.2,0.42,2.37-0.25,3.48c-0.15,0.23-0.37,0.44-0.56,0.64
			C197.59,89.66,197.52,89.61,197.44,89.57z"/>
	</g>
	<g>
		<path class="st0" d="M98.52,83.8c0.14,0.67,0.6,0.75,1.1,0.8c1.09,0.1,1.29,0.26,1.58,1.32c0.31,1.1,0.25,2.17-0.37,3.17
			c-0.14,0.23-0.34,0.41-0.59,0.71c-0.35-0.91,0.15-1.69-0.13-2.46c-0.99-0.03-2.07,0.1-2.4-1.2C97.48,85.25,97.72,84.45,98.52,83.8
			z"/>
	</g>
	<g>
		<path class="st0" d="M232.44,110.06c0.01,0.25,0.08,0.52,0.04,0.77c-0.13,0.79-0.09,1.55,0.17,2.33c0.63,1.82-0.1,3.43-0.95,4.98
			c-0.1,0.19-0.35,0.29-0.53,0.43c-0.06-0.03-0.13-0.06-0.19-0.1c0.03-0.43,0.06-0.87,0.08-1.31c0.04-0.75,0.14-1.52,0.1-2.26
			c-0.07-1.38,0.01-2.72,0.55-4c0.13-0.32,0.34-0.6,0.51-0.91C232.3,110.03,232.37,110.04,232.44,110.06z"/>
	</g>
	<g>
		<path class="st0" d="M120.84,110.06c0.02,0.26,0.07,0.52,0.03,0.78c-0.13,0.82-0.1,1.6,0.2,2.4c0.29,0.75,0.31,1.55,0.05,2.33
			c-0.26,0.8-0.56,1.58-0.89,2.36c-0.12,0.28-0.32,0.59-0.75,0.6c-0.28-0.44-0.11-0.9-0.02-1.31c0.16-0.78,0.18-1.55,0.11-2.35
			c-0.13-1.38-0.02-2.76,0.55-4.05c0.13-0.29,0.33-0.54,0.49-0.81C120.71,110.03,120.77,110.04,120.84,110.06z"/>
	</g>
	<g>
		<path class="st0" d="M125.57,143.09c0.02,3.58-2.78,6.57-6.23,6.62c-4.11,0.06-6.94-3.61-6.45-7.35c0.35-2.73,1.82-4.68,4.47-5.53
			C121.45,135.54,125.54,138.69,125.57,143.09z M119.25,146.93c0.06-0.01,0.17-0.01,0.28-0.02c1.53-0.2,2.54-1.07,3.03-2.5
			c0.53-1.56,0.19-2.97-0.99-4.11c-1.22-1.21-3.04-1.3-4.42-0.28c-1.61,1.18-2.22,3.77-0.57,5.7
			C117.26,146.51,118.15,146.9,119.25,146.93z"/>
	</g>
	<g>
		<path class="st0" d="M162.76,142.99c-0.06,3.02-2.12,5.74-4.91,6.38c-3.03,0.71-6.07-0.79-7.29-3.67
			c-1.07-2.54-0.75-4.95,1.01-7.06c1.6-1.91,3.72-2.65,6.15-2.08c2.53,0.58,4.09,2.28,4.78,4.77
			C162.64,141.86,162.67,142.43,162.76,142.99z M156.3,139.18c-2.27,0.02-3.88,2.26-3.49,4.47c0.31,1.72,1.68,3.08,3.39,3.14
			c1.58,0.06,2.96-0.91,3.52-2.55C160.56,141.77,158.79,139.17,156.3,139.18z"/>
	</g>
	<g>
		<path class="st0" d="M86.2,161.26c-2.92,0-5.4-2.01-6.16-4.98c-0.76-2.97,0.65-6.18,3.34-7.51c3.95-1.98,8.47,0.55,9.1,4.92
			c0.48,3.3-1.37,5.85-3.51,6.9C88.11,161.01,87.14,161.26,86.2,161.26z M86.16,150.88c-1.72,0.01-3.18,1.31-3.5,3.1
			c-0.31,1.82,0.68,3.63,2.32,4.26c1.31,0.49,2.77,0.17,3.72-0.87c1.13-1.25,1.37-2.68,0.74-4.25
			C88.89,151.7,87.62,150.87,86.16,150.88z"/>
	</g>
	<g>
		<path class="st0" d="M103.1,155.15c-2.05-0.17-3.69-0.98-4.93-2.57c-2.01-2.55-1.88-6.27,0.33-8.64c1.79-1.91,4.02-2.54,6.5-1.75
			c2.58,0.82,4.04,2.73,4.41,5.39c0.42,3.02-1.18,5.84-3.87,6.95C104.77,154.84,103.91,154.95,103.1,155.15z M103.1,152.27
			c1.75,0.01,3.25-1.36,3.56-3.24c0.32-1.94-0.98-3.89-2.86-4.3c-1.78-0.39-3.6,0.78-4.13,2.67C99,149.8,100.73,152.25,103.1,152.27
			z"/>
	</g>
	<g>
		<path class="st0" d="M195.12,154.58c0,3.61-3.05,7.13-7.33,6.52c-2.1-0.3-3.64-1.47-4.64-3.32c-1.36-2.53-0.98-5.67,0.97-7.72
			c1.71-1.82,3.84-2.48,6.25-1.8c2.43,0.69,3.91,2.39,4.52,4.83C195.03,153.56,195.06,154.08,195.12,154.58z M188.93,158.38
			c0.11-0.02,0.39-0.05,0.67-0.11c2.7-0.71,3.64-4.29,1.66-6.36c-1.46-1.52-3.68-1.51-5.1,0.04c-0.64,0.7-0.95,1.53-1.01,2.46
			C185.01,156.54,186.7,158.4,188.93,158.38z"/>
	</g>
	<g>
		<path class="st0" d="M144.6,138.09c-0.06,3.94-3.29,6.96-7.09,6.54c-2.35-0.27-4.02-1.58-5.04-3.68c-1.26-2.62-0.61-5.88,1.5-7.77
			c3.6-3.25,9.18-1.5,10.37,3.25C144.49,136.97,144.52,137.54,144.6,138.09z M141.79,137.81c-0.08-0.31-0.16-0.88-0.39-1.38
			c-1.02-2.29-3.89-2.85-5.64-1.13c-1.54,1.51-1.55,4.05-0.02,5.56c1.36,1.35,3.42,1.38,4.8,0.08
			C141.39,140.16,141.75,139.18,141.79,137.81z"/>
	</g>
	<g>
		<path class="st0" d="M166.52,148.83c0-3.98,3.22-6.96,7.08-6.55c3.18,0.35,5.65,3.25,5.62,6.61c-0.04,3.91-3.29,6.87-7.11,6.46
			C168.95,155.02,166.52,152.18,166.52,148.83z M169.28,148.89c0.01,0.08,0.01,0.25,0.03,0.42c0.27,2.72,3.26,4.2,5.48,2.7
			c2.3-1.56,2.16-5.19-0.26-6.54c-0.65-0.37-1.36-0.56-2.11-0.42C170.55,145.36,169.28,146.88,169.28,148.89z"/>
	</g>
</g>
</svg>
