<?xml version="1.0" encoding="utf-8"?>
<!-- Generator: Adobe Illustrator 24.3.0, SVG Export Plug-In . SVG Version: 6.00 Build 0)  -->
<svg version="1.1" id="Layer_1" xmlns="http://www.w3.org/2000/svg" xmlns:xlink="http://www.w3.org/1999/xlink" x="0px" y="0px"
	 viewBox="0 0 909.63 38.13" style="enable-background:new 0 0 909.63 38.13;" xml:space="preserve">
<style type="text/css">
	.st0{clip-path:url(#SVGID_2_);}
	.st1{clip-path:url(#SVGID_4_);}
	.st2{opacity:0.5;clip-path:url(#SVGID_6_);}
	.st3{clip-path:url(#SVGID_10_);}
</style>
<g id="Artwork_19_1_">
	<g>
		<defs>
			<rect id="SVGID_1_" width="909.63" height="38.13"/>
		</defs>
		<clipPath id="SVGID_2_">
			<use xlink:href="#SVGID_1_"  style="overflow:visible;"/>
		</clipPath>
		<g class="st0">
			<defs>
				<rect id="SVGID_3_" width="909.63" height="38.13"/>
			</defs>
			<clipPath id="SVGID_4_">
				<use xlink:href="#SVGID_3_"  style="overflow:visible;"/>
			</clipPath>
			<g class="st1">
				<defs>
					<rect id="SVGID_5_" x="0.4" y="0.4" width="908.83" height="37.33"/>
				</defs>
				<clipPath id="SVGID_6_">
					<use xlink:href="#SVGID_5_"  style="overflow:visible;"/>
				</clipPath>
				<g class="st2">
					<g>
						<defs>
							<rect id="SVGID_7_" x="0.4" y="0.4" width="908.83" height="37.33"/>
						</defs>
						<clipPath id="SVGID_8_">
							<use xlink:href="#SVGID_7_"  style="overflow:visible;"/>
						</clipPath>
					</g>
				</g>
			</g>
			<path class="st1" d="M2.49,1.54h904.65v35.05H2.49V1.54z M0.4,37.73h908.83V0.4H0.4V37.73z"/>
			<path class="st1" d="M15.78,23.36l-1.2-11.95V5.88h4.98v5.53l-1.18,11.95H15.78z M14.77,24.92h4.61v4.51h-4.61V24.92z"/>
			<g class="st1">
				<defs>
					<rect id="SVGID_9_" x="0.4" y="0.4" width="908.83" height="37.33"/>
				</defs>
				<clipPath id="SVGID_10_">
					<use xlink:href="#SVGID_9_"  style="overflow:visible;"/>
				</clipPath>
				<path class="st3" d="M24.19,26.04c0.67,0.22,1.26,0.32,1.79,0.32c0.66,0,1.09-0.16,1.3-0.47c0.21-0.32,0.31-0.91,0.31-1.79
					v-8.16c-0.76,0-1.93,0.09-3.49,0.27l-0.36-3.49c2.82-0.35,5.75-0.53,8.79-0.53c2.57,0,4.6,0.22,6.1,0.66
					c1.5,0.44,2.63,1.24,3.39,2.41c0.76,1.17,1.14,2.82,1.14,4.96v9.2h-4.61v-8.38c0-2.16-0.37-3.58-1.1-4.26
					c-0.73-0.67-2.48-1.01-5.25-1.01v8.53c0,1.45-0.11,2.48-0.34,3.11c-0.22,0.62-0.69,1.14-1.38,1.54c-0.7,0.4-1.7,0.6-2.98,0.6
					c-1.4,0-2.73-0.2-4-0.6L24.19,26.04z"/>
				<rect x="47.58" y="12.38" class="st3" width="4.74" height="17.04"/>
				<path class="st3" d="M68.44,22.18l5.25,7.24h-5.41l-6.08-8.42c-0.77,0.74-1.25,2.41-1.44,5.03l-0.26,3.39h-4.46l0.33-3.61
					c0.22-2.45,0.65-4.21,1.28-5.28c0.63-1.07,1.44-1.9,2.41-2.49l-4.05-5.65h5.4l5.03,6.97c0.85-0.61,1.37-2,1.56-4.18l0.23-2.8
					h4.26l-0.2,2.07c-0.23,2.41-0.66,4.12-1.28,5.15C70.37,20.63,69.52,21.49,68.44,22.18"/>
				<rect x="76.31" y="12.39" class="st3" width="4.74" height="9.51"/>
				<path class="st3" d="M98.73,29.43h-4.59v-8.39c0-1.82-0.46-3.12-1.39-3.9c-0.92-0.78-2.39-1.17-4.4-1.17
					c-1.03,0-2.39,0.1-4.08,0.31l-0.34-3.55c1.58-0.35,3.39-0.53,5.44-0.53c3.12,0,5.46,0.64,7.02,1.91
					c1.56,1.27,2.35,3.31,2.35,6.12V29.43z"/>
				<path class="st3" d="M116.23,25.54h3.15v3.89h-17.32v-3.89h9.56v-4.5c0-1.86-0.41-3.18-1.23-3.95
					c-0.82-0.77-2.23-1.16-4.23-1.16c-1.18,0-2.5,0.11-3.97,0.34l-0.35-3.55c1.71-0.35,3.41-0.53,5.12-0.53
					c3.18,0,5.52,0.64,7.02,1.92c1.5,1.28,2.25,3.32,2.25,6.11V25.54z"/>
				<path class="st3" d="M135.06,12.39v4.39c0,1.61-0.07,2.78-0.21,3.53c-0.14,0.75-0.44,1.44-0.9,2.09l-0.74,1.04
					c-0.46,0.66-0.77,1.2-0.93,1.61c-0.16,0.41-0.25,0.93-0.25,1.55v2.83h-4.59v-3.05c0-0.88,0.12-1.62,0.35-2.23
					c0.24-0.61,0.7-1.38,1.39-2.31l0.44-0.59c0.56-0.76,0.84-1.7,0.84-2.83v-2.13h-9.27V5.88h4.59v6.51H135.06z"/>
				<path class="st3" d="M164.69,29.43h-4.59V21.4c0-2.09-0.53-3.53-1.58-4.33c-1.06-0.8-2.64-1.2-4.77-1.2
					c-1.59,0-3.31,0.13-5.18,0.4l-0.33-3.61c1.78-0.31,3.89-0.47,6.31-0.47c2.64,0,4.67,0.37,6.12,1.12
					c1.45,0.74,2.47,1.68,3.09,2.8c0.62,1.12,0.93,2.66,0.93,4.63V29.43z M153.05,29.43h-4.61v-8.85h4.61V29.43z"/>
				<path class="st3" d="M168.87,16.27v-3.89h15.38v4.39c0,1.61-0.07,2.78-0.21,3.53c-0.14,0.75-0.44,1.45-0.9,2.09l-0.74,1.05
					c-0.52,0.76-0.85,1.35-0.98,1.76c-0.12,0.41-0.19,0.88-0.19,1.41v2.83h-4.61v-3.05c0-0.88,0.12-1.62,0.35-2.23
					c0.23-0.61,0.7-1.38,1.39-2.31l0.44-0.59c0.56-0.76,0.84-1.7,0.84-2.83v-2.14H168.87z M168.87,20.58h4.59v15.4h-4.59V20.58z"/>
				<rect x="188.19" y="12.39" class="st3" width="4.74" height="9.51"/>
				<path class="st3" d="M208.45,15.61c-1.52,0-2.73,0.34-3.64,1.02s-1.36,1.75-1.36,3.22c0,0.41,0.04,0.95,0.13,1.64
					c0.27,1.98,0.41,3.77,0.41,5.36v2.57h-4.28v-2.17c0-1.47-0.09-3.12-0.26-4.96c-0.06-0.67-0.1-1.24-0.1-1.69
					c0-1.93,0.7-3.37,2.08-4.34h-4.8v-3.89h11.82V15.61z"/>
				<path class="st3" d="M215.12,16.03c1.73-2.56,3.82-3.84,6.28-3.84c2.06,0,3.69,0.8,4.9,2.4c1.21,1.6,1.82,4.19,1.82,7.76v7.07
					h-8.87v-3.89h4.26v-3.42c0-2.24-0.19-3.81-0.57-4.7c-0.38-0.9-1.05-1.34-2-1.34c-1.01,0-1.84,0.53-2.49,1.6
					c-0.65,1.06-1.26,3.07-1.8,6l-1.05,5.75h-4.87l0.8-3.71c0.48-2.19,0.92-3.81,1.31-4.84l-2.92-8.5h4.17L215.12,16.03z"/>
				<rect x="232.39" y="12.38" class="st3" width="4.74" height="17.04"/>
				<path class="st3" d="M267.14,29.43h-16.25v-16.7c2.11-0.35,4.25-0.53,6.41-0.53c2.77,0,4.82,0.33,6.16,1
					c1.34,0.67,2.29,1.55,2.85,2.64c0.56,1.1,0.84,2.56,0.84,4.4V29.43z M262.55,25.54v-5.06c0-1.49-0.33-2.62-1-3.39
					c-0.67-0.77-1.89-1.16-3.67-1.16c-0.95,0-1.74,0.06-2.38,0.18v9.43H262.55z"/>
				<rect x="271.41" y="12.39" class="st3" width="4.74" height="9.51"/>
				<rect x="280.58" y="12.39" class="st3" width="4.74" height="9.51"/>
				<path class="st3" d="M306,29.43h-4.59v-8.95c0-1.49-0.33-2.62-1-3.39c-0.67-0.77-1.89-1.16-3.67-1.16
					c-0.95,0-1.74,0.06-2.38,0.18v13.31h-4.61v-16.7c2.11-0.35,4.25-0.53,6.41-0.53c2.77,0,4.82,0.33,6.16,0.99
					c1.34,0.67,2.29,1.55,2.85,2.64c0.56,1.1,0.84,2.56,0.84,4.39V29.43z"/>
				<path class="st3" d="M318.99,26.04c0.67,0.22,1.26,0.32,1.79,0.32c0.65,0,1.09-0.16,1.29-0.47c0.21-0.32,0.31-0.91,0.31-1.79
					v-8.16c-0.77,0-1.93,0.09-3.49,0.27l-0.36-3.49c2.82-0.35,5.75-0.53,8.79-0.53c2.57,0,4.6,0.22,6.1,0.66
					c1.5,0.44,2.63,1.24,3.39,2.41c0.76,1.17,1.14,2.82,1.14,4.96v9.2h-4.61v-8.38c0-2.16-0.37-3.58-1.1-4.26
					c-0.73-0.67-2.48-1.01-5.25-1.01v8.53c0,1.45-0.11,2.48-0.34,3.11c-0.22,0.62-0.69,1.14-1.39,1.54c-0.7,0.4-1.69,0.6-2.98,0.6
					c-1.4,0-2.73-0.2-4-0.6L318.99,26.04z"/>
				<path class="st3" d="M351.06,29.43h-9.43v-3.89h4.84v-6.38c0-1.28-0.3-2.15-0.9-2.61c-0.6-0.45-1.43-0.68-2.49-0.68
					c-0.63,0-1.08,0.03-1.34,0.1l-0.34-3.49c0.85-0.19,1.94-0.29,3.26-0.29c2.21,0,3.83,0.52,4.86,1.57
					c1.03,1.05,1.55,2.73,1.55,5.03V29.43z"/>
				<path class="st3" d="M354.34,29.17l0.64-3.53c1.09,0.38,2.12,0.56,3.08,0.56c1.66,0,2.97-0.48,3.94-1.43
					c0.96-0.95,1.44-2.24,1.44-3.85c0-1.63-0.47-2.92-1.42-3.87c-0.95-0.95-2.26-1.43-3.96-1.43c-0.99,0-2.02,0.19-3.08,0.56
					l-0.64-3.52c1.15-0.35,2.51-0.53,4.1-0.53c2.09,0,3.82,0.33,5.21,1c1.38,0.66,2.5,1.62,3.35,2.88s1.28,2.89,1.28,4.92
					c0,1.94-0.4,3.53-1.2,4.78c-0.8,1.25-1.9,2.22-3.31,2.93c-1.41,0.71-3.19,1.06-5.33,1.06
					C356.89,29.69,355.53,29.52,354.34,29.17"/>
				<path class="st3" d="M370.91,21.04c0-2.71,0.83-4.89,2.48-6.55c1.65-1.66,3.81-2.49,6.49-2.49c1.8,0,3.37,0.38,4.71,1.13
					c1.33,0.76,2.38,1.79,3.15,3.11c0.77,1.32,1.15,2.85,1.15,4.59c0,2.53-0.83,4.66-2.49,6.39c-1.66,1.73-3.82,2.6-6.48,2.6
					c-2.66,0-4.82-0.81-6.49-2.43C371.75,25.77,370.91,23.66,370.91,21.04 M375.65,20.92c0,1.57,0.39,2.84,1.16,3.79
					c0.78,0.95,1.81,1.43,3.1,1.43c1.29,0,2.32-0.48,3.08-1.43c0.76-0.95,1.15-2.23,1.15-3.82c0-1.58-0.39-2.85-1.15-3.79
					c-0.77-0.94-1.8-1.41-3.08-1.41c-1.41,0-2.47,0.51-3.19,1.53C376.01,18.22,375.65,19.46,375.65,20.92"/>
				<path class="st3" d="M396.3,16.03c1.73-2.56,3.82-3.84,6.28-3.84c2.06,0,3.69,0.8,4.9,2.4c1.21,1.6,1.82,4.19,1.82,7.76v7.07
					h-8.87v-3.89h4.26v-3.42c0-2.24-0.19-3.81-0.57-4.7c-0.38-0.9-1.05-1.34-2-1.34c-1.01,0-1.84,0.53-2.49,1.6
					c-0.66,1.06-1.26,3.07-1.8,6l-1.05,5.75h-4.87l0.8-3.71c0.48-2.19,0.92-3.81,1.31-4.84l-2.92-8.5h4.17L396.3,16.03z"/>
				<path class="st3" d="M435.62,12.39v4.39c0,1.61-0.07,2.78-0.21,3.53c-0.14,0.75-0.44,1.44-0.9,2.09l-0.74,1.04
					c-0.46,0.66-0.77,1.2-0.93,1.61c-0.16,0.41-0.25,0.93-0.25,1.55v2.83H428v-3.05c0-0.88,0.12-1.62,0.35-2.23
					c0.24-0.61,0.7-1.38,1.39-2.31l0.44-0.59c0.56-0.76,0.84-1.7,0.84-2.83v-2.13h-9.27V5.88h4.59v6.51H435.62z"/>
				<rect x="439.56" y="12.38" class="st3" width="4.74" height="17.04"/>
				<path class="st3" d="M465.1,29.43h-4.59V21.4c0-2.09-0.53-3.53-1.58-4.33c-1.05-0.8-2.64-1.2-4.76-1.2
					c-1.59,0-3.32,0.13-5.18,0.4l-0.33-3.61c1.78-0.31,3.89-0.47,6.31-0.47c2.64,0,4.67,0.37,6.12,1.12
					c1.44,0.74,2.47,1.68,3.09,2.8c0.62,1.12,0.93,2.66,0.93,4.63V29.43z M453.45,29.43h-4.61v-8.85h4.61V29.43z"/>
				<rect x="469.36" y="12.38" class="st3" width="4.74" height="17.04"/>
				<path class="st3" d="M477.54,29.17l0.64-3.53c1.09,0.38,2.12,0.56,3.08,0.56c1.66,0,2.97-0.48,3.94-1.43
					c0.96-0.95,1.44-2.24,1.44-3.85c0-1.63-0.47-2.92-1.42-3.87c-0.95-0.95-2.26-1.43-3.96-1.43c-0.99,0-2.02,0.19-3.08,0.56
					l-0.64-3.52c1.15-0.35,2.51-0.53,4.1-0.53c2.09,0,3.82,0.33,5.21,1c1.38,0.66,2.5,1.62,3.35,2.88s1.28,2.89,1.28,4.92
					c0,1.94-0.4,3.53-1.2,4.78c-0.8,1.25-1.9,2.22-3.31,2.93c-1.41,0.71-3.19,1.06-5.33,1.06
					C480.09,29.69,478.72,29.52,477.54,29.17"/>
				<path class="st3" d="M507.74,12.39v4.39c0,1.61-0.07,2.78-0.21,3.53c-0.14,0.75-0.44,1.44-0.9,2.09l-0.74,1.04
					c-0.46,0.66-0.77,1.2-0.93,1.61c-0.16,0.41-0.25,0.93-0.25,1.55v2.83h-4.59v-3.05c0-0.88,0.12-1.62,0.35-2.23
					c0.23-0.61,0.7-1.38,1.39-2.31l0.44-0.59c0.56-0.76,0.84-1.7,0.84-2.83v-2.13h-9.27V5.88h4.59v6.51H507.74z"/>
				<path class="st3" d="M523.37,22.18l5.25,7.24h-5.41l-6.08-8.42c-0.77,0.74-1.25,2.41-1.44,5.03l-0.26,3.39h-4.46l0.33-3.61
					c0.22-2.45,0.65-4.21,1.28-5.28c0.63-1.07,1.44-1.9,2.41-2.49l-4.05-5.65h5.4l5.03,6.97c0.85-0.61,1.37-2,1.56-4.18l0.23-2.8
					h4.26l-0.2,2.07c-0.23,2.41-0.66,4.12-1.28,5.15C525.3,20.63,524.45,21.49,523.37,22.18"/>
				<path class="st3" d="M553.3,12.39v4.39c0,1.61-0.07,2.78-0.21,3.53c-0.14,0.75-0.44,1.44-0.9,2.09l-0.74,1.04
					c-0.46,0.66-0.77,1.2-0.93,1.61c-0.16,0.41-0.24,0.93-0.24,1.55v2.83h-4.59v-3.05c0-0.88,0.12-1.62,0.35-2.23
					c0.23-0.61,0.7-1.38,1.39-2.31l0.44-0.59c0.56-0.76,0.84-1.7,0.84-2.83v-2.13h-9.27V5.88h4.59v6.51H553.3z"/>
				<path class="st3" d="M561.94,23.4c0.22,0.88,0.78,1.61,1.68,2.21c0.9,0.59,1.9,0.89,3.01,0.89c1.87,0,3.29-0.56,4.26-1.66
					c0.98-1.11,1.58-3.18,1.82-6.21l0.48-6.25h4.53l-0.57,6.52c-0.24,2.76-0.68,4.8-1.34,6.12c-0.65,1.32-1.74,2.46-3.26,3.42
					c-1.53,0.96-3.47,1.44-5.85,1.44c-3.07,0-5.51-0.97-7.31-2.92c-1.8-1.95-2.7-4.89-2.7-8.82l-0.2-5.77h4.56l0.03,4.51
					c0.01,0.6,0.06,1.47,0.13,2.6c0.03,0.49,0.05,0.84,0.05,1.05c0.74,0,1.4-0.18,1.97-0.54c0.57-0.36,0.94-0.84,1.11-1.44
					c0.18-0.6,0.3-1.65,0.38-3.15l0.16-3.04h4.46l-0.23,4.21c-0.07,1.1-0.17,1.96-0.32,2.56c-0.15,0.6-0.45,1.22-0.92,1.83
					c-0.47,0.61-1.18,1.14-2.15,1.58C564.77,22.99,563.5,23.28,561.94,23.4"/>
				<path class="st3" d="M589.8,26.04c0.67,0.22,1.26,0.32,1.79,0.32c0.66,0,1.09-0.16,1.3-0.47c0.21-0.32,0.31-0.91,0.31-1.79
					v-8.16c-0.77,0-1.93,0.09-3.49,0.27l-0.36-3.49c2.82-0.35,5.75-0.53,8.79-0.53c2.57,0,4.6,0.22,6.1,0.66
					c1.5,0.44,2.63,1.24,3.39,2.41c0.76,1.17,1.14,2.82,1.14,4.96v9.2h-4.61v-8.38c0-2.16-0.37-3.58-1.1-4.26
					c-0.73-0.67-2.48-1.01-5.25-1.01v8.53c0,1.45-0.11,2.48-0.34,3.11c-0.22,0.62-0.69,1.14-1.39,1.54c-0.7,0.4-1.69,0.6-2.98,0.6
					c-1.4,0-2.73-0.2-4-0.6L589.8,26.04z"/>
				<path class="st3" d="M624.28,15.61c-1.52,0-2.73,0.34-3.64,1.02c-0.91,0.68-1.36,1.75-1.36,3.22c0,0.41,0.04,0.95,0.13,1.64
					c0.27,1.98,0.41,3.77,0.41,5.36v2.57h-4.28v-2.17c0-1.47-0.09-3.12-0.26-4.96c-0.06-0.67-0.1-1.24-0.1-1.69
					c0-1.93,0.7-3.37,2.08-4.34h-4.8v-3.89h11.82V15.61z"/>
				<path class="st3" d="M640.32,29.43h-4.59v-8.39c0-1.82-0.46-3.12-1.39-3.9s-2.39-1.17-4.4-1.17c-1.03,0-2.39,0.1-4.08,0.31
					l-0.34-3.55c1.58-0.35,3.39-0.53,5.45-0.53c3.11,0,5.46,0.64,7.02,1.91c1.57,1.27,2.35,3.31,2.35,6.12V29.43z"/>
				<path class="st3" d="M644.45,12.92c2.07-0.55,4.17-0.82,6.31-0.82c3.05,0,5.48,0.78,7.29,2.35c1.81,1.57,2.71,3.6,2.71,6.1
					c0,2.9-0.98,5.15-2.95,6.75c-1.97,1.6-4.54,2.39-7.72,2.39c-2,0-4.03-0.36-6.08-1.08l0.9-3.04c1.66,0.62,3.24,0.93,4.74,0.93
					c1.91,0,3.45-0.49,4.59-1.45c1.15-0.97,1.72-2.41,1.72-4.31c0-1.74-0.47-3.12-1.4-4.11s-2.23-1.49-3.92-1.49
					c-0.61,0-1.24,0.06-1.87,0.18v1.98c0,1.56,0.64,2.34,1.92,2.34c0.18,0,0.37-0.01,0.59-0.03l0.77,2.79
					c-0.78,0.32-1.62,0.48-2.54,0.48c-0.85,0-1.65-0.15-2.4-0.45c-0.75-0.3-1.38-0.83-1.89-1.59c-0.51-0.76-0.77-2.07-0.77-3.94
					V12.92z"/>
				<rect x="664.29" y="12.38" class="st3" width="4.74" height="17.04"/>
				<path class="st3" d="M677.35,16.03c1.73-2.56,3.82-3.84,6.28-3.84c2.06,0,3.69,0.8,4.91,2.4c1.21,1.6,1.82,4.19,1.82,7.76v7.07
					h-8.87v-3.89h4.26v-3.42c0-2.24-0.19-3.81-0.57-4.7c-0.38-0.9-1.05-1.34-2-1.34c-1.01,0-1.84,0.53-2.49,1.6
					c-0.66,1.06-1.26,3.07-1.8,6l-1.05,5.75h-4.87l0.8-3.71c0.48-2.19,0.92-3.81,1.31-4.84l-2.92-8.5h4.16L677.35,16.03z"/>
				<path class="st3" d="M720.32,29.43h-4.59V21.4c0-2.09-0.53-3.53-1.58-4.33c-1.06-0.8-2.64-1.2-4.77-1.2
					c-1.58,0-3.31,0.13-5.18,0.4l-0.33-3.61c1.78-0.31,3.89-0.47,6.31-0.47c2.64,0,4.67,0.37,6.12,1.12
					c1.44,0.74,2.47,1.68,3.09,2.8s0.93,2.66,0.93,4.63V29.43z M708.67,29.43h-4.61v-8.85h4.61V29.43z"/>
				<path class="st3" d="M723.6,29.17l0.64-3.53c1.09,0.38,2.12,0.56,3.08,0.56c1.66,0,2.97-0.48,3.93-1.43
					c0.96-0.95,1.44-2.24,1.44-3.85c0-1.63-0.47-2.92-1.42-3.87c-0.95-0.95-2.27-1.43-3.96-1.43c-1,0-2.02,0.19-3.08,0.56
					l-0.64-3.52c1.15-0.35,2.52-0.53,4.1-0.53c2.09,0,3.82,0.33,5.21,1c1.38,0.66,2.5,1.62,3.35,2.88c0.85,1.25,1.28,2.89,1.28,4.92
					c0,1.94-0.4,3.53-1.2,4.78c-0.8,1.25-1.9,2.22-3.31,2.93c-1.41,0.71-3.19,1.06-5.33,1.06C726.15,29.69,724.78,29.52,723.6,29.17
					"/>
				<rect x="741.07" y="12.39" class="st3" width="4.74" height="9.51"/>
				<path class="st3" d="M763.48,29.43h-4.59v-8.39c0-1.82-0.46-3.12-1.39-3.9c-0.92-0.78-2.39-1.17-4.4-1.17
					c-1.03,0-2.39,0.1-4.08,0.31l-0.35-3.55c1.58-0.35,3.39-0.53,5.45-0.53c3.11,0,5.46,0.64,7.02,1.91
					c1.57,1.27,2.35,3.31,2.35,6.12V29.43z"/>
				<path class="st3" d="M781.08,12.39l-0.16,2.63l-0.11,1.49c-0.03,0.48-0.12,0.97-0.26,1.46c-0.14,0.49-0.37,0.98-0.68,1.47
					c-0.31,0.49-0.71,0.94-1.19,1.36c-0.48,0.42-1.06,0.8-1.72,1.16l3.56,5.46v2.01H766.7v-3.89h7.76l-8.76-13.16h4.97l4.36,6.62
					c0.53-0.15,0.89-0.42,1.06-0.81c0.17-0.39,0.3-1.43,0.39-3.11l0.15-2.7H781.08z"/>
				<path class="st3" d="M795.35,12.37h4.61v4.51h-4.61V12.37z M795.35,24.92h4.61v4.51h-4.61V24.92z"/>
				<path class="st3" d="M821.82,29.43h-4.59V21.4c0-2.09-0.53-3.53-1.58-4.33c-1.06-0.8-2.64-1.2-4.77-1.2
					c-1.59,0-3.31,0.13-5.18,0.4l-0.33-3.61c1.78-0.31,3.89-0.47,6.31-0.47c2.64,0,4.68,0.37,6.12,1.12
					c1.44,0.74,2.47,1.68,3.09,2.8c0.62,1.12,0.93,2.66,0.93,4.63V29.43z M810.17,29.43h-4.61v-8.85h4.61V29.43z"/>
				<path class="st3" d="M839.33,29.43h-4.59v-8.39c0-1.82-0.46-3.12-1.39-3.9c-0.92-0.78-2.39-1.17-4.4-1.17
					c-1.03,0-2.39,0.1-4.08,0.31l-0.35-3.55c1.58-0.35,3.39-0.53,5.45-0.53c3.11,0,5.46,0.64,7.02,1.91
					c1.57,1.27,2.35,3.31,2.35,6.12V29.43z"/>
				<path class="st3" d="M859.97,29.43h-4.59V21.4c0-2.09-0.53-3.53-1.58-4.33c-1.05-0.8-2.64-1.2-4.76-1.2
					c-1.59,0-3.31,0.13-5.18,0.4l-0.33-3.61c1.78-0.31,3.89-0.47,6.31-0.47c2.64,0,4.67,0.37,6.12,1.12
					c1.44,0.74,2.47,1.68,3.09,2.8c0.62,1.12,0.93,2.66,0.93,4.63V29.43z M848.32,29.43h-4.61v-8.85h4.61V29.43z"/>
				<path class="st3" d="M875.32,15.61c-1.52,0-2.73,0.34-3.64,1.02c-0.91,0.68-1.36,1.75-1.36,3.22c0,0.41,0.04,0.95,0.13,1.64
					c0.27,1.98,0.41,3.77,0.41,5.36v2.57h-4.28v-2.17c0-1.47-0.09-3.12-0.26-4.96c-0.06-0.67-0.1-1.24-0.1-1.69
					c0-1.93,0.7-3.37,2.08-4.34h-4.8v-3.89h11.82V15.61z"/>
				<path class="st3" d="M889.8,22.18l5.25,7.24h-5.41l-6.08-8.42c-0.77,0.74-1.25,2.41-1.44,5.03l-0.26,3.39h-4.46l0.33-3.61
					c0.22-2.45,0.65-4.21,1.28-5.28c0.63-1.07,1.44-1.9,2.41-2.49l-4.05-5.65h5.4l5.03,6.97c0.85-0.61,1.37-2,1.56-4.18l0.23-2.8
					h4.26l-0.2,2.07c-0.23,2.41-0.65,4.12-1.28,5.15C891.74,20.63,890.88,21.49,889.8,22.18"/>
			</g>
		</g>
	</g>
</g>
</svg>
